<?xml version="1.0" encoding="UTF-8"?>
<svg version="1.1" xmlns="http://www.w3.org/2000/svg" width="512" height="512">
<path d="M0 0 C1.74411357 -0.01265991 1.74411357 -0.01265991 3.52346176 -0.02557558 C4.79659967 -0.01956553 6.06973758 -0.01355549 7.38145542 -0.00736332 C8.75093271 -0.01153647 10.12040654 -0.01701388 11.48987395 -0.02368313 C15.25238485 -0.03815912 19.01467711 -0.03388637 22.7772001 -0.02651632 C26.8352273 -0.02179226 30.89320666 -0.03428773 34.95121861 -0.04453373 C42.90086556 -0.06174198 50.85043355 -0.06255756 58.8000943 -0.05732083 C65.26064937 -0.05328171 71.72118108 -0.05471961 78.18173504 -0.06006908 C79.10074518 -0.06081751 80.01975533 -0.06156593 80.96661426 -0.06233703 C82.83349621 -0.06386848 84.70037816 -0.06540683 86.56726009 -0.066952 C104.07994411 -0.08068433 121.59258346 -0.07523417 139.10526646 -0.06376678 C155.13145869 -0.05383331 171.15753549 -0.06677574 187.18370991 -0.09070098 C203.63462973 -0.11507551 220.08549576 -0.12470392 236.53643328 -0.11804825 C245.77430742 -0.11455241 255.01209276 -0.11681216 264.24995327 -0.13429928 C272.11384767 -0.14900068 279.97759073 -0.14968375 287.8414821 -0.13222837 C291.854408 -0.12369897 295.86706333 -0.12161583 299.87997532 -0.13687992 C303.55335693 -0.15067966 307.22623498 -0.14602533 310.8995871 -0.12664068 C312.85836637 -0.12107703 314.81717098 -0.13519149 316.77590221 -0.14999479 C323.17988837 -0.096062 327.40056283 -0.05096818 332.21655369 4.38031673 C333.56176853 6.05487728 333.56176853 6.05487728 334.42749119 7.76703548 C334.77634373 8.44008724 335.12519627 9.113139 335.48462009 9.80658627 C336.03255222 10.92589535 336.03255222 10.92589535 336.59155369 12.06781673 C337.00453709 12.88105404 337.41752048 13.69429134 337.84301853 14.5321722 C339.32330332 17.47091809 340.77214822 20.42377127 342.21655369 23.38031673 C342.79727634 24.56480404 343.377999 25.74929134 343.97631931 26.9696722 C347.69819149 34.57089167 351.3826041 42.1899445 355.05365086 49.81581783 C358.4666459 56.90475137 361.90097931 63.9832494 365.33712864 71.0609808 C369.50135894 79.64020871 373.65938765 88.22243874 377.80639744 96.81000423 C378.09594303 97.40922192 378.38548862 98.0084396 378.68380833 98.62581539 C380.11653597 101.59207479 381.5448323 104.5603544 382.96753025 107.53143978 C385.70407595 113.23624847 388.47305289 118.91560829 391.34990025 124.55072689 C392.7680633 127.33364388 394.16838941 130.12536782 395.56759739 132.91785336 C396.23898667 134.24558453 396.91883547 135.56907909 397.60794163 136.88770199 C398.57012832 138.73026558 399.50103083 140.58599586 400.42749119 142.44672298 C400.96680271 143.49803402 401.50611423 144.54934505 402.06176853 145.632514 C405.271736 156.05031752 402.79819709 163.9673137 397.91577244 173.33734798 C397.0892593 174.99464176 397.0892593 174.99464176 396.24604893 176.68541622 C394.48756855 180.19957707 392.69704394 183.69615895 390.90405369 187.19281673 C389.7423047 189.49572264 388.58278121 191.79975266 387.42553806 194.10492611 C385.70337108 197.5333303 383.97917409 200.96056776 382.2456522 204.38324642 C377.14424368 214.4609451 372.26444109 224.63624023 367.42465305 234.84146786 C365.63088377 238.61111567 363.81143668 242.36806902 361.98608494 246.12250423 C361.65998737 246.79365261 361.33388981 247.46480099 360.9979105 248.15628719 C359.29265563 251.66339631 357.5836164 255.16865224 355.87378025 258.67352962 C352.50073633 265.59259049 349.14103087 272.51638046 345.85258579 279.47614193 C344.40927132 282.52967007 342.95720778 285.57900206 341.50473118 288.6281805 C340.81856869 290.07537643 340.13686203 291.52469435 339.45987034 292.97620296 C338.52019481 294.9901409 337.56539141 296.99624122 336.60717869 299.00141048 C336.07125095 300.14021664 335.53532322 301.27902279 334.98315525 302.45233822 C332.72389428 306.19685408 330.113574 308.43180658 326.21655369 310.38031673 C324.41389112 310.47827326 322.60757008 310.51132342 320.80225086 310.51453781 C319.06709701 310.52122458 319.06709701 310.52122458 317.29688954 310.52804643 C315.37407489 310.52776989 315.37407489 310.52776989 313.4124155 310.52748775 C312.04553076 310.53078554 310.678647 310.53451092 309.31176448 310.53862923 C305.54254288 310.54866713 301.77333721 310.5523689 298.00410414 310.55501854 C293.94399333 310.55891631 289.88389519 310.568495 285.82379246 310.57723141 C276.01213119 310.59701082 266.20046886 310.60706392 256.38879263 310.6159592 C251.77119576 310.6203397 247.15360003 310.62570712 242.53600407 310.63094807 C227.19096839 310.64796185 211.84593344 310.66245676 196.50088978 310.66969681 C192.51711368 310.67160678 188.53333758 310.6735271 184.5495615 310.67548275 C183.55938226 310.67596649 182.56920302 310.67645023 181.54901835 310.67694863 C165.50324456 310.68525165 149.45754525 310.71059248 133.41180399 310.74306343 C116.94742952 310.77611059 100.48309293 310.79414345 84.0186851 310.79734105 C74.77069307 310.79950833 65.52280965 310.80828871 56.27484989 310.83380222 C48.3999187 310.85547726 40.52512251 310.86357545 32.65016487 310.85383544 C28.6311733 310.84928141 24.61246042 310.8512406 20.59350681 310.87059689 C16.91447235 310.88816323 13.23592124 310.88728455 9.55688211 310.87169959 C7.59496356 310.86818284 5.63304032 310.8843985 3.67119145 310.90130407 C-7.19937599 310.82138704 -7.19937599 310.82138704 -11.78344631 306.38031673 C-16.05872702 301.70925588 -15.20321441 295.70037919 -15.17112637 289.73396969 C-15.1765119 288.54153367 -15.18189744 287.34909765 -15.18744618 286.12052721 C-15.19928005 282.81397355 -15.19765328 279.50792371 -15.19027936 276.20138991 C-15.18555238 272.63416201 -15.19805336 269.06698835 -15.20829678 265.49977779 C-15.22549932 258.51266655 -15.22632179 251.52564518 -15.22108387 244.53851826 C-15.21704368 238.85980811 -15.21848394 233.18112454 -15.22383213 227.50241566 C-15.22458055 226.69441996 -15.22532897 225.88642427 -15.22610008 225.05394385 C-15.22763154 223.4125419 -15.22916989 221.77113996 -15.23071504 220.12973803 C-15.24444533 204.73445685 -15.23899867 189.33922649 -15.22752983 173.94394647 C-15.21759667 159.85770606 -15.23053859 145.77159698 -15.25446402 131.68537683 C-15.27884292 117.22327718 -15.28846589 102.76123873 -15.2818113 88.29911894 C-15.27831641 80.17906719 -15.2805689 72.05911647 -15.29806232 63.93908024 C-15.31276919 57.02672162 -15.31343968 50.11453516 -15.29599141 43.20217998 C-15.28746645 39.67530498 -15.28536791 36.14873774 -15.30064297 32.62187862 C-15.31699526 28.79897654 -15.30237164 24.97655165 -15.28465176 21.15364742 C-15.29425676 20.03837817 -15.30386177 18.92310891 -15.31375784 17.77404362 C-15.25703197 11.84375724 -15.01313224 7.92612416 -10.78344631 3.38031673 C-7.06943887 0.72729714 -4.54146034 0.00465798 0 0 Z M94.21655369 63.63031673 C93.43465672 64.50019222 93.43465672 64.50019222 92.63696384 65.38764095 C91.15325264 67.04313571 89.68247046 68.70906577 88.21655369 70.38031673 C87.56428806 71.12023861 86.91202244 71.86016048 86.23999119 72.62250423 C85.15297071 73.86407739 84.06954568 75.10880892 82.98999119 76.35687923 C80.76517276 78.89532845 78.49152049 81.3867345 76.21655369 83.88031673 C70.13390267 90.5575352 70.13390267 90.5575352 64.21655369 97.38031673 C63.70866306 97.93976986 63.20077244 98.49922298 62.67749119 99.07562923 C59.22905135 103.21761004 58.48829599 106.64193662 58.80639744 112.01703548 C59.57385835 116.43907217 61.38177245 119.07089585 65.01733494 121.66547298 C68.49537994 123.65775119 70.78331353 124.38031673 74.84155369 124.38031673 C81.45951404 122.41943959 85.66358519 118.15991138 90.09155369 113.13031673 C90.83792088 112.29887142 90.83792088 112.29887142 91.59936619 111.45062923 C92.81103117 110.09915675 94.01465032 108.74047784 95.21655369 107.38031673 C95.21802025 108.09023297 95.21948681 108.80014921 95.22099781 109.53157806 C95.25807304 126.81707044 95.31709718 144.10234884 95.40045643 161.38768005 C95.44024109 169.74680109 95.47263646 178.10582807 95.48754978 186.46503353 C95.50056931 193.75216906 95.52754152 201.03909757 95.57116675 208.3261165 C95.59377499 212.18346307 95.60946477 216.04055436 95.60843754 219.89797306 C95.60769053 223.5318062 95.62565678 227.16507519 95.65772152 230.79876232 C95.67024699 232.76188653 95.66315961 234.72510548 95.65541172 236.68825436 C95.73529024 243.45841395 96.09510367 247.90607743 100.21655369 253.38031673 C103.33039179 256.27640392 106.54670232 257.28462368 110.71655369 257.88031673 C114.88640506 257.28462368 118.10271559 256.27640392 121.21655369 253.38031673 C124.61856958 248.26217257 125.71730412 244.99904157 125.72448826 238.72090816 C125.73072822 237.98144874 125.73696818 237.24198932 125.74339724 236.48012203 C125.75926679 234.01886975 125.74674739 231.5586162 125.73413181 229.09735775 C125.73955569 227.32607098 125.74667984 225.55478872 125.75537205 223.78351498 C125.77357811 218.98384571 125.76654874 214.18452111 125.75385571 209.38484597 C125.74371239 204.35573396 125.75312523 199.326651 125.75940037 194.2975378 C125.76667356 185.85168835 125.75709837 177.4059789 125.73803806 168.96015072 C125.71627702 159.20514624 125.72331646 149.45047628 125.74534369 139.69547993 C125.76351544 131.31138997 125.76604711 122.92740053 125.75558901 114.54329723 C125.74936294 109.53969654 125.74849391 104.5362529 125.76173496 99.53266239 C125.77331841 94.82687819 125.76522221 90.12152373 125.74215794 85.41578579 C125.73688385 83.69209855 125.73836229 81.96837494 125.7472086 80.24470234 C126.00466953 68.18440607 126.00466953 68.18440607 121.21655369 57.38031673 C118.01808035 54.61951719 114.92045764 53.48087444 110.71655369 52.88031673 C103.40082989 53.92542013 98.88871284 58.2957912 94.21655369 63.63031673 Z M176.08764744 77.92328548 C164.12154902 94.17960493 162.74660674 111.4882797 162.81811619 130.94281673 C162.81608944 132.90709192 162.81317304 134.87136636 162.80941868 136.835639 C162.80502357 140.93035785 162.81133491 145.0248789 162.82544041 149.11957455 C162.84253046 154.33061634 162.83267407 159.54119435 162.81472301 164.7522192 C162.80380863 168.80177877 162.80736637 172.85123097 162.81510639 176.90079403 C162.81708731 178.82065545 162.81472456 180.74052708 162.80766773 182.66037655 C162.76808283 196.45133891 163.15310165 209.99299962 169.71655369 222.50531673 C170.05767185 223.16781429 170.39879002 223.83031185 170.75024509 224.51288509 C178.98793677 239.70924879 192.91342327 250.14981932 209.27514744 255.35297298 C226.31124632 259.8361569 242.40977145 257.59862827 257.86108494 249.38422298 C271.0895442 241.48410703 281.09424576 230.01815289 286.21655369 215.38031673 C286.58559063 214.42456249 286.58559063 214.42456249 286.96208286 213.44950008 C290.31768047 203.37709881 289.66973655 192.84586981 289.65014744 182.36078548 C289.65471671 180.21286003 289.66002449 178.06493603 289.66603184 175.91701412 C289.67493533 171.42775163 289.67257203 166.93866729 289.66259861 162.44940853 C289.65112382 156.73039307 289.67131225 151.01199646 289.70051575 145.29306221 C289.71896979 140.86003953 289.71856682 136.42716256 289.71287823 131.99411106 C289.71272608 129.88723859 289.71868129 127.78035556 289.7311697 125.67352009 C289.84183685 103.94273241 285.7916532 86.57938017 270.21655369 70.38031673 C256.75004273 58.25090615 241.15188864 52.76436341 223.21655369 53.07172298 C204.22432352 54.19577197 188.16812557 63.49320977 176.08764744 77.92328548 Z " fill="#000000" transform="translate(14.783446311950684,100.61968326568604)"/>
<path d="M0 0 C1.12954172 -0.00384115 2.25908345 -0.00768229 3.42285371 -0.01163983 C4.65892672 -0.01077335 5.89499974 -0.00990687 7.16852951 -0.00901413 C9.14389368 -0.01347081 9.14389368 -0.01347081 11.15916419 -0.01801753 C14.81320418 -0.02607697 18.4672245 -0.02787651 22.12127233 -0.028615 C26.06277571 -0.03046738 30.00426894 -0.03801562 33.94576645 -0.04475021 C42.56356701 -0.05832627 51.18136292 -0.06435704 59.7991724 -0.06876087 C65.18085516 -0.07152436 70.56253613 -0.0757619 75.94421768 -0.08026505 C90.84672686 -0.09245645 105.7492346 -0.10275622 120.65174866 -0.10614014 C121.60534743 -0.1063597 122.5589462 -0.10657927 123.5414419 -0.10680549 C124.97524475 -0.10713291 124.97524475 -0.10713291 126.43801332 -0.10746694 C128.37493912 -0.1079104 130.31186493 -0.10835696 132.24879074 -0.10880661 C133.20957101 -0.10902804 134.17035128 -0.10924947 135.1602461 -0.10947761 C150.72849874 -0.11342568 166.29670457 -0.13088054 181.86493912 -0.15416613 C197.85142817 -0.17788419 213.83789374 -0.19034218 229.82440066 -0.19150805 C238.79911394 -0.19242453 247.77376621 -0.1981699 256.74846268 -0.21632767 C264.39045958 -0.23173472 272.03237663 -0.23684552 279.67438611 -0.22858956 C283.5722089 -0.22468529 287.46987091 -0.22560175 291.36767387 -0.23964691 C294.93935544 -0.25239908 298.51075563 -0.25117697 302.08243689 -0.2390562 C303.97935338 -0.23617892 305.87627479 -0.248025 307.77315259 -0.26047826 C315.3329398 -0.21677737 323.04366271 -0.10610661 328.72266769 5.42879105 C330.5049087 8.36078806 332.12634353 11.29850427 333.65064621 14.37361526 C333.94766937 14.96912689 334.24469254 15.56463852 334.5507164 16.17819595 C335.51597317 18.11795024 336.47219293 20.06199713 337.42798996 22.00642776 C338.10636834 23.37581457 338.78508336 24.74503465 339.46412277 26.11409378 C343.67487958 34.62083092 347.81212202 43.16163797 351.88160324 51.73689651 C356.45310367 61.36041029 361.12981025 70.9320228 365.80298996 80.50642776 C371.02135171 91.20013706 376.23341185 101.89594886 381.36548996 112.63142776 C386.4777387 123.32475407 391.66845714 133.97914326 396.86548996 144.63142776 C409.0581299 169.62427782 409.0581299 169.62427782 414.05396652 180.15755081 C416.37656523 185.04513141 418.74397266 189.90242869 421.20794296 194.72005081 C422.53453958 197.31946173 423.84301481 199.92781567 425.15049362 202.53688431 C425.78191498 203.78471078 426.42176997 205.02831421 427.07096481 206.26698685 C427.97758354 207.99822428 428.85168321 209.7463686 429.72486496 211.49470901 C430.23501144 212.48768997 430.74515793 213.48067093 431.2707634 214.50374222 C434.1953782 224.19527911 432.33706688 231.96971277 427.75611496 240.70564651 C427.27814468 241.66406952 426.80017441 242.62249252 426.30772018 243.60995865 C424.7653088 246.69108771 423.19077642 249.75449818 421.61548996 252.81892776 C420.54057651 254.95342031 419.46815796 257.08917104 418.3982048 259.22615433 C416.31437154 263.38319454 414.2203406 267.5347889 412.11646652 271.68172073 C408.98194596 277.87223332 405.95975729 284.10988606 402.99048996 290.38142776 C398.40729983 299.98521832 393.76814396 309.56116313 389.11548996 319.13142776 C388.75484451 319.87334366 388.39419907 320.61525955 388.02262497 321.37965775 C386.56031916 324.38785535 385.09794033 327.39601743 383.63540268 330.40410233 C379.81159165 338.2692779 375.99358521 346.13726366 372.17798996 354.00642776 C371.84656998 354.68989273 371.51514999 355.3733577 371.17368698 356.07753372 C366.58142022 365.54884761 362.00114928 375.02587133 357.42798996 384.50642776 C355.39969534 388.70827323 353.37063804 392.90974974 351.34119797 397.11104202 C350.2886715 399.29049474 349.23675367 401.47024071 348.1848259 403.64998245 C346.27003254 407.61684724 344.35218147 411.58222307 342.43259811 415.546772 C341.68958643 417.08241647 340.94747495 418.61849689 340.20634079 420.15504837 C328.72654014 443.95090268 328.72654014 443.95090268 322.36548996 447.13142776 C318.77215251 448.03278124 315.42269992 448.25739234 311.7253933 448.26006222 C310.02923061 448.26489889 310.02923061 448.26489889 308.29880202 448.26983327 C307.06136476 448.26828466 305.82392751 448.26673606 304.54899216 448.26514053 C302.57151129 448.26853887 302.57151129 448.26853887 300.55408132 448.27200586 C296.89617775 448.27812429 293.23829702 448.27799021 289.5803895 448.27681148 C285.63483611 448.27660749 281.68929006 448.28212609 277.74374008 448.28686905 C270.01435989 448.29517627 262.28498732 448.29792392 254.55560304 448.29848143 C248.27336265 448.29895653 241.99112478 448.30101098 235.70888519 448.30418205 C217.89986263 448.31298861 200.09084609 448.31760139 182.28182133 448.31685158 C181.32168783 448.31681162 180.36155434 448.31677167 179.3723259 448.3167305 C178.41102101 448.31668962 177.44971612 448.31664874 176.45928077 448.31660662 C160.8767552 448.31620009 145.29425379 448.3257714 129.7117352 448.33986887 C113.71395583 448.3542279 97.71618825 448.36113932 81.71840227 448.36027509 C72.73594351 448.35994297 63.75351008 448.36269667 54.77105713 448.37345314 C47.12389052 448.38255189 39.47676072 448.38473852 31.82959105 448.37794372 C27.92799995 448.37467543 24.0264795 448.37463297 20.1248951 448.38329697 C16.55213515 448.39114918 12.97950204 448.38974367 9.40674524 448.38101283 C7.50438129 448.37874741 5.60201345 448.38631652 3.69966471 448.39425248 C-10.08796155 448.33843646 -10.08796155 448.33843646 -15.44701004 443.69392776 C-19.1797072 439.32133967 -19.87956109 437.18977311 -19.82982254 431.49470901 C-19.82337723 430.19597855 -19.81693192 428.89724808 -19.81029129 427.55916214 C-19.79358064 426.18741469 -19.77665075 424.8156699 -19.75951004 423.44392776 C-19.74947678 422.06047058 -19.74035153 420.67700649 -19.73216629 419.29353714 C-19.70855971 415.90599324 -19.67563041 412.51879705 -19.63451004 409.13142776 C-19.05505906 409.13007124 -18.47560808 409.12871471 -17.87859797 409.12731707 C16.49264089 409.04660205 50.86383697 408.95562092 85.23501261 408.85137615 C89.3654189 408.83885784 93.49582544 408.82642498 97.62623215 408.81404495 C98.85962508 408.81034596 98.85962508 408.81034596 100.11793503 408.80657224 C113.41792869 408.76688868 126.71793081 408.73412189 140.01794901 408.70392795 C153.67310213 408.67277318 167.3282195 408.63414666 180.9833324 408.58863771 C189.40383045 408.56080825 197.82430246 408.53875129 206.24483404 408.52416526 C212.02536418 408.51359296 217.8058438 408.4957388 223.58633581 408.47226073 C226.91739307 408.45894314 230.24831799 408.44982073 233.57941055 408.44721413 C237.20117396 408.44387326 240.82269482 408.42834626 244.44440842 408.40990067 C245.48335605 408.4118354 246.52230368 408.41377013 247.59273458 408.4157635 C257.3333491 408.34196083 266.85037724 407.47206576 275.61548996 403.00642776 C276.71377121 402.46759964 277.81205246 401.92877151 278.94361496 401.37361526 C286.73231564 396.71755059 291.5678046 389.9351959 295.49048996 381.94392776 C295.97002121 380.99759476 296.44955246 380.05126175 296.94361496 379.07625198 C298.41173728 376.15818156 299.86084221 373.23145314 301.30067062 370.29933548 C302.48598545 367.88610623 303.67518766 365.47481163 304.8645134 363.06355667 C314.01842868 344.48950903 323.09919979 325.87865057 332.02173996 307.19221878 C335.1598621 300.62318052 338.33763013 294.07436316 341.53120041 287.53216934 C344.46005975 281.53074342 347.37504836 275.52271592 350.27961349 269.50949478 C351.93257625 266.08799241 353.58970004 262.66879835 355.26343918 259.25740433 C356.96494671 255.78819756 358.63551983 252.30463339 360.30298996 248.81892776 C360.79283371 247.83158646 361.28267746 246.84424515 361.78736496 245.82698441 C367.05216417 234.67437209 368.87110637 223.09359199 365.36548996 211.13142776 C363.62888312 206.54656226 361.57621155 202.16123913 359.42798996 197.75642776 C358.83981263 196.52363517 358.25275348 195.29030851 357.66675949 194.05647659 C353.24559844 184.78722904 348.65194047 175.60232859 344.02173996 166.43611526 C341.35499231 161.13955014 338.78692793 155.79918123 336.24048996 150.44392776 C330.88785781 139.19140146 325.45039654 127.98125072 319.99830246 116.77669144 C319.26520182 115.26995037 318.53212902 113.76319575 317.79908371 112.25642776 C317.43394669 111.50593658 317.06880966 110.7554454 316.69260788 109.98221207 C314.10568806 104.6619571 311.5318188 99.33551269 308.96314621 94.00642776 C307.89676857 91.79685708 306.83017934 89.58738865 305.76353073 87.37794876 C305.09453917 85.99063393 304.42654891 84.60283568 303.75968552 83.21449661 C292.33304609 58.31201022 292.33304609 58.31201022 270.47987294 42.81616151 C262.07660084 40.09479833 253.19697548 39.83665578 244.44440842 39.85295486 C243.30709487 39.84716246 242.16978132 39.84137006 240.99800372 39.83540213 C237.22105558 39.81851784 233.44423048 39.81553562 229.66724777 39.81258011 C226.94629242 39.80436649 224.22535108 39.79319023 221.50440598 39.78213882 C215.66382739 39.75995558 209.82326605 39.74488883 203.98265457 39.73477173 C195.53830585 39.72013397 187.0940173 39.69458315 178.64970407 39.66644044 C164.94658359 39.62106464 151.2434544 39.58441193 137.54029465 39.55330276 C124.23559161 39.52307938 110.93090983 39.4887118 97.62623215 39.44881058 C96.80497405 39.44634903 95.98371595 39.44388748 95.13757125 39.44135134 C91.01721499 39.428976 86.89685898 39.41651961 82.77650309 39.40402293 C48.63952776 39.30059318 14.50252824 39.21134459 -19.63451004 39.13142776 C-19.733921 35.11140147 -19.80623067 31.09185814 -19.8542366 27.07088089 C-19.87426323 25.70519409 -19.90149336 24.33959208 -19.93626785 22.9742012 C-19.98517436 21.00355675 -20.00542351 19.03226794 -20.02513504 17.06111526 C-20.04608231 15.87759476 -20.06702957 14.69407425 -20.0886116 13.47468948 C-19.53865001 9.42567117 -18.15584891 7.30711134 -15.63451004 4.13142776 C-10.72675145 0.48206881 -5.98453787 0.00765554 0 0 Z " fill="#000000" transform="translate(79.6345100402832,31.868572235107422)"/>
<path d="M0 0 C7.72630943 5.64962192 12.94423701 12.24120476 15.58984375 21.5234375 C15.99262771 24.65652361 16.01092116 27.7458926 15.99389648 30.90185547 C16.00075974 31.80379639 16.00762299 32.7057373 16.01469421 33.63500977 C16.03288823 36.59537826 16.0291349 39.55521297 16.0234375 42.515625 C16.02800318 44.58773977 16.0333099 46.65985303 16.0393219 48.73196411 C16.04823876 53.06762862 16.04584645 57.40310881 16.03588867 61.73876953 C16.02440706 67.27554941 16.04460573 72.81169073 16.07380581 78.34838676 C16.0922154 82.62598669 16.09186575 86.90343498 16.08616829 91.18106461 C16.08601562 93.22146627 16.09201428 95.26187857 16.10445976 97.30224228 C16.17693971 111.13332539 15.91977219 121.9376142 5.94140625 132.4765625 C-2.24098735 139.59877886 -10.59130984 141.91824047 -21.21484375 141.80078125 C-29.55987149 141.07645733 -37.53556566 137.53435825 -43.41015625 131.5234375 C-50.2158874 122.7405473 -52.71963216 114.63535465 -52.68481445 103.69580078 C-52.68992538 102.85238129 -52.69503632 102.00896179 -52.70030212 101.13998413 C-52.71410911 98.37449891 -52.71324803 95.60926542 -52.7109375 92.84375 C-52.71482941 90.90615752 -52.7191651 88.96856589 -52.72392273 87.03097534 C-52.73136591 82.97781606 -52.73110755 78.92474391 -52.72583008 74.87158203 C-52.7200391 69.69810869 -52.73696683 64.52499379 -52.76017475 59.35157967 C-52.77496396 55.3519383 -52.77577673 51.35238222 -52.77266502 47.35271835 C-52.77317566 45.44629075 -52.77836469 43.53985804 -52.78847694 41.63345718 C-52.85492917 27.35421569 -52.37705773 15.70722811 -42.41015625 4.5234375 C-30.68529181 -5.63953807 -13.56574543 -8.31094291 0 0 Z " fill="#000000" transform="translate(259.41015625,187.4765625)"/>
</svg>
