<?xml version="1.0" encoding="UTF-8"?>
<svg version="1.1" xmlns="http://www.w3.org/2000/svg" width="512" height="512">
<path d="M0 0 C0.78649421 -0.0060911 1.57298843 -0.01218221 2.3833158 -0.01845789 C4.99777981 -0.03500075 7.61175212 -0.03032464 10.22625732 -0.0255127 C12.10942588 -0.0328582 13.99258994 -0.04144583 15.87574768 -0.05117798 C20.97719669 -0.07335466 26.07848397 -0.07632649 31.17997456 -0.07443047 C35.44656797 -0.07431056 39.71312737 -0.08288312 43.97971129 -0.09120798 C54.05133706 -0.11042914 64.12287996 -0.11333094 74.19451904 -0.10656738 C84.56467767 -0.09993109 94.9344802 -0.12277749 105.30456662 -0.15988111 C114.22460765 -0.19063177 123.14453447 -0.20193221 132.06462741 -0.1980443 C137.3847392 -0.19598194 142.70457398 -0.20137634 148.02463531 -0.22593689 C153.03170235 -0.24828949 158.03819301 -0.24625557 163.04526329 -0.22600937 C164.8753244 -0.22261409 166.70542496 -0.227624 168.53543282 -0.24199295 C181.07110767 -0.33357244 192.47797673 0.52211518 202.16668701 9.58190918 C202.91692139 10.25608887 203.66715576 10.93026855 204.44012451 11.62487793 C212.04826811 20.58529954 216.75439365 32.04223865 221.95965576 42.49987793 C222.84366522 44.26909292 223.72797396 46.0381584 224.61256409 47.80708313 C226.46324712 51.5100075 228.31125375 55.21425057 230.15716553 58.91955566 C232.48845966 63.59898038 234.82491996 68.27580052 237.16317558 72.9517498 C253.44749782 105.52145175 253.44749782 105.52145175 260.8266449 121.1158905 C264.60529722 129.07413708 268.53275305 136.95600866 272.47918701 144.83190918 C272.98564223 145.84268493 272.98564223 145.84268493 273.50232887 146.87388039 C275.9292464 151.71549805 278.3600657 156.55515261 280.79168701 161.39440918 C283.5651294 166.9139361 286.33690647 172.43428993 289.10418701 177.95690918 C289.43865404 178.62428101 289.77312107 179.29165283 290.11772346 179.97924805 C294.9221216 189.57316066 299.62085831 199.21178598 304.22160339 208.90539551 C307.97006714 216.80109286 311.88497309 224.60067412 315.88739014 232.37097168 C319.90456952 240.28796266 322.15962218 247.13056927 322.22918701 256.01940918 C322.26205811 256.73741699 322.2949292 257.4554248 322.32879639 258.19519043 C322.47736118 273.67294047 311.43810041 289.41456727 304.66668701 302.76940918 C302.49414209 307.06724164 300.32529002 311.36692151 298.15887451 315.66784668 C297.61914001 316.73863464 297.07940552 317.80942261 296.52331543 318.91265869 C293.07420185 325.77747504 289.71613283 332.67942632 286.42449951 339.62097168 C282.23462082 348.45277748 277.92181741 357.21838865 273.54168701 365.95690918 C273.22674412 366.58534351 272.91180122 367.21377785 272.58731461 367.86125565 C269.99932958 373.0233062 267.40609019 378.18271309 264.81268311 383.34204102 C257.76089063 397.3725732 250.7338683 411.40680667 243.99411011 425.59086609 C238.63675349 436.85361751 233.15817024 448.05615227 227.62134933 459.23159981 C225.96621088 462.57283566 224.31771755 465.91701644 222.68377686 469.26867676 C221.06451258 472.58980871 219.4291815 475.90257458 217.78271866 479.21030235 C217.17046641 480.4468707 216.56362715 481.68613777 215.96291733 482.92835426 C210.22095193 494.78373257 203.09556818 504.82568009 190.79168701 510.39440918 C185.69535331 512.09908636 181.06315524 512.68478898 175.72813416 512.66183472 C174.94516679 512.66636583 174.16219942 512.67089694 173.35550576 512.67556536 C170.74717641 512.68816662 168.139057 512.68659177 165.53070068 512.68493652 C163.65428908 512.69092444 161.77787993 512.69773059 159.901474 512.70529175 C154.81458922 512.72293196 149.72777177 512.72764629 144.64085937 512.72892332 C141.45989456 512.73034657 138.27894679 512.73461947 135.09798622 512.73991776 C123.99253887 512.75841134 112.88713948 512.76658919 101.78167725 512.76501465 C91.4427973 512.76381337 81.10412614 512.78491488 70.76529902 512.81650198 C61.87759173 512.84268442 52.98995255 512.85338112 44.10220701 512.85210383 C38.79894592 512.85159479 33.49587047 512.85724621 28.19264793 512.87845993 C23.20291137 512.89787547 18.21353691 512.89794406 13.22378731 512.88342667 C11.39772384 512.88134161 9.5716375 512.88602133 7.7456131 512.89814758 C-4.52040519 512.97429585 -14.99294947 512.39034822 -24.38409424 503.58972168 C-30.80244578 495.86570977 -33.34939776 487.42065208 -33.30596924 477.56237793 C-33.30274658 476.27009277 -33.29952393 474.97780762 -33.29620361 473.6463623 C-33.28784964 472.29154392 -33.27938471 470.93672621 -33.27081299 469.58190918 C-33.26579299 468.20756183 -33.26123096 466.83321273 -33.25714111 465.4588623 C-33.24536967 462.10399994 -33.22892582 458.74922697 -33.20831299 455.39440918 C-33.8733122 455.39809635 -34.53831141 455.40178352 -35.2234621 455.40558243 C-51.44201059 455.49411369 -67.66048204 455.5602061 -83.87921619 455.60165787 C-91.72264626 455.62223905 -99.56591454 455.65027399 -107.40924072 455.69616699 C-114.24950245 455.7361716 -121.08964694 455.76187426 -127.93002242 455.77076316 C-131.54836819 455.77595502 -135.16637869 455.78806343 -138.78461647 455.81732941 C-142.83460671 455.84981859 -146.88402275 455.85035992 -150.93414307 455.84851074 C-152.11954178 455.86289185 -153.30494049 455.87727295 -154.52626038 455.89208984 C-164.6750002 455.84214742 -173.87891632 453.75769366 -181.41925049 446.58972168 C-187.49416438 439.13535136 -190.32202364 430.8930761 -190.34812069 421.39346218 C-190.35381193 420.18216906 -190.35950317 418.97087594 -190.36536688 417.72287697 C-190.36665939 416.38205947 -190.36784743 415.04124187 -190.36894226 413.70042419 C-190.37367525 412.2733541 -190.37882644 410.84628534 -190.3843599 409.41921812 C-190.39824822 405.49733916 -190.40584452 401.57546947 -190.41233289 397.6535722 C-190.41871015 394.28969933 -190.42877933 390.92584162 -190.43889355 387.56197821 C-190.47219381 376.48061204 -190.49373375 365.39923664 -190.51209339 354.31783685 C-190.51688998 351.43183728 -190.5218731 348.54583809 -190.52689862 345.65983891 C-190.5578695 327.73188435 -190.58454996 309.80392653 -190.60131741 291.87595272 C-190.60526679 287.72463411 -190.6092698 283.57331556 -190.61334229 279.42199707 C-190.61435065 278.39022898 -190.61535901 277.35846088 -190.61639792 276.29542709 C-190.63340182 259.58457411 -190.67450937 242.87386928 -190.72536527 226.16308861 C-190.77716666 209.00024449 -190.8062629 191.83747652 -190.81351429 174.67455488 C-190.81817313 165.04070612 -190.83288879 155.40710006 -190.87325859 145.77332878 C-190.90760074 137.56812698 -190.92148093 129.36321171 -190.90883445 121.15794217 C-190.90301751 116.97401282 -190.90680279 112.79068914 -190.93700409 108.60685158 C-190.9644726 104.77016015 -190.96378973 100.93450162 -190.94149364 97.09778614 C-190.93677491 95.06585354 -190.96145013 93.0339168 -190.98746294 91.00214523 C-190.88056608 80.54008496 -188.05634904 71.89892115 -180.52081299 64.39440918 C-171.9155714 57.70735111 -162.39965478 56.81323014 -151.84234619 56.94030762 C-149.90872978 56.93943146 -149.90872978 56.93943146 -147.93605042 56.9385376 C-144.43658382 56.93740024 -140.93767711 56.96074833 -137.43833947 56.98883343 C-133.76820304 57.01401247 -130.09805066 57.01620197 -126.42784119 57.02093506 C-119.4936387 57.03331677 -112.55969156 57.06607243 -105.62560099 57.10633302 C-97.724686 57.15120135 -89.82375815 57.17307544 -81.92274725 57.19311476 C-65.68445356 57.23481005 -49.44641597 57.30506737 -33.20831299 57.39440918 C-33.23187866 56.15521729 -33.23187866 56.15521729 -33.25592041 54.89099121 C-33.30754036 51.77854806 -33.3448992 48.6663256 -33.37310791 45.55358887 C-33.39532777 43.56288013 -33.43347893 41.5723695 -33.47198486 39.58190918 C-33.56023197 27.93329124 -31.89115343 18.44732727 -24.20831299 9.39440918 C-17.24648538 2.79292461 -9.54678782 -0.07069779 0 0 Z " fill="#D62E57" transform="translate(190.20831298828125,-0.3944091796875)"/>
<path d="M0 0 C1.12544843 -0.00807831 1.12544843 -0.00807831 2.27363318 -0.01631981 C4.77151527 -0.0305532 7.26886395 -0.02350725 9.76676941 -0.01637268 C11.56436588 -0.02207876 13.36195874 -0.02904395 15.1595459 -0.03717041 C20.03160065 -0.05509296 24.90347519 -0.05393483 29.77555299 -0.04822803 C33.84842778 -0.04513413 37.92126806 -0.05123104 41.99413794 -0.05726677 C51.60685428 -0.07130813 61.21948174 -0.06975461 70.8321991 -0.05836487 C80.7348415 -0.04689055 90.63721286 -0.06094871 100.53981954 -0.08776134 C109.05386629 -0.10994749 117.56782814 -0.11654896 126.08190173 -0.11068493 C131.16158868 -0.10732034 136.24110201 -0.10969701 141.32076454 -0.12693596 C146.10040465 -0.14244892 150.87964478 -0.13840137 155.65926933 -0.11963081 C157.4079239 -0.11595662 159.15660838 -0.11901912 160.90523529 -0.1295166 C173.27134009 -0.19805331 183.64917745 0.72098465 193.00218201 9.64424133 C198.0404585 15.82044803 201.2398272 23.16487677 204.70109558 30.2978363 C205.57939897 32.07061224 206.45944919 33.84252368 207.34114075 35.61361694 C209.65307978 40.26985422 211.94048125 44.93773373 214.2230072 49.60844421 C216.51288706 54.28267439 218.82702903 58.94485143 221.13859558 63.60838318 C228.633063 78.74885573 236.0589568 93.91994323 243.29969788 109.18359375 C249.5710778 122.35309273 256.19041569 135.35512178 262.74015808 148.38768005 C265.41985996 153.71970211 268.0979234 159.05253749 270.77140808 164.38768005 C271.09565388 165.03465096 271.41989967 165.68162186 271.7539711 166.34819794 C276.43871995 175.70345599 281.01681896 185.10514831 285.50379944 194.55705261 C289.5044917 202.97851504 293.66179513 211.31595234 297.86515808 219.63768005 C299.25552561 222.39171396 300.64311917 225.14712209 302.02922058 227.90330505 C302.33953217 228.51562988 302.64984375 229.12795471 302.96955872 229.75883484 C305.51664628 234.82346286 306.46280168 238.64697404 306.61515808 244.32518005 C306.66414246 245.55107849 306.71312683 246.77697693 306.76359558 248.0400238 C306.14982294 258.52925276 299.00258808 269.12445654 294.35734558 278.3134613 C293.69539676 279.63105572 293.03387719 280.94886586 292.37275696 282.26687622 C290.64113361 285.71693973 288.90506769 289.16474528 287.16758728 292.61186218 C284.07978506 298.73893711 280.99815062 304.86911012 277.91984558 311.0009613 C277.58468178 311.66827396 277.24951797 312.33558662 276.90419769 313.02312088 C272.28196974 322.23187291 267.76794941 331.48586602 263.35499573 340.79693604 C259.73284722 348.41573121 255.98910061 355.97140989 252.20890808 363.51268005 C251.90468052 364.11968939 251.60045296 364.72669872 251.28700638 365.35210228 C248.7941015 370.32400649 246.2959309 375.29326071 243.79759216 380.26243591 C235.91467701 395.94345424 228.14495395 411.66661598 220.60820007 427.51786804 C216.67525036 435.76821883 212.68692419 443.99080351 208.65080261 452.19114685 C207.61572817 454.30358734 206.58853836 456.41990722 205.56877136 458.53977966 C204.05922103 461.67468734 202.52366157 464.79563545 200.98234558 467.9150238 C200.53833405 468.85152267 200.09432251 469.78802155 199.63685608 470.75289917 C194.89755264 480.20513422 188.6575328 486.13915337 178.61264038 489.58914089 C171.66125903 491.23509475 164.54525678 490.94184994 157.44303894 490.90525818 C155.66455515 490.91068734 153.88607586 490.91781444 152.10760498 490.92649841 C147.30597167 490.94463894 142.50468449 490.93770311 137.70304561 490.92498207 C132.66288157 490.91480772 127.62274585 490.92425987 122.58258057 490.93052673 C114.12195043 490.9377896 105.66146029 490.92825053 97.20085144 490.90916443 C87.43671486 490.8873913 77.67291237 490.89445579 67.90878385 490.91647005 C59.50504933 490.93465449 51.10141504 490.93716772 42.69766718 490.92671537 C37.68735536 490.92049807 32.67720031 490.91959626 27.66689873 490.93286133 C22.95613111 490.94446385 18.24579202 490.93631407 13.53507042 490.9132843 C11.81221984 490.90802095 10.08933285 490.90947005 8.36649704 490.91833496 C-11.26268382 491.00998269 -11.26268382 491.00998269 -18.35464573 485.04668427 C-24.23146756 478.60608501 -25.2021082 472.03428824 -25.05281067 463.7353363 C-25.04644341 462.38513649 -25.04644341 462.38513649 -25.03994751 461.00765991 C-25.02326007 458.15485219 -24.98562689 455.30277142 -24.94734192 452.45018005 C-24.93228222 450.50683094 -24.91859607 448.56347066 -24.90632629 446.62010193 C-24.87338918 441.87568456 -24.82167632 437.13180523 -24.75984192 432.38768005 C-23.92200417 432.3852917 -23.08416641 432.38290335 -22.22093964 432.38044262 C-1.8223793 432.32127348 18.57606308 432.24571106 38.97449493 432.15196514 C48.83908011 432.10702423 58.70362932 432.0676056 68.56828308 432.04124451 C77.16760534 432.01825066 85.76681363 431.98483706 94.36604548 431.93897849 C98.91810954 431.91506503 103.47006086 431.89632394 108.02218628 431.89006615 C112.31007592 431.88400682 116.59767714 431.86397635 120.8854599 431.83340454 C122.45593511 431.82463791 124.02644804 431.82089888 125.59694672 431.82267189 C138.61382594 431.9700979 138.61382594 431.9700979 149.96672058 426.1962738 C152.71423674 422.80200556 154.65610861 419.33898322 156.61515808 415.45018005 C157.23982971 414.23636658 157.23982971 414.23636658 157.87712097 412.99803162 C159.34409958 410.13416894 160.79301767 407.26161682 162.24015808 404.38768005 C162.81653015 403.2486322 163.39290222 402.10958435 163.98674011 400.9360199 C165.89024723 397.17318242 167.78564787 393.40630987 169.67765808 389.63768005 C170.26144226 388.47502625 170.84522644 387.31237244 171.44670105 386.11448669 C174.67471017 379.65674505 177.82911472 373.16777324 180.92718506 366.64665222 C185.67619886 356.65249671 190.53247188 346.7171228 195.49015808 336.82518005 C195.80461946 336.19768608 196.11908085 335.57019211 196.44307137 334.92368317 C199.03154193 329.76068238 201.62527567 324.60032954 204.21916199 319.44004822 C206.47857256 314.94463335 208.73590814 310.44818513 210.99015808 305.95018005 C211.30218863 305.32772274 211.61421917 304.70526543 211.93570518 304.06394577 C216.62280372 294.70604358 221.20904127 285.30339009 225.68070984 275.84031677 C228.6431587 269.57768155 231.72222848 263.38635529 234.98977661 257.27674866 C238.09948294 251.28455846 238.28585934 244.96566673 237.24015808 238.38768005 C235.27704526 232.99172125 232.66798598 228.04765342 229.92765808 223.01268005 C228.90199557 221.0731118 227.88409515 219.12960569 226.86665344 217.18571472 C226.15269288 215.82264451 225.43585912 214.46107612 224.71644592 213.10087585 C221.72684637 207.41883793 218.94382194 201.65138206 216.19718933 195.84861755 C211.76220812 186.49074757 207.1933807 177.20711911 202.55265808 167.95018005 C202.21612024 167.27861248 201.87958241 166.60704491 201.53284645 165.9151268 C199.10481104 161.07120688 196.6729284 156.2292233 194.24015808 151.38768005 C191.46671572 145.86815319 188.69488134 140.34782797 185.92765808 134.82518005 C185.59285872 134.15708124 185.25805935 133.48898243 184.91311455 132.8006382 C179.69046768 122.37034469 174.60697754 111.87987754 169.60392761 101.3422699 C166.38963018 94.58041362 163.04576558 87.88658231 159.67765808 81.20018005 C159.0700366 79.9899938 158.46261558 78.77970687 157.85539246 77.56932068 C156.76383424 75.39476069 155.6714402 73.22061983 154.57780457 71.04710388 C153.752858 69.4069975 152.9440527 67.75851481 152.16227722 66.09739685 C150.88233279 63.72423008 149.75018572 63.37848044 147.24015808 62.38768005 C146.20040833 61.88226181 145.16065857 61.37684357 144.08940125 60.85610962 C137.44299513 58.39304969 130.26592894 58.94741719 123.27726746 58.95530701 C121.66033686 58.94628105 120.0434131 58.93595179 118.42649841 58.92442322 C114.05519247 58.89692492 109.68401662 58.88757848 105.31263542 58.88156915 C100.7375209 58.87216677 96.16250282 58.84596188 91.58744812 58.82156372 C82.93207133 58.77794625 74.27671331 58.74937011 65.62126017 58.72624034 C55.76389094 58.69916317 45.90661897 58.65525322 36.04931927 58.60995162 C15.77965124 58.51717342 -4.4900459 58.44546145 -24.75984192 58.38768005 C-24.85917907 52.55276887 -24.93153128 46.71835669 -24.97956848 40.88279724 C-24.99960689 38.90028807 -25.02684545 36.91783742 -25.06159973 34.93553162 C-25.11046146 32.07568364 -25.13288865 29.21662125 -25.15046692 26.35643005 C-25.17111206 25.47902161 -25.1917572 24.60161316 -25.21302795 23.69761658 C-25.21515889 17.77106092 -24.1145148 13.3319967 -20.75984192 8.38768005 C-14.61782703 2.24566516 -8.53405962 -0.07447124 0 0 Z " fill="#E0DFE9" transform="translate(193.7598419189453,10.612319946289063)"/>
<path d="M0 0 C10.66680373 10.17122214 16.83956422 21.04994296 17.19726562 35.98974609 C17.2602893 64.29262644 3.5117803 84.5756621 -15.234375 104.68359375 C-16.29592893 105.83691199 -17.35710043 106.99058232 -18.41796875 108.14453125 C-24.94686635 115.2185045 -31.6141616 122.11800227 -38.45776367 128.88769531 C-42.00483521 132.40995508 -45.41367434 135.99047705 -48.609375 139.83984375 C-50.12906913 141.56411209 -51.70738482 143.17795729 -53.3359375 144.79882812 C-53.87814941 145.33906616 -54.42036133 145.8793042 -54.97900391 146.43591309 C-55.39327637 146.84764771 -55.80754883 147.25938232 -56.234375 147.68359375 C-55.33314911 147.68945999 -54.43192322 147.69532623 -53.50338745 147.70137024 C-44.99915095 147.75933769 -36.49517595 147.83143775 -27.99119377 147.91930866 C-23.61947355 147.96398557 -19.24784594 148.00324752 -14.87597656 148.0300293 C-10.65476662 148.05608914 -6.43391357 148.09651028 -2.21292496 148.14678001 C-0.60468112 148.16343065 1.00362442 148.17495616 2.61194229 148.18120766 C4.86943999 148.19086865 7.12602835 148.21895004 9.38330078 148.2512207 C10.66681427 148.26232376 11.95032776 148.27342682 13.2727356 148.28486633 C17.90279115 148.81340585 21.30821172 150.22618047 24.6171875 153.53515625 C26.82103222 157.65799501 26.2455542 162.1472767 25.765625 166.68359375 C24.44414421 170.5784845 23.54668895 172.13113389 20.203125 174.49609375 C19.39875 174.88796875 18.594375 175.27984375 17.765625 175.68359375 C17.105625 176.01359375 16.445625 176.34359375 15.765625 176.68359375 C14.36472149 176.78365321 12.95922973 176.82296449 11.55477905 176.83076477 C10.67169067 176.83792007 9.78860229 176.84507538 8.87875366 176.85244751 C7.90733429 176.85513641 6.93591492 176.85782532 5.93505859 176.8605957 C4.9137384 176.8671669 3.89241821 176.8737381 2.84014893 176.88050842 C-0.55188058 176.90027553 -3.94386569 176.91191314 -7.3359375 176.921875 C-9.07238588 176.92798829 -9.07238588 176.92798829 -10.84391403 176.93422508 C-16.97390313 176.95510281 -23.10386973 176.96939578 -29.23388672 176.97875977 C-35.56238251 176.98981293 -41.8905256 177.02419577 -48.21889687 177.06393147 C-53.08658495 177.09009846 -57.95418914 177.09845183 -62.82194138 177.10204124 C-65.15428416 177.10690887 -67.48662316 177.11852781 -69.81889725 177.13707924 C-73.08869427 177.16146598 -76.35758099 177.16050578 -79.62744141 177.15356445 C-81.06635239 177.17277954 -81.06635239 177.17277954 -82.53433228 177.19238281 C-88.56457525 177.14585774 -93.22136311 176.17570507 -98.234375 172.68359375 C-101.78988855 168.33481822 -101.93626936 164.31049997 -101.75 158.85546875 C-100.04019236 148.33756112 -90.84878034 140.97738535 -83.5390625 133.9140625 C-80.43768552 130.91410002 -77.59260244 127.76491761 -74.8046875 124.47265625 C-72.40490413 121.73857469 -69.79027822 119.23096103 -67.19921875 116.6796875 C-65.31206756 114.76252198 -63.54752125 112.78784053 -61.796875 110.74609375 C-59.22772229 107.75557659 -56.54120244 104.95242691 -53.734375 102.18359375 C-50.38261955 98.87133711 -47.22703162 95.47619076 -44.171875 91.890625 C-42.26692349 89.72067016 -40.28139848 87.64326403 -38.28295898 85.55981445 C-25.85171921 72.45062334 -17.54374309 58.5798781 -17.69067383 40.06469727 C-17.93459062 34.1697263 -18.9399879 29.95525923 -23.234375 25.68359375 C-24.595625 24.29140625 -24.595625 24.29140625 -25.984375 22.87109375 C-33.21686974 18.00306845 -40.48260688 17.17685868 -49.046875 17.30859375 C-50.02100342 17.32092041 -50.99513184 17.33324707 -51.9987793 17.34594727 C-64.05497788 17.62688599 -72.8018509 20.481986 -83.09887695 26.63452148 C-88.09258826 29.5127054 -91.45980277 30.32453464 -97.234375 29.68359375 C-101.11411692 27.85607053 -103.64657816 24.62421682 -105.234375 20.68359375 C-105.91234035 15.90630301 -105.75569425 11.86222858 -103.796875 7.43359375 C-92.64187695 -4.53762367 -72.32917448 -11.11988317 -56.21484375 -12.2265625 C-36.84745212 -12.8103764 -15.78921483 -13.21488632 0 0 Z " fill="#B72B4F" transform="translate(161.234375,170.31640625)"/>
<path d="M0 0 C3.06049526 2.67793335 4.83849882 4.48927147 5.36914349 8.63164902 C5.36637811 9.75623646 5.36361273 10.8808239 5.36076355 12.03948975 C5.36488754 13.33235397 5.36901154 14.6252182 5.3732605 15.95726013 C5.36264368 17.38784999 5.35173926 18.81843774 5.34057617 20.24902344 C5.33972986 21.75698327 5.34020512 23.26494433 5.34190369 24.77290344 C5.34276491 28.86561948 5.32511861 32.9580721 5.30418181 37.05072689 C5.28543624 41.32817692 5.28366625 45.6056329 5.28010559 49.88311768 C5.27077889 57.98267447 5.24615666 66.08210988 5.21605712 74.18161321 C5.18253256 83.40279514 5.166032 92.62398285 5.15097082 101.84521055 C5.11960764 120.81354254 5.06683499 139.78176151 5 158.75 C6.40693115 158.72643433 6.40693115 158.72643433 7.84228516 158.70239258 C11.34234205 158.65108035 14.8419957 158.61356128 18.34228516 158.58520508 C19.85341727 158.57017457 21.36450618 158.54974436 22.87548828 158.52368164 C25.05512187 158.48704311 27.23417575 158.47021662 29.4140625 158.45703125 C31.37786865 158.43346558 31.37786865 158.43346558 33.38134766 158.40942383 C38.09473233 158.85303276 41.4615814 160.24079188 44.8515625 163.56640625 C46.34278684 166.40176138 46.39916244 168.49403127 46.375 171.6875 C46.38660156 173.21697266 46.38660156 173.21697266 46.3984375 174.77734375 C45.94613345 178.15188671 45.00341 180.01981597 43 182.75 C37.47219536 186.52508609 33.4629262 186.90294431 26.87207031 186.91113281 C25.9255661 186.91609772 24.97906189 186.92106262 24.00387573 186.92617798 C20.86195151 186.9408232 17.7200778 186.94760615 14.578125 186.953125 C12.39817299 186.95887529 10.21822101 186.96463303 8.03826904 186.97039795 C3.46170821 186.98091519 -1.11483502 186.98675287 -5.69140625 186.99023438 C-11.55370474 186.99571525 -17.41577051 187.01973166 -23.27799606 187.04820633 C-27.78359656 187.066839 -32.28914114 187.07203869 -36.79477692 187.07357025 C-38.95571411 187.07659677 -41.11665032 187.08462524 -43.27754974 187.09775543 C-46.30337654 187.11482592 -49.32863666 187.11293287 -52.35449219 187.10644531 C-53.24615082 187.1156601 -54.13780945 187.12487488 -55.05648804 187.1343689 C-60.12451405 187.10036108 -63.61291767 186.57031989 -68 183.75 C-72.09343776 179.32466189 -73.36336397 175.89035745 -73.28515625 169.8125 C-72.81467749 166.40958511 -71.16566828 164.33677044 -69 161.75 C-58.3033754 153.72753155 -42.37078075 158.75 -29 158.75 C-29 119.48 -29 80.21 -29 39.75 C-40.07830608 46.23442018 -40.07830608 46.23442018 -51.0625 52.875 C-54.37589619 54.64639258 -57.22064066 55.61465389 -61.0078125 55.37890625 C-65.13515069 54.07596223 -68.22677189 50.97966964 -71 47.75 C-71.8951052 45.0646844 -72.22112649 43.22198737 -72.3125 40.4375 C-72.34988281 39.69886719 -72.38726562 38.96023437 -72.42578125 38.19921875 C-71.62204132 33.57587071 -69.52458896 30.87498454 -65.8371582 28.15405273 C-63.09586169 26.40516369 -60.3141057 24.7541343 -57.5 23.125 C-56.48131836 22.52179932 -55.46263672 21.91859863 -54.41308594 21.29711914 C-52.30880065 20.05122947 -50.20167768 18.81012062 -48.09179688 17.57373047 C-45.18431267 15.85871886 -42.2994361 14.11230562 -39.421875 12.34765625 C-11.47116651 -4.77965271 -11.47116651 -4.77965271 0 0 Z " fill="#B72B4F" transform="translate(298,160.25)"/>
<path d="M0 0 C0.69064545 -0.00261841 1.38129089 -0.00523682 2.09286499 -0.00793457 C12.27971917 -0.01207719 21.29255554 0.54982819 30.875 4.3125 C31.7825 4.61285156 32.69 4.91320312 33.625 5.22265625 C40.13865931 7.51633811 45.409595 11.14928715 50.875 15.3125 C51.926875 16.075625 52.97875 16.83875 54.0625 17.625 C65.46787707 28.52347142 71.1043335 43.58391918 72.125 59.1171875 C72.59802303 88.0307201 58.82304781 112.15542515 39.37890625 132.66015625 C37.38687254 134.77028244 35.49108609 136.90574161 33.625 139.125 C29.34772525 144.08706011 24.61132797 148.62291344 19.94042969 153.21020508 C19.30266602 153.83950928 18.66490234 154.46881348 18.0078125 155.1171875 C17.42918457 155.68421387 16.85055664 156.25124023 16.25439453 156.83544922 C14.77127065 158.28360166 14.77127065 158.28360166 13.875 160.3125 C14.44161346 160.30361755 15.00822693 160.29473511 15.5920105 160.2855835 C21.52998691 160.19656549 27.46777144 160.13654171 33.40625 160.09277344 C35.61759145 160.07275253 37.82888058 160.04552741 40.04003906 160.01074219 C43.23255378 159.96180373 46.42436396 159.93943533 49.6171875 159.921875 C51.08186966 159.89090729 51.08186966 159.89090729 52.57614136 159.85931396 C60.23879353 159.8568517 67.15435864 161.37833567 73.27734375 166.20703125 C78.95036779 173.29470251 81.50243808 179.04698142 81.21484375 188.25 C80.32580959 196.26152624 77.35755728 201.63098569 71.265625 206.83984375 C64.26777602 211.1506102 58.03913726 211.75013837 50.01196289 211.70068359 C48.42255638 211.70856903 48.42255638 211.70856903 46.80104065 211.71661377 C43.31642692 211.72976147 39.83227422 211.72109328 36.34765625 211.7109375 C33.91442274 211.71295988 31.48118982 211.71587268 29.04795837 211.71963501 C23.95484634 211.72405142 18.86189244 211.71764965 13.76879883 211.70361328 C7.25451837 211.68653118 0.74060902 211.69636109 -5.7736578 211.71433067 C-10.79666415 211.72519459 -15.81958319 211.72171 -20.84259224 211.7139473 C-23.24386197 211.71195204 -25.64513973 211.71438077 -28.04640007 211.72138596 C-31.40866834 211.72904216 -34.77034398 211.71733688 -38.13256836 211.70068359 C-39.11622375 211.70675629 -40.09987915 211.71282898 -41.11334229 211.71908569 C-49.67726283 211.64088105 -57.17950569 210.08119312 -63.62109375 204.1328125 C-66.28937932 200.90314737 -67.6775008 197.20362688 -69.125 193.3125 C-69.455 192.6525 -69.785 191.9925 -70.125 191.3125 C-70.88224299 183.35524169 -70.15312966 177.21966904 -66.125 170.3125 C-65.72410156 169.59707031 -65.32320312 168.88164062 -64.91015625 168.14453125 C-61.33546824 162.29033205 -56.6819851 157.67995296 -51.79296875 152.94140625 C-49.57729669 150.75817449 -47.51632072 148.55162429 -45.5 146.1875 C-42.29653512 142.43224213 -38.82877475 138.99998 -35.31640625 135.53515625 C-32.70398932 132.8854856 -30.29197379 130.10077197 -27.87109375 127.27734375 C-25.40018611 124.49688168 -22.7433306 121.92131782 -20.09375 119.3125 C-17.56409052 116.7426872 -15.23643585 114.02584182 -12.890625 111.2890625 C-11.13146332 109.31973548 -9.28389766 107.51104045 -7.375 105.6875 C3.17682812 95.21794735 13.85091775 82.42028356 14.1875 66.9375 C14.24357422 65.25527344 14.24357422 65.25527344 14.30078125 63.5390625 C13.78173848 59.60576592 12.69029973 58.06425998 9.875 55.3125 C1.78736788 50.79883103 -9.39707223 51.152321 -18.19140625 52.93359375 C-26.93630263 55.61060285 -35.0420596 60.09741056 -43.125 64.3125 C-47.37033904 66.43516952 -52.94515684 66.00523082 -57.38671875 64.59375 C-64.93850476 61.02643013 -69.87334102 55.15356681 -73.375 47.625 C-75.19590867 39.58265335 -74.83236781 32.83621538 -70.72265625 25.58984375 C-60.55766282 11.10037879 -40.62412723 4.91692472 -24.125 1.3125 C-16.15849732 -0.0182635 -8.05585938 0.02922478 0 0 Z M-60.125 30.3125 C-62.97555441 34.61424574 -62.77016553 39.33213683 -62.125 44.3125 C-60.163218 48.16600036 -58.04187112 51.35406444 -54.125 53.3125 C-47.34927743 53.94772399 -43.62232464 52.43406131 -37.875 49 C-23.31531284 40.91581885 -7.99363961 39.10287398 8.4921875 41.93359375 C15.0045181 43.96305966 19.10607887 47.68658857 22.875 53.3125 C23.25785156 53.8796875 23.64070313 54.446875 24.03515625 55.03125 C27.22649197 63.69980843 25.49298398 76.23822104 22.1875 84.59375 C16.11130469 97.18015456 6.67299784 107.82187025 -3.30078125 117.4921875 C-5.15352942 119.34096833 -6.85976636 121.26282802 -8.5625 123.25 C-11.83630653 127.06074063 -15.35863971 130.56328165 -18.93359375 134.08984375 C-21.54601068 136.7395144 -23.95802621 139.52422803 -26.37890625 142.34765625 C-28.84981389 145.12811832 -31.5066694 147.70368218 -34.15625 150.3125 C-36.68159372 152.87792855 -39.00629943 155.58833911 -41.34375 158.32421875 C-43.17974732 160.37361049 -45.12492766 162.23647016 -47.125 164.125 C-53.31897499 170.3310726 -58.48686793 176.56344563 -58.8125 185.625 C-58.48166303 190.53665659 -57.70531705 193.73218295 -54.125 197.3125 C-48.25819299 200.49587957 -43.29163857 200.74256063 -36.69506836 200.70068359 C-35.66980545 200.70594055 -34.64454254 200.71119751 -33.58821106 200.71661377 C-30.21359839 200.72977181 -26.83946087 200.72109094 -23.46484375 200.7109375 C-21.11267507 200.71295928 -18.760507 200.71587158 -16.40834045 200.71963501 C-11.48497535 200.72405256 -6.5617738 200.71764487 -1.63842773 200.70361328 C4.66879559 200.68651254 10.97563617 200.69637212 17.2828455 200.71433067 C22.13759745 200.72517572 26.99225878 200.72171897 31.84701347 200.7139473 C34.17261233 200.71194778 36.49821945 200.71439581 38.82380867 200.72138596 C42.07424826 200.72901309 45.32406931 200.71737827 48.57446289 200.70068359 C50.01237686 200.70979263 50.01237686 200.70979263 51.4793396 200.71908569 C56.69930745 200.66947156 60.36212455 200.23776437 64.875 197.3125 C69.09348704 192.65761775 69.22010875 188.02310292 69.15625 181.98046875 C68.77039602 178.320215 67.68033861 176.66291883 64.875 174.3125 C60.73617261 172.23165356 57.20686527 172.04132762 52.60620117 171.99365234 C51.53709 171.97858391 51.53709 171.97858391 50.44638062 171.96321106 C48.10358444 171.93245759 45.76090214 171.91536604 43.41796875 171.8984375 C41.78842698 171.87971952 40.15889483 171.86014563 38.52937317 171.8397522 C34.25019006 171.78849149 29.97097555 171.74883343 25.69165039 171.71160889 C21.32104767 171.67153116 16.9505749 171.62045603 12.58007812 171.5703125 C4.01180762 171.47362501 -4.55652735 171.38919738 -13.125 171.3125 C-12.30189331 170.49519409 -11.47878662 169.67788818 -10.6307373 168.83581543 C-9.53956497 167.74933505 -8.44846358 166.66278343 -7.35742188 165.57617188 C-6.54564484 164.77067902 -6.54564484 164.77067902 -5.71746826 163.94891357 C-2.24884712 160.49084939 1.02716615 156.92964972 4.20703125 153.203125 C8.08820036 148.80386072 12.3751774 144.7765476 16.55859375 140.66796875 C20.66679354 136.60434255 24.58446681 132.45430959 28.3515625 128.07226562 C30.21196219 125.92326547 32.1699456 123.8753133 34.125 121.8125 C43.27310193 111.63230451 50.98002987 100.12441539 55.875 87.3125 C56.28621094 86.26320313 56.69742188 85.21390625 57.12109375 84.1328125 C61.86677398 70.17492948 62.27816446 52.77797821 55.875 39.3125 C53.81673089 35.71052906 51.52334506 32.50178363 48.875 29.3125 C48.08996094 28.34183594 48.08996094 28.34183594 47.2890625 27.3515625 C42.45865644 21.95564549 36.42297126 19.1953652 29.875 16.3125 C29.17246094 15.9928125 28.46992188 15.673125 27.74609375 15.34375 C1.06128049 4.20186555 -38.61417032 11.24857285 -60.125 30.3125 Z " fill="#FDFAFB" transform="translate(118.125,146.6875)"/>
<path d="M0 0 C4.93719661 3.97122336 8.00036281 9.00108844 10 15 C10.09106103 16.90280038 10.12194783 18.80869152 10.12025452 20.71366882 C10.12231651 22.49944839 10.12231651 22.49944839 10.12442017 24.32130432 C10.11902725 26.28280678 10.11902725 26.28280678 10.11352539 28.28393555 C10.11324335 29.67352293 10.11340159 31.06311046 10.1139679 32.45269775 C10.1142552 36.22720613 10.10836926 40.00168284 10.10139394 43.77618384 C10.09514928 47.71999435 10.09455572 51.66380555 10.09336853 55.60762024 C10.0902585 63.07675485 10.08204953 70.54587485 10.07201904 78.01500303 C10.06084772 86.51793178 10.05534488 95.02086122 10.05032361 103.52379549 C10.03986665 121.01587211 10.02227355 138.50793451 10 156 C10.60538605 155.99214478 11.21077209 155.98428955 11.83450317 155.97619629 C14.60058214 155.94484737 17.36662359 155.92544853 20.1328125 155.90625 C21.08518799 155.89368164 22.03756348 155.88111328 23.01879883 155.86816406 C30.87740017 155.8272516 36.97248648 156.43630762 43.03515625 161.80078125 C48.39830885 167.47228759 51.11620836 172.95089524 51.4375 180.8125 C51.21978841 187.77927101 49.85259091 193.72044863 45.19921875 199.0703125 C37.95518419 205.79390186 31.44870991 207.45022064 21.81713867 207.41992188 C20.31814278 207.43262619 20.31814278 207.43262619 18.78886414 207.44558716 C15.49843475 207.46890899 12.2084744 207.46998033 8.91796875 207.46875 C6.62022211 207.47585515 4.32247725 207.48355467 2.0247345 207.49182129 C-2.78767835 207.50525559 -7.59992718 207.50683983 -12.41235352 207.50097656 C-18.56242451 207.49508579 -24.71170465 207.52565221 -30.86162281 207.56609344 C-35.60674743 207.59201555 -40.35168286 207.59484364 -45.09686852 207.59120178 C-47.3633593 207.59288921 -49.62985918 207.6024952 -51.89628029 207.62034607 C-55.07436774 207.64262118 -58.25087042 207.63278907 -61.42895508 207.61523438 C-62.35448181 207.62849762 -63.28000854 207.64176086 -64.23358154 207.65542603 C-71.73830805 207.55969512 -78.28185385 205.37454093 -83.91720295 200.25997162 C-90.4288675 193.25713837 -91.58841546 186.76106764 -91.33984375 177.375 C-90.56725083 169.70235306 -87.03887384 165.5385838 -81.390625 160.54296875 C-70.055176 153.22678843 -61.52567619 156 -47 156 C-47 127.29 -47 98.58 -47 69 C-50.3 70.65 -53.6 72.3 -57 74 C-63.03463604 76.01154535 -69.85810397 76.12149422 -75.8671875 73.9765625 C-83.15020862 69.96979404 -86.91698605 64.45007526 -90.375 57.0625 C-91.9491928 49.3489553 -91.35186862 43.60606555 -87.875 36.51953125 C-81.74366748 28.28055317 -72.68433961 23.60803118 -63.9375 18.625 C-61.9750689 17.49577099 -60.01412245 16.36399407 -58.05325317 15.23205566 C-56.77399016 14.49391284 -55.49411103 13.75683669 -54.21359253 13.02087402 C-50.18635891 10.70260227 -46.21388809 8.31361702 -42.27270508 5.8527832 C-28.60307645 -2.65096456 -15.08280201 -8.3611185 0 0 Z M-37 16 C-37.67305176 16.37979004 -38.34610352 16.75958008 -39.03955078 17.15087891 C-43.27234774 19.55228504 -47.45183597 22.0337452 -51.61230469 24.55810547 C-54.26586516 26.16055211 -56.93392459 27.73751678 -59.6015625 29.31640625 C-61.50587194 30.45983303 -63.40952675 31.60435082 -65.3125 32.75 C-66.21444092 33.28069092 -67.11638184 33.81138184 -68.0456543 34.3581543 C-72.98884506 37.36862656 -76.41995457 39.74776466 -79 45 C-79.86232839 49.13510227 -79.46839235 52.85504092 -77.875 56.75 C-74.38546595 60.93744086 -71.80693214 63.66311435 -66.3125 64.6875 C-60.43549617 64.26612991 -55.9635491 60.97812946 -51 58 C-46.05 55.03 -41.1 52.06 -36 49 C-36 88.27 -36 127.54 -36 168 C-47.88 168 -59.76 168 -72 168 C-77.39600903 171.89888953 -77.39600903 171.89888953 -80 177 C-80.45334816 182.62151717 -80.18933562 186.16100802 -77 191 C-73.15237663 194.55905162 -70.18738528 196.11860278 -64.95915222 196.14044189 C-64.13911209 196.14615204 -63.31907196 196.15186218 -62.47418213 196.15774536 C-61.12994171 196.15942215 -61.12994171 196.15942215 -59.75854492 196.16113281 C-58.81189468 196.16609772 -57.86524445 196.17106262 -56.88990784 196.17617798 C-53.75342078 196.19080111 -50.61698431 196.19760196 -47.48046875 196.203125 C-45.30194599 196.20887644 -43.12342324 196.21463417 -40.94490051 196.22039795 C-36.37431604 196.23090844 -31.80374916 196.23675076 -27.2331543 196.24023438 C-21.37873158 196.24571842 -15.52454152 196.26974449 -9.67019176 196.29820633 C-5.16888247 196.31683734 -0.66762916 196.32203857 3.83371544 196.32357025 C5.99186156 196.32659638 8.15000671 196.33462354 10.30811501 196.34775543 C13.3290434 196.3648249 16.34940417 196.3629333 19.37036133 196.35644531 C20.70549271 196.37026749 20.70549271 196.37026749 22.06759644 196.3843689 C27.95870866 196.34476899 32.14073162 195.36629107 36.8125 191.5 C40.33663751 187.04845789 39.51913806 180.33558558 39 175 C36.71891538 170.77576922 34.48427263 169.42147371 30 168 C26.41777498 167.72537066 26.41777498 167.72537066 22.51171875 167.8046875 C21.80852005 167.8075174 21.10532135 167.81034729 20.3808136 167.81326294 C18.14953108 167.82439849 15.91865983 167.84949003 13.6875 167.875 C12.16862562 167.8850384 10.6497449 167.89416274 9.13085938 167.90234375 C5.42044079 167.92431587 1.71026058 167.95879953 -2 168 C-1.99539104 167.21700972 -1.99078207 166.43401943 -1.98603344 165.62730217 C-1.87559939 146.57316558 -1.79286541 127.51909288 -1.74093914 108.46470451 C-1.71516032 99.25011577 -1.68001603 90.03574067 -1.62280273 80.82128906 C-1.57295781 72.78971562 -1.54070664 64.75829692 -1.52955753 56.72657311 C-1.52304056 52.47397272 -1.50773096 48.22181501 -1.47134972 43.96935654 C-1.43737277 39.96542871 -1.42695028 35.96212524 -1.43446159 31.95806694 C-1.43308778 30.48990039 -1.42316474 29.02171263 -1.40397263 27.55367088 C-0.97342511 18.83869048 -0.97342511 18.83869048 -4.34797668 11.14212036 C-8.54028558 7.75586422 -12.41709068 7.4106489 -17.66015625 7.47265625 C-24.7199086 8.58735399 -30.86547142 12.49963486 -37 16 Z " fill="#FDFAFB" transform="translate(305,151)"/>
</svg>
