<?xml version="1.0" encoding="UTF-8"?>
<svg version="1.1" xmlns="http://www.w3.org/2000/svg" width="512" height="512">
<path d="M0 0 C0.78649421 -0.0060911 1.57298843 -0.01218221 2.3833158 -0.01845789 C4.99777981 -0.03500075 7.61175212 -0.03032464 10.22625732 -0.0255127 C12.10942588 -0.0328582 13.99258994 -0.04144583 15.87574768 -0.05117798 C20.97719669 -0.07335466 26.07848397 -0.07632649 31.17997456 -0.07443047 C35.44656797 -0.07431056 39.71312737 -0.08288312 43.97971129 -0.09120798 C54.05133706 -0.11042914 64.12287996 -0.11333094 74.19451904 -0.10656738 C84.56467767 -0.09993109 94.9344802 -0.12277749 105.30456662 -0.15988111 C114.22460765 -0.19063177 123.14453447 -0.20193221 132.06462741 -0.1980443 C137.3847392 -0.19598194 142.70457398 -0.20137634 148.02463531 -0.22593689 C153.03170235 -0.24828949 158.03819301 -0.24625557 163.04526329 -0.22600937 C164.8753244 -0.22261409 166.70542496 -0.227624 168.53543282 -0.24199295 C181.07110767 -0.33357244 192.47797673 0.52211518 202.16668701 9.58190918 C202.91692139 10.25608887 203.66715576 10.93026855 204.44012451 11.62487793 C212.04826811 20.58529954 216.75439365 32.04223865 221.95965576 42.49987793 C222.84366522 44.26909292 223.72797396 46.0381584 224.61256409 47.80708313 C226.46324712 51.5100075 228.31125375 55.21425057 230.15716553 58.91955566 C232.48845966 63.59898038 234.82491996 68.27580052 237.16317558 72.9517498 C253.44749782 105.52145175 253.44749782 105.52145175 260.8266449 121.1158905 C264.60529722 129.07413708 268.53275305 136.95600866 272.47918701 144.83190918 C272.98564223 145.84268493 272.98564223 145.84268493 273.50232887 146.87388039 C275.9292464 151.71549805 278.3600657 156.55515261 280.79168701 161.39440918 C283.5651294 166.9139361 286.33690647 172.43428993 289.10418701 177.95690918 C289.43865404 178.62428101 289.77312107 179.29165283 290.11772346 179.97924805 C294.9221216 189.57316066 299.62085831 199.21178598 304.22160339 208.90539551 C307.97006714 216.80109286 311.88497309 224.60067412 315.88739014 232.37097168 C319.90456952 240.28796266 322.15962218 247.13056927 322.22918701 256.01940918 C322.26205811 256.73741699 322.2949292 257.4554248 322.32879639 258.19519043 C322.47736118 273.67294047 311.43810041 289.41456727 304.66668701 302.76940918 C302.49414209 307.06724164 300.32529002 311.36692151 298.15887451 315.66784668 C297.61914001 316.73863464 297.07940552 317.80942261 296.52331543 318.91265869 C293.07420185 325.77747504 289.71613283 332.67942632 286.42449951 339.62097168 C282.23462082 348.45277748 277.92181741 357.21838865 273.54168701 365.95690918 C273.22674412 366.58534351 272.91180122 367.21377785 272.58731461 367.86125565 C269.99932958 373.0233062 267.40609019 378.18271309 264.81268311 383.34204102 C257.76089063 397.3725732 250.7338683 411.40680667 243.99411011 425.59086609 C238.63675349 436.85361751 233.15817024 448.05615227 227.62134933 459.23159981 C225.96621088 462.57283566 224.31771755 465.91701644 222.68377686 469.26867676 C221.06451258 472.58980871 219.4291815 475.90257458 217.78271866 479.21030235 C217.17046641 480.4468707 216.56362715 481.68613777 215.96291733 482.92835426 C210.22095193 494.78373257 203.09556818 504.82568009 190.79168701 510.39440918 C185.69535331 512.09908636 181.06315524 512.68478898 175.72813416 512.66183472 C174.94516679 512.66636583 174.16219942 512.67089694 173.35550576 512.67556536 C170.74717641 512.68816662 168.139057 512.68659177 165.53070068 512.68493652 C163.65428908 512.69092444 161.77787993 512.69773059 159.901474 512.70529175 C154.81458922 512.72293196 149.72777177 512.72764629 144.64085937 512.72892332 C141.45989456 512.73034657 138.27894679 512.73461947 135.09798622 512.73991776 C123.99253887 512.75841134 112.88713948 512.76658919 101.78167725 512.76501465 C91.4427973 512.76381337 81.10412614 512.78491488 70.76529902 512.81650198 C61.87759173 512.84268442 52.98995255 512.85338112 44.10220701 512.85210383 C38.79894592 512.85159479 33.49587047 512.85724621 28.19264793 512.87845993 C23.20291137 512.89787547 18.21353691 512.89794406 13.22378731 512.88342667 C11.39772384 512.88134161 9.5716375 512.88602133 7.7456131 512.89814758 C-4.52040519 512.97429585 -14.99294947 512.39034822 -24.38409424 503.58972168 C-30.80244578 495.86570977 -33.34939776 487.42065208 -33.30596924 477.56237793 C-33.30274658 476.27009277 -33.29952393 474.97780762 -33.29620361 473.6463623 C-33.28784964 472.29154392 -33.27938471 470.93672621 -33.27081299 469.58190918 C-33.26579299 468.20756183 -33.26123096 466.83321273 -33.25714111 465.4588623 C-33.24536967 462.10399994 -33.22892582 458.74922697 -33.20831299 455.39440918 C-33.8733122 455.39809635 -34.53831141 455.40178352 -35.2234621 455.40558243 C-51.44201059 455.49411369 -67.66048204 455.5602061 -83.87921619 455.60165787 C-91.72264626 455.62223905 -99.56591454 455.65027399 -107.40924072 455.69616699 C-114.24950245 455.7361716 -121.08964694 455.76187426 -127.93002242 455.77076316 C-131.54836819 455.77595502 -135.16637869 455.78806343 -138.78461647 455.81732941 C-142.83460671 455.84981859 -146.88402275 455.85035992 -150.93414307 455.84851074 C-152.11954178 455.86289185 -153.30494049 455.87727295 -154.52626038 455.89208984 C-164.6750002 455.84214742 -173.87891632 453.75769366 -181.41925049 446.58972168 C-187.49416438 439.13535136 -190.32202364 430.8930761 -190.34812069 421.39346218 C-190.35381193 420.18216906 -190.35950317 418.97087594 -190.36536688 417.72287697 C-190.36665939 416.38205947 -190.36784743 415.04124187 -190.36894226 413.70042419 C-190.37367525 412.2733541 -190.37882644 410.84628534 -190.3843599 409.41921812 C-190.39824822 405.49733916 -190.40584452 401.57546947 -190.41233289 397.6535722 C-190.41871015 394.28969933 -190.42877933 390.92584162 -190.43889355 387.56197821 C-190.47219381 376.48061204 -190.49373375 365.39923664 -190.51209339 354.31783685 C-190.51688998 351.43183728 -190.5218731 348.54583809 -190.52689862 345.65983891 C-190.5578695 327.73188435 -190.58454996 309.80392653 -190.60131741 291.87595272 C-190.60526679 287.72463411 -190.6092698 283.57331556 -190.61334229 279.42199707 C-190.61435065 278.39022898 -190.61535901 277.35846088 -190.61639792 276.29542709 C-190.63340182 259.58457411 -190.67450937 242.87386928 -190.72536527 226.16308861 C-190.77716666 209.00024449 -190.8062629 191.83747652 -190.81351429 174.67455488 C-190.81817313 165.04070612 -190.83288879 155.40710006 -190.87325859 145.77332878 C-190.90760074 137.56812698 -190.92148093 129.36321171 -190.90883445 121.15794217 C-190.90301751 116.97401282 -190.90680279 112.79068914 -190.93700409 108.60685158 C-190.9644726 104.77016015 -190.96378973 100.93450162 -190.94149364 97.09778614 C-190.93677491 95.06585354 -190.96145013 93.0339168 -190.98746294 91.00214523 C-190.88056608 80.54008496 -188.05634904 71.89892115 -180.52081299 64.39440918 C-171.9155714 57.70735111 -162.39965478 56.81323014 -151.84234619 56.94030762 C-149.90872978 56.93943146 -149.90872978 56.93943146 -147.93605042 56.9385376 C-144.43658382 56.93740024 -140.93767711 56.96074833 -137.43833947 56.98883343 C-133.76820304 57.01401247 -130.09805066 57.01620197 -126.42784119 57.02093506 C-119.4936387 57.03331677 -112.55969156 57.06607243 -105.62560099 57.10633302 C-97.724686 57.15120135 -89.82375815 57.17307544 -81.92274725 57.19311476 C-65.68445356 57.23481005 -49.44641597 57.30506737 -33.20831299 57.39440918 C-33.23187866 56.15521729 -33.23187866 56.15521729 -33.25592041 54.89099121 C-33.30754036 51.77854806 -33.3448992 48.6663256 -33.37310791 45.55358887 C-33.39532777 43.56288013 -33.43347893 41.5723695 -33.47198486 39.58190918 C-33.56023197 27.93329124 -31.89115343 18.44732727 -24.20831299 9.39440918 C-17.24648538 2.79292461 -9.54678782 -0.07069779 0 0 Z " fill="#D62E57" transform="translate(190.20831298828125,-0.3944091796875)"/>
<path d="M0 0 C1.12544843 -0.00807831 1.12544843 -0.00807831 2.27363318 -0.01631981 C4.77151527 -0.0305532 7.26886395 -0.02350725 9.76676941 -0.01637268 C11.56436588 -0.02207876 13.36195874 -0.02904395 15.1595459 -0.03717041 C20.03160065 -0.05509296 24.90347519 -0.05393483 29.77555299 -0.04822803 C33.84842778 -0.04513413 37.92126806 -0.05123104 41.99413794 -0.05726677 C51.60685428 -0.07130813 61.21948174 -0.06975461 70.8321991 -0.05836487 C80.7348415 -0.04689055 90.63721286 -0.06094871 100.53981954 -0.08776134 C109.05386629 -0.10994749 117.56782814 -0.11654896 126.08190173 -0.11068493 C131.16158868 -0.10732034 136.24110201 -0.10969701 141.32076454 -0.12693596 C146.10040465 -0.14244892 150.87964478 -0.13840137 155.65926933 -0.11963081 C157.4079239 -0.11595662 159.15660838 -0.11901912 160.90523529 -0.1295166 C173.27134009 -0.19805331 183.64917745 0.72098465 193.00218201 9.64424133 C198.0404585 15.82044803 201.2398272 23.16487677 204.70109558 30.2978363 C205.57939897 32.07061224 206.45944919 33.84252368 207.34114075 35.61361694 C209.65307978 40.26985422 211.94048125 44.93773373 214.2230072 49.60844421 C216.51288706 54.28267439 218.82702903 58.94485143 221.13859558 63.60838318 C228.633063 78.74885573 236.0589568 93.91994323 243.29969788 109.18359375 C249.5710778 122.35309273 256.19041569 135.35512178 262.74015808 148.38768005 C265.41985996 153.71970211 268.0979234 159.05253749 270.77140808 164.38768005 C271.09565388 165.03465096 271.41989967 165.68162186 271.7539711 166.34819794 C276.43871995 175.70345599 281.01681896 185.10514831 285.50379944 194.55705261 C289.5044917 202.97851504 293.66179513 211.31595234 297.86515808 219.63768005 C299.25552561 222.39171396 300.64311917 225.14712209 302.02922058 227.90330505 C302.33953217 228.51562988 302.64984375 229.12795471 302.96955872 229.75883484 C305.51664628 234.82346286 306.46280168 238.64697404 306.61515808 244.32518005 C306.66414246 245.55107849 306.71312683 246.77697693 306.76359558 248.0400238 C306.14982294 258.52925276 299.00258808 269.12445654 294.35734558 278.3134613 C293.69539676 279.63105572 293.03387719 280.94886586 292.37275696 282.26687622 C290.64113361 285.71693973 288.90506769 289.16474528 287.16758728 292.61186218 C284.07978506 298.73893711 280.99815062 304.86911012 277.91984558 311.0009613 C277.58468178 311.66827396 277.24951797 312.33558662 276.90419769 313.02312088 C272.28196974 322.23187291 267.76794941 331.48586602 263.35499573 340.79693604 C259.73284722 348.41573121 255.98910061 355.97140989 252.20890808 363.51268005 C251.90468052 364.11968939 251.60045296 364.72669872 251.28700638 365.35210228 C248.7941015 370.32400649 246.2959309 375.29326071 243.79759216 380.26243591 C235.91467701 395.94345424 228.14495395 411.66661598 220.60820007 427.51786804 C216.67525036 435.76821883 212.68692419 443.99080351 208.65080261 452.19114685 C207.61572817 454.30358734 206.58853836 456.41990722 205.56877136 458.53977966 C204.05922103 461.67468734 202.52366157 464.79563545 200.98234558 467.9150238 C200.53833405 468.85152267 200.09432251 469.78802155 199.63685608 470.75289917 C194.89755264 480.20513422 188.6575328 486.13915337 178.61264038 489.58914089 C171.66125903 491.23509475 164.54525678 490.94184994 157.44303894 490.90525818 C155.66455515 490.91068734 153.88607586 490.91781444 152.10760498 490.92649841 C147.30597167 490.94463894 142.50468449 490.93770311 137.70304561 490.92498207 C132.66288157 490.91480772 127.62274585 490.92425987 122.58258057 490.93052673 C114.12195043 490.9377896 105.66146029 490.92825053 97.20085144 490.90916443 C87.43671486 490.8873913 77.67291237 490.89445579 67.90878385 490.91647005 C59.50504933 490.93465449 51.10141504 490.93716772 42.69766718 490.92671537 C37.68735536 490.92049807 32.67720031 490.91959626 27.66689873 490.93286133 C22.95613111 490.94446385 18.24579202 490.93631407 13.53507042 490.9132843 C11.81221984 490.90802095 10.08933285 490.90947005 8.36649704 490.91833496 C-11.26268382 491.00998269 -11.26268382 491.00998269 -18.35464573 485.04668427 C-24.23146756 478.60608501 -25.2021082 472.03428824 -25.05281067 463.7353363 C-25.04644341 462.38513649 -25.04644341 462.38513649 -25.03994751 461.00765991 C-25.02326007 458.15485219 -24.98562689 455.30277142 -24.94734192 452.45018005 C-24.93228222 450.50683094 -24.91859607 448.56347066 -24.90632629 446.62010193 C-24.87338918 441.87568456 -24.82167632 437.13180523 -24.75984192 432.38768005 C-23.92200417 432.3852917 -23.08416641 432.38290335 -22.22093964 432.38044262 C-1.8223793 432.32127348 18.57606308 432.24571106 38.97449493 432.15196514 C48.83908011 432.10702423 58.70362932 432.0676056 68.56828308 432.04124451 C77.16760534 432.01825066 85.76681363 431.98483706 94.36604548 431.93897849 C98.91810954 431.91506503 103.47006086 431.89632394 108.02218628 431.89006615 C112.31007592 431.88400682 116.59767714 431.86397635 120.8854599 431.83340454 C122.45593511 431.82463791 124.02644804 431.82089888 125.59694672 431.82267189 C138.61382594 431.9700979 138.61382594 431.9700979 149.96672058 426.1962738 C152.71423674 422.80200556 154.65610861 419.33898322 156.61515808 415.45018005 C157.23982971 414.23636658 157.23982971 414.23636658 157.87712097 412.99803162 C159.34409958 410.13416894 160.79301767 407.26161682 162.24015808 404.38768005 C162.81653015 403.2486322 163.39290222 402.10958435 163.98674011 400.9360199 C165.89024723 397.17318242 167.78564787 393.40630987 169.67765808 389.63768005 C170.26144226 388.47502625 170.84522644 387.31237244 171.44670105 386.11448669 C174.67471017 379.65674505 177.82911472 373.16777324 180.92718506 366.64665222 C185.67619886 356.65249671 190.53247188 346.7171228 195.49015808 336.82518005 C195.80461946 336.19768608 196.11908085 335.57019211 196.44307137 334.92368317 C199.03154193 329.76068238 201.62527567 324.60032954 204.21916199 319.44004822 C206.47857256 314.94463335 208.73590814 310.44818513 210.99015808 305.95018005 C211.30218863 305.32772274 211.61421917 304.70526543 211.93570518 304.06394577 C216.62280372 294.70604358 221.20904127 285.30339009 225.68070984 275.84031677 C228.6431587 269.57768155 231.72222848 263.38635529 234.98977661 257.27674866 C238.09948294 251.28455846 238.28585934 244.96566673 237.24015808 238.38768005 C235.27704526 232.99172125 232.66798598 228.04765342 229.92765808 223.01268005 C228.90199557 221.0731118 227.88409515 219.12960569 226.86665344 217.18571472 C226.15269288 215.82264451 225.43585912 214.46107612 224.71644592 213.10087585 C221.72684637 207.41883793 218.94382194 201.65138206 216.19718933 195.84861755 C211.76220812 186.49074757 207.1933807 177.20711911 202.55265808 167.95018005 C202.21612024 167.27861248 201.87958241 166.60704491 201.53284645 165.9151268 C199.10481104 161.07120688 196.6729284 156.2292233 194.24015808 151.38768005 C191.46671572 145.86815319 188.69488134 140.34782797 185.92765808 134.82518005 C185.59285872 134.15708124 185.25805935 133.48898243 184.91311455 132.8006382 C179.69046768 122.37034469 174.60697754 111.87987754 169.60392761 101.3422699 C166.38963018 94.58041362 163.04576558 87.88658231 159.67765808 81.20018005 C159.0700366 79.9899938 158.46261558 78.77970687 157.85539246 77.56932068 C156.76383424 75.39476069 155.6714402 73.22061983 154.57780457 71.04710388 C153.752858 69.4069975 152.9440527 67.75851481 152.16227722 66.09739685 C150.88233279 63.72423008 149.75018572 63.37848044 147.24015808 62.38768005 C146.20040833 61.88226181 145.16065857 61.37684357 144.08940125 60.85610962 C137.44299513 58.39304969 130.26592894 58.94741719 123.27726746 58.95530701 C121.66033686 58.94628105 120.0434131 58.93595179 118.42649841 58.92442322 C114.05519247 58.89692492 109.68401662 58.88757848 105.31263542 58.88156915 C100.7375209 58.87216677 96.16250282 58.84596188 91.58744812 58.82156372 C82.93207133 58.77794625 74.27671331 58.74937011 65.62126017 58.72624034 C55.76389094 58.69916317 45.90661897 58.65525322 36.04931927 58.60995162 C15.77965124 58.51717342 -4.4900459 58.44546145 -24.75984192 58.38768005 C-24.85917907 52.55276887 -24.93153128 46.71835669 -24.97956848 40.88279724 C-24.99960689 38.90028807 -25.02684545 36.91783742 -25.06159973 34.93553162 C-25.11046146 32.07568364 -25.13288865 29.21662125 -25.15046692 26.35643005 C-25.17111206 25.47902161 -25.1917572 24.60161316 -25.21302795 23.69761658 C-25.21515889 17.77106092 -24.1145148 13.3319967 -20.75984192 8.38768005 C-14.61782703 2.24566516 -8.53405962 -0.07447124 0 0 Z " fill="#E0DFE9" transform="translate(193.7598419189453,10.612319946289063)"/>
<path d="M0 0 C17.91516884 -0.65578289 37.81257025 1.01841304 52.02490234 13.14453125 C61.42900759 21.97760924 67.32047813 31.42049758 68.35693359 44.5390625 C68.69909862 57.72557624 66.45559893 70.08732589 57.08349609 80.078125 C56.52533203 80.70203125 55.96716797 81.3259375 55.39208984 81.96875 C51.65857005 85.9444892 48.00381752 88.71258585 43.08349609 91.078125 C42.09349609 91.078125 41.10349609 91.078125 40.08349609 91.078125 C40.08349609 91.738125 40.08349609 92.398125 40.08349609 93.078125 C40.96134766 93.18898438 41.83919922 93.29984375 42.74365234 93.4140625 C52.36409425 95.3268989 60.14940192 101.56295279 65.73583984 109.39453125 C71.59565654 118.54959938 73.32744557 126.4485266 73.39599609 137.203125 C73.40445557 138.47422119 73.40445557 138.47422119 73.41308594 139.77099609 C73.25681771 153.34514261 67.9636713 165.05247304 58.54833984 174.828125 C50.22372125 182.42714292 40.80283147 186.11532733 30.08349609 189.078125 C29.10425171 189.35849609 29.10425171 189.35849609 28.10522461 189.64453125 C2.18794127 196.33209198 -27.60828136 190.00985683 -50.35791016 176.921875 C-54.12269205 174.20893293 -56.44630023 171.48873602 -57.91650391 167.078125 C-58.33019288 162.8298575 -58.37050561 159.17728703 -56.72900391 155.203125 C-54.06679349 152.08191279 -51.98241876 150.33934358 -47.80029297 149.81054688 C-40.81328037 149.59158867 -35.95054917 151.37201477 -29.72900391 154.390625 C-11.18624715 162.81483915 7.63525019 164.94598742 27.08349609 158.078125 C32.5838529 155.40513033 36.26416782 151.72297186 38.45849609 145.97265625 C39.29073752 142.11833814 39.51227817 138.38918706 39.58349609 134.453125 C39.6115332 133.37840942 39.6115332 133.37840942 39.64013672 132.28198242 C39.55968332 125.57108597 37.17543809 121.38462515 32.64599609 116.390625 C23.45080969 109.43225958 11.14464661 109.50641891 0.14599609 109.515625 C-1.91647649 109.51199261 -3.97811998 109.50230264 -6.04042053 109.47486877 C-7.89212844 109.450709 -9.7440821 109.44815505 -11.59594727 109.44702148 C-16.61904355 108.88898175 -19.85430697 107.25515404 -23.22900391 103.515625 C-26.32526686 99.04324518 -26.56613439 95.43757649 -25.91650391 90.078125 C-23.65785495 85.56082709 -21.39633456 83.30943681 -16.91650391 81.078125 C-14.02905273 80.69335938 -14.02905273 80.69335938 -10.87353516 80.671875 C-9.71660156 80.64996094 -8.55966797 80.62804687 -7.36767578 80.60546875 C-6.16691406 80.59644531 -4.96615234 80.58742188 -3.72900391 80.578125 C7.11420398 80.49530726 17.32492569 80.20719393 26.08349609 73.078125 C32.16685979 66.71181415 34.24405442 61.79043659 34.52099609 53.140625 C34.34934951 45.79883245 32.95856856 41.21456769 28.02099609 35.828125 C19.83436739 30.95098449 11.76715678 29.37638842 2.33349609 29.515625 C1.28653564 29.52513184 0.2395752 29.53463867 -0.83911133 29.54443359 C-12.06785956 29.84391304 -20.99938713 32.70150186 -30.72900391 38.390625 C-35.8078102 41.30791552 -40.12532409 42.43717595 -45.91650391 41.078125 C-49.294894 39.35745427 -51.34751229 37.03506545 -53.29150391 33.765625 C-54.49760589 28.57938649 -54.68909016 24.75766033 -52.47900391 19.953125 C-41.60670936 7.75494088 -20.78124711 1.23540481 -4.74853516 0.171875 C-3.16552072 0.11947176 -1.5825672 0.06451229 0 0 Z " fill="#B72B4F" transform="translate(188.91650390625,157.921875)"/>
<path d="M0 0 C11.26810458 11.04021033 17.59614651 24.50554739 17.92944336 40.25415039 C17.97719042 57.63841951 13.41084456 70.99637957 2.5 84.75 C3.345625 85.719375 4.19125 86.68875 5.0625 87.6875 C18.57610922 103.55961649 25.16624301 118.33991853 23.5 139.75 C21.60591091 152.58282064 17.17019686 164.04156528 8.5 173.75 C7.92765625 174.42675781 7.3553125 175.10351562 6.765625 175.80078125 C-5.09878695 188.85670465 -24.9046574 196.05080589 -42.25024414 196.94287109 C-43.59508409 196.97562658 -44.94008494 197.00221036 -46.28515625 197.0234375 C-47.01515335 197.03596558 -47.74515045 197.04849365 -48.49726868 197.06140137 C-74.67693911 197.42357449 -102.78306595 195.59133315 -123.37109375 177.06640625 C-128.58879854 171.43232601 -131.66064731 165.01286649 -132.0625 157.3125 C-131.77735441 150.526035 -129.36225775 144.97258948 -124.85546875 139.8984375 C-119.08453855 134.60950373 -113.00581563 132.13757119 -105.16796875 132.3984375 C-97.3015876 133.4350031 -90.12031901 137.3541149 -82.99609375 140.6484375 C-71.63819372 145.66084409 -54.0432658 147.35206742 -42.0625 143.3125 C-40.886875 142.796875 -39.71125 142.28125 -38.5 141.75 C-37.51 141.42 -36.52 141.09 -35.5 140.75 C-32.64710556 135.38885609 -32.86895644 129.65886239 -33.5 123.75 C-35.40479507 119.69195834 -37.01623391 118.96459906 -41.1015625 117.15234375 C-48.92873707 114.63621308 -57.56878009 115.3372307 -65.71362305 115.38964844 C-74.7291171 115.42469409 -82.97591175 115.45280762 -90.5 109.75 C-97.48661016 102.31781296 -99.09062259 95.51443528 -98.8046875 85.41796875 C-98.14952953 77.53087472 -94.68353249 73.41652769 -88.890625 68.29296875 C-80.21794879 62.69540812 -71.40000995 63.29874872 -61.41015625 63.22265625 C-50.32165676 63.04912328 -50.32165676 63.04912328 -41.03125 57.47265625 C-39.16838601 54.16037003 -38.96490811 51.97303737 -39 48.1875 C-38.9896875 47.07246094 -38.979375 45.95742187 -38.96875 44.80859375 C-39.6234035 41.03952252 -40.40536557 39.96547692 -43.5 37.75 C-55.29826486 33.28656004 -69.10960213 34.95550163 -80.5 39.75 C-84.22598791 41.48224029 -87.87343949 43.33728291 -91.50390625 45.26171875 C-97.47500517 48.2278057 -104.30373195 49.08815134 -110.75390625 47.03125 C-118.29726019 43.48143638 -122.83526321 37.67976307 -126.75 30.4375 C-128.72901089 23.34604432 -127.73371117 16.31115311 -124.5 9.75 C-119.60766502 1.77730595 -111.55408239 -2.11186801 -103.5 -6.25 C-102.74976563 -6.65089844 -101.99953125 -7.05179688 -101.2265625 -7.46484375 C-96.18746817 -9.94455618 -90.8232834 -11.41014762 -85.4375 -12.9375 C-84.68114258 -13.15237061 -83.92478516 -13.36724121 -83.14550781 -13.58862305 C-55.53497423 -21.10428962 -22.87478154 -18.12803834 0 0 Z M-76.5 -3.25 C-77.67820313 -3.00507813 -78.85640625 -2.76015625 -80.0703125 -2.5078125 C-87.18160093 -0.83020166 -93.53073122 1.45227231 -100.0625 4.6875 C-100.71710205 5.01121582 -101.3717041 5.33493164 -102.04614258 5.66845703 C-106.91299595 8.19498274 -111.51638123 11.1352298 -114.875 15.5625 C-116.24838311 20.36934088 -115.99561307 24.3935853 -114.3125 29 C-111.86111782 32.71933847 -109.96338321 35.10020994 -105.515625 36.2734375 C-98.61421223 36.94505149 -93.42087349 34.11592764 -87.5612793 30.86035156 C-78.41230413 25.81693719 -69.96721424 24.23955427 -59.5625 24.3125 C-58.05139648 24.2825293 -58.05139648 24.2825293 -56.50976562 24.25195312 C-48.06496337 24.25738387 -40.83948146 26.164777 -33.5625 30.5 C-27.78094679 36.80714895 -26.78161526 42.77178853 -27.0546875 51.2734375 C-27.9402641 58.18714953 -30.76509854 63.46978059 -35.875 68.1875 C-42.4698818 73.26269164 -49.46638735 74.83951951 -57.68359375 74.92578125 C-59.44606445 74.96155273 -59.44606445 74.96155273 -61.24414062 74.99804688 C-63.7022983 75.04094439 -66.16068651 75.07223358 -68.61914062 75.09179688 C-77.36800276 75.24059428 -77.36800276 75.24059428 -84.5 79.75 C-87.66284231 83.4399827 -88.01992627 86.82853854 -87.85546875 91.53515625 C-87.14912972 95.93619176 -84.69211757 98.70238153 -81.4375 101.5625 C-77.59372442 103.91836245 -74.29211311 103.88464198 -69.8828125 103.92578125 C-68.53904759 103.94902322 -67.19529762 103.97314217 -65.8515625 103.99804688 C-63.75446205 104.03277191 -61.65789629 104.06228603 -59.56054688 104.07592773 C-48.00610694 104.16559328 -35.84244897 104.85399705 -26.8671875 112.9921875 C-21.1803891 120.30378545 -21.42796805 128.93717276 -22.5 137.75 C-24.00513686 143.55968285 -26.68584433 147.53510796 -31.4375 151.1875 C-44.76481869 158.96360495 -62.0932787 158.06431563 -76.64453125 154.875 C-82.35496398 153.34001679 -87.69800618 150.87353714 -93.0390625 148.37109375 C-99.49208328 145.3485163 -104.33036364 143.80934371 -111.5 144.75 C-115.63899081 146.81949541 -117.76952299 148.50175688 -119.5 152.75 C-120.30440106 157.81024388 -119.96426823 162.68179341 -117.07421875 167.0625 C-105.39514101 179.58200765 -83.03394907 184.89183965 -66.45825195 185.94287109 C-43.96471347 186.50567856 -22.07551284 185.7286776 -4.125 170.4375 C5.37759184 161.346078 11.19487725 150.41660317 11.73828125 137.2109375 C12.08331285 121.42612872 9.67240709 109.69972972 -1.34375 97.75 C-6.62589774 92.72763002 -14.01255349 87.75 -21.5 87.75 C-21.5 87.09 -21.5 86.43 -21.5 85.75 C-20.84 85.70875 -20.18 85.6675 -19.5 85.625 C-11.83674273 83.3898833 -4.22694592 76.13232773 -0.05859375 69.43359375 C1.26318021 66.91235925 2.4134703 64.38075507 3.5 61.75 C3.82097656 60.99074219 4.14195312 60.23148437 4.47265625 59.44921875 C8.75802161 47.58971926 7.45795205 34.15482468 2.5 22.75 C-3.92327644 10.62537156 -13.84862314 2.66253341 -26.87744141 -1.39599609 C-43.11451841 -6.21103196 -59.88584656 -6.78406198 -76.5 -3.25 Z " fill="#FDFAFB" transform="translate(250.5,163.25)"/>
</svg>
