<?xml version="1.0" encoding="UTF-8"?>
<svg version="1.1" xmlns="http://www.w3.org/2000/svg" width="512" height="512">
<path d="M0 0 C0.78649421 -0.0060911 1.57298843 -0.01218221 2.3833158 -0.01845789 C4.99777981 -0.03500075 7.61175212 -0.03032464 10.22625732 -0.0255127 C12.10942588 -0.0328582 13.99258994 -0.04144583 15.87574768 -0.05117798 C20.97719669 -0.07335466 26.07848397 -0.07632649 31.17997456 -0.07443047 C35.44656797 -0.07431056 39.71312737 -0.08288312 43.97971129 -0.09120798 C54.05133706 -0.11042914 64.12287996 -0.11333094 74.19451904 -0.10656738 C84.56467767 -0.09993109 94.9344802 -0.12277749 105.30456662 -0.15988111 C114.22460765 -0.19063177 123.14453447 -0.20193221 132.06462741 -0.1980443 C137.3847392 -0.19598194 142.70457398 -0.20137634 148.02463531 -0.22593689 C153.03170235 -0.24828949 158.03819301 -0.24625557 163.04526329 -0.22600937 C164.8753244 -0.22261409 166.70542496 -0.227624 168.53543282 -0.24199295 C181.07110767 -0.33357244 192.47797673 0.52211518 202.16668701 9.58190918 C202.91692139 10.25608887 203.66715576 10.93026855 204.44012451 11.62487793 C212.04826811 20.58529954 216.75439365 32.04223865 221.95965576 42.49987793 C222.84366522 44.26909292 223.72797396 46.0381584 224.61256409 47.80708313 C226.46324712 51.5100075 228.31125375 55.21425057 230.15716553 58.91955566 C232.48845966 63.59898038 234.82491996 68.27580052 237.16317558 72.9517498 C253.44749782 105.52145175 253.44749782 105.52145175 260.8266449 121.1158905 C264.60529722 129.07413708 268.53275305 136.95600866 272.47918701 144.83190918 C272.98564223 145.84268493 272.98564223 145.84268493 273.50232887 146.87388039 C275.9292464 151.71549805 278.3600657 156.55515261 280.79168701 161.39440918 C283.5651294 166.9139361 286.33690647 172.43428993 289.10418701 177.95690918 C289.43865404 178.62428101 289.77312107 179.29165283 290.11772346 179.97924805 C294.9221216 189.57316066 299.62085831 199.21178598 304.22160339 208.90539551 C307.97006714 216.80109286 311.88497309 224.60067412 315.88739014 232.37097168 C319.90456952 240.28796266 322.15962218 247.13056927 322.22918701 256.01940918 C322.26205811 256.73741699 322.2949292 257.4554248 322.32879639 258.19519043 C322.47736118 273.67294047 311.43810041 289.41456727 304.66668701 302.76940918 C302.49414209 307.06724164 300.32529002 311.36692151 298.15887451 315.66784668 C297.61914001 316.73863464 297.07940552 317.80942261 296.52331543 318.91265869 C293.07420185 325.77747504 289.71613283 332.67942632 286.42449951 339.62097168 C282.23462082 348.45277748 277.92181741 357.21838865 273.54168701 365.95690918 C273.22674412 366.58534351 272.91180122 367.21377785 272.58731461 367.86125565 C269.99932958 373.0233062 267.40609019 378.18271309 264.81268311 383.34204102 C257.76089063 397.3725732 250.7338683 411.40680667 243.99411011 425.59086609 C238.63675349 436.85361751 233.15817024 448.05615227 227.62134933 459.23159981 C225.96621088 462.57283566 224.31771755 465.91701644 222.68377686 469.26867676 C221.06451258 472.58980871 219.4291815 475.90257458 217.78271866 479.21030235 C217.17046641 480.4468707 216.56362715 481.68613777 215.96291733 482.92835426 C210.22095193 494.78373257 203.09556818 504.82568009 190.79168701 510.39440918 C185.69535331 512.09908636 181.06315524 512.68478898 175.72813416 512.66183472 C174.94516679 512.66636583 174.16219942 512.67089694 173.35550576 512.67556536 C170.74717641 512.68816662 168.139057 512.68659177 165.53070068 512.68493652 C163.65428908 512.69092444 161.77787993 512.69773059 159.901474 512.70529175 C154.81458922 512.72293196 149.72777177 512.72764629 144.64085937 512.72892332 C141.45989456 512.73034657 138.27894679 512.73461947 135.09798622 512.73991776 C123.99253887 512.75841134 112.88713948 512.76658919 101.78167725 512.76501465 C91.4427973 512.76381337 81.10412614 512.78491488 70.76529902 512.81650198 C61.87759173 512.84268442 52.98995255 512.85338112 44.10220701 512.85210383 C38.79894592 512.85159479 33.49587047 512.85724621 28.19264793 512.87845993 C23.20291137 512.89787547 18.21353691 512.89794406 13.22378731 512.88342667 C11.39772384 512.88134161 9.5716375 512.88602133 7.7456131 512.89814758 C-4.52040519 512.97429585 -14.99294947 512.39034822 -24.38409424 503.58972168 C-30.80244578 495.86570977 -33.34939776 487.42065208 -33.30596924 477.56237793 C-33.30274658 476.27009277 -33.29952393 474.97780762 -33.29620361 473.6463623 C-33.28784964 472.29154392 -33.27938471 470.93672621 -33.27081299 469.58190918 C-33.26579299 468.20756183 -33.26123096 466.83321273 -33.25714111 465.4588623 C-33.24536967 462.10399994 -33.22892582 458.74922697 -33.20831299 455.39440918 C-33.8733122 455.39809635 -34.53831141 455.40178352 -35.2234621 455.40558243 C-51.44201059 455.49411369 -67.66048204 455.5602061 -83.87921619 455.60165787 C-91.72264626 455.62223905 -99.56591454 455.65027399 -107.40924072 455.69616699 C-114.24950245 455.7361716 -121.08964694 455.76187426 -127.93002242 455.77076316 C-131.54836819 455.77595502 -135.16637869 455.78806343 -138.78461647 455.81732941 C-142.83460671 455.84981859 -146.88402275 455.85035992 -150.93414307 455.84851074 C-152.11954178 455.86289185 -153.30494049 455.87727295 -154.52626038 455.89208984 C-164.6750002 455.84214742 -173.87891632 453.75769366 -181.41925049 446.58972168 C-187.49416438 439.13535136 -190.32202364 430.8930761 -190.34812069 421.39346218 C-190.35381193 420.18216906 -190.35950317 418.97087594 -190.36536688 417.72287697 C-190.36665939 416.38205947 -190.36784743 415.04124187 -190.36894226 413.70042419 C-190.37367525 412.2733541 -190.37882644 410.84628534 -190.3843599 409.41921812 C-190.39824822 405.49733916 -190.40584452 401.57546947 -190.41233289 397.6535722 C-190.41871015 394.28969933 -190.42877933 390.92584162 -190.43889355 387.56197821 C-190.47219381 376.48061204 -190.49373375 365.39923664 -190.51209339 354.31783685 C-190.51688998 351.43183728 -190.5218731 348.54583809 -190.52689862 345.65983891 C-190.5578695 327.73188435 -190.58454996 309.80392653 -190.60131741 291.87595272 C-190.60526679 287.72463411 -190.6092698 283.57331556 -190.61334229 279.42199707 C-190.61435065 278.39022898 -190.61535901 277.35846088 -190.61639792 276.29542709 C-190.63340182 259.58457411 -190.67450937 242.87386928 -190.72536527 226.16308861 C-190.77716666 209.00024449 -190.8062629 191.83747652 -190.81351429 174.67455488 C-190.81817313 165.04070612 -190.83288879 155.40710006 -190.87325859 145.77332878 C-190.90760074 137.56812698 -190.92148093 129.36321171 -190.90883445 121.15794217 C-190.90301751 116.97401282 -190.90680279 112.79068914 -190.93700409 108.60685158 C-190.9644726 104.77016015 -190.96378973 100.93450162 -190.94149364 97.09778614 C-190.93677491 95.06585354 -190.96145013 93.0339168 -190.98746294 91.00214523 C-190.88056608 80.54008496 -188.05634904 71.89892115 -180.52081299 64.39440918 C-171.9155714 57.70735111 -162.39965478 56.81323014 -151.84234619 56.94030762 C-149.90872978 56.93943146 -149.90872978 56.93943146 -147.93605042 56.9385376 C-144.43658382 56.93740024 -140.93767711 56.96074833 -137.43833947 56.98883343 C-133.76820304 57.01401247 -130.09805066 57.01620197 -126.42784119 57.02093506 C-119.4936387 57.03331677 -112.55969156 57.06607243 -105.62560099 57.10633302 C-97.724686 57.15120135 -89.82375815 57.17307544 -81.92274725 57.19311476 C-65.68445356 57.23481005 -49.44641597 57.30506737 -33.20831299 57.39440918 C-33.23187866 56.15521729 -33.23187866 56.15521729 -33.25592041 54.89099121 C-33.30754036 51.77854806 -33.3448992 48.6663256 -33.37310791 45.55358887 C-33.39532777 43.56288013 -33.43347893 41.5723695 -33.47198486 39.58190918 C-33.56023197 27.93329124 -31.89115343 18.44732727 -24.20831299 9.39440918 C-17.24648538 2.79292461 -9.54678782 -0.07069779 0 0 Z " fill="#D62E57" transform="translate(190.20831298828125,-0.3944091796875)"/>
<path d="M0 0 C1.12544843 -0.00807831 1.12544843 -0.00807831 2.27363318 -0.01631981 C4.77151527 -0.0305532 7.26886395 -0.02350725 9.76676941 -0.01637268 C11.56436588 -0.02207876 13.36195874 -0.02904395 15.1595459 -0.03717041 C20.03160065 -0.05509296 24.90347519 -0.05393483 29.77555299 -0.04822803 C33.84842778 -0.04513413 37.92126806 -0.05123104 41.99413794 -0.05726677 C51.60685428 -0.07130813 61.21948174 -0.06975461 70.8321991 -0.05836487 C80.7348415 -0.04689055 90.63721286 -0.06094871 100.53981954 -0.08776134 C109.05386629 -0.10994749 117.56782814 -0.11654896 126.08190173 -0.11068493 C131.16158868 -0.10732034 136.24110201 -0.10969701 141.32076454 -0.12693596 C146.10040465 -0.14244892 150.87964478 -0.13840137 155.65926933 -0.11963081 C157.4079239 -0.11595662 159.15660838 -0.11901912 160.90523529 -0.1295166 C173.27134009 -0.19805331 183.64917745 0.72098465 193.00218201 9.64424133 C198.0404585 15.82044803 201.2398272 23.16487677 204.70109558 30.2978363 C205.57939897 32.07061224 206.45944919 33.84252368 207.34114075 35.61361694 C209.65307978 40.26985422 211.94048125 44.93773373 214.2230072 49.60844421 C216.51288706 54.28267439 218.82702903 58.94485143 221.13859558 63.60838318 C228.633063 78.74885573 236.0589568 93.91994323 243.29969788 109.18359375 C249.5710778 122.35309273 256.19041569 135.35512178 262.74015808 148.38768005 C265.41985996 153.71970211 268.0979234 159.05253749 270.77140808 164.38768005 C271.09565388 165.03465096 271.41989967 165.68162186 271.7539711 166.34819794 C276.43871995 175.70345599 281.01681896 185.10514831 285.50379944 194.55705261 C289.5044917 202.97851504 293.66179513 211.31595234 297.86515808 219.63768005 C299.25552561 222.39171396 300.64311917 225.14712209 302.02922058 227.90330505 C302.33953217 228.51562988 302.64984375 229.12795471 302.96955872 229.75883484 C305.51664628 234.82346286 306.46280168 238.64697404 306.61515808 244.32518005 C306.66414246 245.55107849 306.71312683 246.77697693 306.76359558 248.0400238 C306.14982294 258.52925276 299.00258808 269.12445654 294.35734558 278.3134613 C293.69539676 279.63105572 293.03387719 280.94886586 292.37275696 282.26687622 C290.64113361 285.71693973 288.90506769 289.16474528 287.16758728 292.61186218 C284.07978506 298.73893711 280.99815062 304.86911012 277.91984558 311.0009613 C277.58468178 311.66827396 277.24951797 312.33558662 276.90419769 313.02312088 C272.28196974 322.23187291 267.76794941 331.48586602 263.35499573 340.79693604 C259.73284722 348.41573121 255.98910061 355.97140989 252.20890808 363.51268005 C251.90468052 364.11968939 251.60045296 364.72669872 251.28700638 365.35210228 C248.7941015 370.32400649 246.2959309 375.29326071 243.79759216 380.26243591 C235.91467701 395.94345424 228.14495395 411.66661598 220.60820007 427.51786804 C216.67525036 435.76821883 212.68692419 443.99080351 208.65080261 452.19114685 C207.61572817 454.30358734 206.58853836 456.41990722 205.56877136 458.53977966 C204.05922103 461.67468734 202.52366157 464.79563545 200.98234558 467.9150238 C200.53833405 468.85152267 200.09432251 469.78802155 199.63685608 470.75289917 C194.89755264 480.20513422 188.6575328 486.13915337 178.61264038 489.58914089 C171.66125903 491.23509475 164.54525678 490.94184994 157.44303894 490.90525818 C155.66455515 490.91068734 153.88607586 490.91781444 152.10760498 490.92649841 C147.30597167 490.94463894 142.50468449 490.93770311 137.70304561 490.92498207 C132.66288157 490.91480772 127.62274585 490.92425987 122.58258057 490.93052673 C114.12195043 490.9377896 105.66146029 490.92825053 97.20085144 490.90916443 C87.43671486 490.8873913 77.67291237 490.89445579 67.90878385 490.91647005 C59.50504933 490.93465449 51.10141504 490.93716772 42.69766718 490.92671537 C37.68735536 490.92049807 32.67720031 490.91959626 27.66689873 490.93286133 C22.95613111 490.94446385 18.24579202 490.93631407 13.53507042 490.9132843 C11.81221984 490.90802095 10.08933285 490.90947005 8.36649704 490.91833496 C-11.26268382 491.00998269 -11.26268382 491.00998269 -18.35464573 485.04668427 C-24.23146756 478.60608501 -25.2021082 472.03428824 -25.05281067 463.7353363 C-25.04644341 462.38513649 -25.04644341 462.38513649 -25.03994751 461.00765991 C-25.02326007 458.15485219 -24.98562689 455.30277142 -24.94734192 452.45018005 C-24.93228222 450.50683094 -24.91859607 448.56347066 -24.90632629 446.62010193 C-24.87338918 441.87568456 -24.82167632 437.13180523 -24.75984192 432.38768005 C-23.92200417 432.3852917 -23.08416641 432.38290335 -22.22093964 432.38044262 C-1.8223793 432.32127348 18.57606308 432.24571106 38.97449493 432.15196514 C48.83908011 432.10702423 58.70362932 432.0676056 68.56828308 432.04124451 C77.16760534 432.01825066 85.76681363 431.98483706 94.36604548 431.93897849 C98.91810954 431.91506503 103.47006086 431.89632394 108.02218628 431.89006615 C112.31007592 431.88400682 116.59767714 431.86397635 120.8854599 431.83340454 C122.45593511 431.82463791 124.02644804 431.82089888 125.59694672 431.82267189 C138.61382594 431.9700979 138.61382594 431.9700979 149.96672058 426.1962738 C152.71423674 422.80200556 154.65610861 419.33898322 156.61515808 415.45018005 C157.23982971 414.23636658 157.23982971 414.23636658 157.87712097 412.99803162 C159.34409958 410.13416894 160.79301767 407.26161682 162.24015808 404.38768005 C162.81653015 403.2486322 163.39290222 402.10958435 163.98674011 400.9360199 C165.89024723 397.17318242 167.78564787 393.40630987 169.67765808 389.63768005 C170.26144226 388.47502625 170.84522644 387.31237244 171.44670105 386.11448669 C174.67471017 379.65674505 177.82911472 373.16777324 180.92718506 366.64665222 C185.67619886 356.65249671 190.53247188 346.7171228 195.49015808 336.82518005 C195.80461946 336.19768608 196.11908085 335.57019211 196.44307137 334.92368317 C199.03154193 329.76068238 201.62527567 324.60032954 204.21916199 319.44004822 C206.47857256 314.94463335 208.73590814 310.44818513 210.99015808 305.95018005 C211.30218863 305.32772274 211.61421917 304.70526543 211.93570518 304.06394577 C216.62280372 294.70604358 221.20904127 285.30339009 225.68070984 275.84031677 C228.6431587 269.57768155 231.72222848 263.38635529 234.98977661 257.27674866 C238.09948294 251.28455846 238.28585934 244.96566673 237.24015808 238.38768005 C235.27704526 232.99172125 232.66798598 228.04765342 229.92765808 223.01268005 C228.90199557 221.0731118 227.88409515 219.12960569 226.86665344 217.18571472 C226.15269288 215.82264451 225.43585912 214.46107612 224.71644592 213.10087585 C221.72684637 207.41883793 218.94382194 201.65138206 216.19718933 195.84861755 C211.76220812 186.49074757 207.1933807 177.20711911 202.55265808 167.95018005 C202.21612024 167.27861248 201.87958241 166.60704491 201.53284645 165.9151268 C199.10481104 161.07120688 196.6729284 156.2292233 194.24015808 151.38768005 C191.46671572 145.86815319 188.69488134 140.34782797 185.92765808 134.82518005 C185.59285872 134.15708124 185.25805935 133.48898243 184.91311455 132.8006382 C179.69046768 122.37034469 174.60697754 111.87987754 169.60392761 101.3422699 C166.38963018 94.58041362 163.04576558 87.88658231 159.67765808 81.20018005 C159.0700366 79.9899938 158.46261558 78.77970687 157.85539246 77.56932068 C156.76383424 75.39476069 155.6714402 73.22061983 154.57780457 71.04710388 C153.752858 69.4069975 152.9440527 67.75851481 152.16227722 66.09739685 C150.88233279 63.72423008 149.75018572 63.37848044 147.24015808 62.38768005 C146.20040833 61.88226181 145.16065857 61.37684357 144.08940125 60.85610962 C137.44299513 58.39304969 130.26592894 58.94741719 123.27726746 58.95530701 C121.66033686 58.94628105 120.0434131 58.93595179 118.42649841 58.92442322 C114.05519247 58.89692492 109.68401662 58.88757848 105.31263542 58.88156915 C100.7375209 58.87216677 96.16250282 58.84596188 91.58744812 58.82156372 C82.93207133 58.77794625 74.27671331 58.74937011 65.62126017 58.72624034 C55.76389094 58.69916317 45.90661897 58.65525322 36.04931927 58.60995162 C15.77965124 58.51717342 -4.4900459 58.44546145 -24.75984192 58.38768005 C-24.85917907 52.55276887 -24.93153128 46.71835669 -24.97956848 40.88279724 C-24.99960689 38.90028807 -25.02684545 36.91783742 -25.06159973 34.93553162 C-25.11046146 32.07568364 -25.13288865 29.21662125 -25.15046692 26.35643005 C-25.17111206 25.47902161 -25.1917572 24.60161316 -25.21302795 23.69761658 C-25.21515889 17.77106092 -24.1145148 13.3319967 -20.75984192 8.38768005 C-14.61782703 2.24566516 -8.53405962 -0.07447124 0 0 Z " fill="#E0DFE9" transform="translate(193.7598419189453,10.612319946289063)"/>
<path d="M0 0 C0.55945313 0.51046875 1.11890625 1.0209375 1.6953125 1.546875 C2.29601562 2.05734375 2.89671875 2.5678125 3.515625 3.09375 C11.52523884 10.37521713 16.23246728 20.20867439 16.91015625 30.953125 C17.27318827 45.24206522 14.32471402 58.5886851 4.6953125 69.546875 C2.93430707 71.02706437 1.11872113 72.44442546 -0.7421875 73.796875 C-1.66902344 74.48265625 -2.59585938 75.1684375 -3.55078125 75.875 C-6.24731103 77.51204219 -8.20145567 78.16389902 -11.3046875 78.546875 C-11.3046875 79.206875 -11.3046875 79.866875 -11.3046875 80.546875 C-10.42683594 80.65773438 -9.54898438 80.76859375 -8.64453125 80.8828125 C0.98950327 82.79835153 8.70409221 89.03653776 14.34765625 96.828125 C22.37102534 109.22609386 23.55818326 123.90634184 21.1328125 138.296875 C17.35965181 151.60774744 9.8395905 161.85791764 -1.8046875 169.296875 C-24.03105832 181.59718318 -53.24855548 181.67959689 -77.24609375 175.14550781 C-88.37565429 171.9090654 -101.43675882 167.38934875 -108.3046875 157.546875 C-109.96724116 152.55921402 -110.13751347 147.56319052 -108.1171875 142.671875 C-105.45573623 139.55155282 -103.37163816 137.80849619 -99.19067383 137.27929688 C-92.1915139 137.05980367 -87.2937479 138.84695313 -81.0546875 141.859375 C-64.12262803 149.50596788 -45.07991728 153.43546031 -27.04296875 146.7890625 C-20.21862004 143.69328092 -16.5232043 140.77024579 -13.3046875 133.859375 C-10.46049653 126.06918414 -9.86606031 119.2300468 -13.2421875 111.546875 C-13.9267783 110.21204562 -14.61390224 108.87850924 -15.3046875 107.546875 C-15.6346875 106.556875 -15.9646875 105.566875 -16.3046875 104.546875 C-18.09120808 103.41051943 -18.09120808 103.41051943 -20.3046875 102.546875 C-21.49384766 102.03447266 -21.49384766 102.03447266 -22.70703125 101.51171875 C-23.54363281 101.17269531 -24.38023437 100.83367187 -25.2421875 100.484375 C-26.07621094 100.14277344 -26.91023438 99.80117188 -27.76953125 99.44921875 C-32.64960825 97.71224219 -37.19839859 97.40942777 -42.36328125 97.3359375 C-43.73243397 97.30787554 -45.10157444 97.27921112 -46.47070312 97.25 C-48.60782609 97.20877407 -50.74471874 97.17184381 -52.88208008 97.14550781 C-54.95961316 97.11775314 -57.03614137 97.07190154 -59.11328125 97.0234375 C-60.34876709 97.00361816 -61.58425293 96.98379883 -62.85717773 96.96337891 C-67.90038985 96.35409345 -71.17467971 94.76850504 -74.6171875 91.046875 C-77.44866199 86.85209798 -77.64232128 83.52697328 -77.3046875 78.546875 C-75.85853991 74.44945684 -74.10144368 71.73929439 -70.40087891 69.37426758 C-65.59855288 67.47873032 -60.14325381 67.98712558 -55.0546875 67.984375 C-43.41554773 67.93975617 -32.43289822 67.57227498 -23.6796875 58.9453125 C-17.5573987 52.26377617 -16.84743075 45.87050171 -16.98828125 36.96875 C-17.5284297 31.12714451 -19.45461158 27.50577892 -23.4296875 23.296875 C-31.59310989 18.32783529 -38.99925581 16.85173923 -48.4921875 16.984375 C-49.59062988 16.99388184 -50.68907227 17.00338867 -51.82080078 17.01318359 C-63.25485703 17.30446496 -72.20095983 20.06917826 -82.1171875 25.859375 C-87.19068901 28.77361843 -91.51887501 29.91479914 -97.3046875 28.546875 C-101.20378504 26.48834525 -103.62266841 23.59729766 -105.3046875 19.546875 C-105.67578125 17.43359375 -105.67578125 17.43359375 -105.7421875 15.234375 C-105.78214844 14.51636719 -105.82210937 13.79835937 -105.86328125 13.05859375 C-104.84952153 8.50021961 -102.24320309 4.99239125 -98.50952148 2.20825195 C-96.4800972 0.99039462 -94.42663461 -0.09251173 -92.3046875 -1.140625 C-91.55719238 -1.5229126 -90.80969727 -1.9052002 -90.03955078 -2.29907227 C-83.63589005 -5.48314883 -77.23303469 -7.66388182 -70.3046875 -9.453125 C-68.479375 -10.0409375 -68.479375 -10.0409375 -66.6171875 -10.640625 C-45.73433022 -15.76283528 -17.05325764 -14.32178347 0 0 Z " fill="#B72A4F" transform="translate(161.3046875,170.453125)"/>
<path d="M0 0 C11.00244357 10.51668447 16.56965147 21.38299944 17.17675781 36.78564453 C17.56150621 64.18345414 2.56384236 86.01611007 -15.70703125 105.08691406 C-17.21441112 106.67449427 -18.69508069 108.28275762 -20.16796875 109.90234375 C-26.06057262 116.38057847 -32.12759125 122.63557687 -38.35302734 128.79467773 C-41.93383219 132.35087396 -45.37919027 135.96145717 -48.60546875 139.84765625 C-50.12516288 141.57192459 -51.70347857 143.18576979 -53.33203125 144.80664062 C-53.87424316 145.34687866 -54.41645508 145.8871167 -54.97509766 146.44372559 C-55.38937012 146.85546021 -55.80364258 147.26719482 -56.23046875 147.69140625 C-55.32924286 147.69727249 -54.42801697 147.70313873 -53.4994812 147.70918274 C-44.9952447 147.76715019 -36.4912697 147.83925025 -27.98728752 147.92712116 C-23.6155673 147.97179807 -19.24393969 148.01106002 -14.87207031 148.0378418 C-10.65086037 148.06390164 -6.43000732 148.10432278 -2.20901871 148.15459251 C-0.60077487 148.17124315 1.00753067 148.18276866 2.61584854 148.18902016 C4.87334624 148.19868115 7.1299346 148.22676254 9.38720703 148.2590332 C10.67072052 148.27013626 11.95423401 148.28123932 13.27664185 148.29267883 C17.09170283 148.72818344 19.51351201 149.68438514 22.76953125 151.69140625 C26.14993335 156.4239692 26.50515765 161.06839896 25.76953125 166.69140625 C24.08821594 171.46988134 22.30426487 173.48217705 17.76953125 175.69140625 C17.10953125 176.02140625 16.44953125 176.35140625 15.76953125 176.69140625 C14.36862774 176.79146571 12.96313598 176.83077699 11.5586853 176.83857727 C10.67559692 176.84573257 9.79250854 176.85288788 8.88265991 176.86026001 C7.91124054 176.86294891 6.93982117 176.86563782 5.93896484 176.8684082 C4.91764465 176.8749794 3.89632446 176.8815506 2.84405518 176.88832092 C-0.54797433 176.90808803 -3.93995944 176.91972564 -7.33203125 176.9296875 C-9.06847963 176.93580079 -9.06847963 176.93580079 -10.84000778 176.94203758 C-16.96999688 176.96291531 -23.09996348 176.97720828 -29.22998047 176.98657227 C-35.55847626 176.99762543 -41.88661935 177.03200827 -48.21499062 177.07174397 C-53.0826787 177.09791096 -57.95028289 177.10626433 -62.81803513 177.10985374 C-65.15037791 177.11472137 -67.48271691 177.12634031 -69.814991 177.14489174 C-73.08478802 177.16927848 -76.35367474 177.16831828 -79.62353516 177.16137695 C-81.06244614 177.18059204 -81.06244614 177.18059204 -82.53042603 177.20019531 C-88.54506774 177.15379061 -93.24380961 176.20754301 -98.23046875 172.69140625 C-101.54733646 168.4416695 -101.94159866 163.86769366 -101.75 158.609375 C-99.96601062 148.58952488 -91.32091001 141.45349543 -84.3125 134.69921875 C-81.2955282 131.78847196 -78.54851894 128.71044314 -75.8359375 125.515625 C-73.42144187 122.77214699 -70.79836076 120.25057823 -68.1953125 117.6875 C-66.30816131 115.77033448 -64.543615 113.79565303 -62.79296875 111.75390625 C-60.22381604 108.76338909 -57.53729619 105.96023941 -54.73046875 103.19140625 C-51.4003333 99.90044887 -48.26908679 96.52763764 -45.234375 92.96484375 C-43.67265641 91.19306944 -42.08667701 89.48866127 -40.4453125 87.79296875 C-28.01652371 74.88040683 -18.0827364 61.52248091 -17.66796875 43.00390625 C-17.64081787 42.20766846 -17.61366699 41.41143066 -17.58569336 40.59106445 C-17.63707294 32.98609658 -20.75940602 28.2186295 -25.98046875 22.87890625 C-33.21296349 18.01088095 -40.47870063 17.18467118 -49.04296875 17.31640625 C-50.01709717 17.32873291 -50.99122559 17.34105957 -51.99487305 17.35375977 C-64.05107163 17.63469849 -72.79794465 20.4897985 -83.0949707 26.64233398 C-88.08710154 29.51960698 -91.45593169 30.38072272 -97.23046875 29.69140625 C-99.5078125 28.484375 -99.5078125 28.484375 -101.16796875 26.87890625 C-101.73386719 26.35683594 -102.29976562 25.83476562 -102.8828125 25.296875 C-105.8498871 21.76218612 -105.572468 17.57265477 -105.49609375 13.1875 C-105.00650126 8.58677061 -102.92967447 6.11052312 -99.453125 3.20703125 C-73.91755361 -15.24325124 -25.60445808 -21.36493997 0 0 Z " fill="#B72B4F" transform="translate(319.23046875,170.30859375)"/>
<path d="M0 0 C0.72799805 0.00403839 1.45599609 0.00807678 2.20605469 0.01223755 C22.4209581 0.16954226 42.92995478 3.60583438 58.109375 18.375 C71.43043216 33.93588093 74.8059839 49.39576959 73.875 69.4375 C73.55059926 72.61662727 72.91695899 75.42072869 71.875 78.4375 C71.55660156 79.36691406 71.23820313 80.29632813 70.91015625 81.25390625 C68.01499044 88.88661613 63.93295185 95.0617195 58.875 101.4375 C59.720625 102.406875 60.56625 103.37625 61.4375 104.375 C74.95110922 120.24711649 81.54124301 135.02741853 79.875 156.4375 C77.98091091 169.27032064 73.54519686 180.72906528 64.875 190.4375 C64.30265625 191.11425781 63.7303125 191.79101562 63.140625 192.48828125 C51.17805022 205.65222572 30.37614878 213.2058641 12.875 214.4375 C-13.9915246 215.56034522 -43.94866256 212.58859587 -65.5859375 194.859375 C-72.02316794 188.91228901 -75.16679171 182.84276157 -75.625 174.0625 C-75.4069015 167.22558612 -73.01965359 161.69656366 -68.48046875 156.5859375 C-62.70953855 151.29700373 -56.63081563 148.82507119 -48.79296875 149.0859375 C-41.98614914 149.98288298 -35.88137256 153.06334841 -29.75 156 C-16.25640354 162.14898066 1.05975089 164.37595556 15.4375 159.8125 C18.52586877 158.41353672 19.82478012 157.49632901 22.0625 154.875 C23.4724491 148.90983072 24.14105978 143.07971171 21.4375 137.4375 C12.71928347 130.63303832 1.11794342 132.00985315 -9.33862305 132.07714844 C-18.3541171 132.11219409 -26.60091175 132.14030762 -34.125 126.4375 C-41.11161016 119.00531296 -42.71562259 112.20193528 -42.4296875 102.10546875 C-41.77452953 94.21837472 -38.30853249 90.10402769 -32.515625 84.98046875 C-23.66790167 79.26992837 -14.5819878 80.00337709 -4.390625 79.99804688 C2.83475074 79.88563491 7.76266859 79.41051542 13.875 75.4375 C17.73560036 71.28735462 18.30644261 68.0297286 18.2109375 62.5859375 C17.64338188 58.95622132 16.56442078 56.95456559 13.625 54.75 C3.51720495 49.92582509 -10.5958912 51.51705088 -20.87890625 55.0859375 C-25.76762167 57.12143153 -30.45133579 59.46973475 -35.12890625 61.94921875 C-41.10000517 64.9153057 -47.92873195 65.77565134 -54.37890625 63.71875 C-62.05237221 60.1077072 -67.38165284 54.05736997 -70.375 46.125 C-71.95859855 38.33897378 -71.6577629 32.82833275 -67.703125 25.77734375 C-59.39204505 13.45472769 -41.97323103 6.88768785 -28.125 3.4375 C-27.30354492 3.18959717 -26.48208984 2.94169434 -25.63574219 2.6862793 C-17.09543344 0.25392201 -8.81258879 -0.08138903 0 0 Z M-20.125 13.4375 C-21.07117188 13.60894531 -22.01734375 13.78039062 -22.9921875 13.95703125 C-29.35804133 15.29403307 -35.06623898 17.57993948 -40.9375 20.3125 C-41.64293945 20.64008301 -42.34837891 20.96766602 -43.07519531 21.30517578 C-52.89801424 26.01042663 -52.89801424 26.01042663 -59.125 34.4375 C-59.83339075 39.21028268 -59.61572825 42.49109552 -57.375 46.8125 C-54.90840725 49.69019154 -52.81983215 51.95466991 -49.109375 53.01171875 C-42.13078768 53.36552825 -37.13879911 50.85584326 -31.18652344 47.54760742 C-21.91581153 42.43889817 -13.29761493 40.87340511 -2.75 40.9375 C-1.64744873 40.94394531 -0.54489746 40.95039063 0.59106445 40.95703125 C9.51909915 41.15809226 17.26495283 41.80944483 23.875 48.4453125 C29.55672046 55.57376734 29.5435737 62.55225244 28.875 71.4375 C27.21261232 78.69059274 22.89897641 83.28614547 16.875 87.4375 C11.0512789 90.69686654 5.28149939 91.54410045 -1.30859375 91.61328125 C-3.07106445 91.64905273 -3.07106445 91.64905273 -4.86914062 91.68554688 C-7.3272983 91.72844439 -9.78568651 91.75973358 -12.24414062 91.77929688 C-21.00550667 91.90822255 -21.00550667 91.90822255 -28.125 96.4375 C-31.0474897 100.82123454 -31.684524 104.21527599 -31.125 109.4375 C-29.38083626 114.11920268 -27.25464161 116.64999191 -23.125 119.4375 C-19.71978794 120.57257069 -17.02749461 120.59645697 -13.4375 120.6484375 C-12.08462416 120.67654646 -10.73175976 120.70521109 -9.37890625 120.734375 C-7.26416859 120.77527713 -5.14963529 120.81218925 -3.03466797 120.83886719 C8.18898253 120.99243447 18.58691463 121.53097498 27.875 128.4375 C28.535 128.4375 29.195 128.4375 29.875 128.4375 C34.57284484 137.11044432 36.6229159 144.89090758 34.03125 154.59765625 C31.46898973 161.58327801 28.61759862 166.11569774 21.875 169.4375 C6.69335045 176.32446798 -11.669696 174.92993822 -27.125 169.4375 C-31.0905715 167.77671932 -34.97082015 165.93848719 -38.85839844 164.10424805 C-44.3171009 161.60083649 -49.08852839 159.98381908 -55.125 161.4375 C-58.32884041 162.73266953 -59.7155657 163.95747358 -61.9375 166.5625 C-64.17502047 171.97965482 -63.78788568 176.60667288 -61.8125 182.0625 C-53.32162973 194.93287178 -33.18851979 198.55122431 -19.125 201.4375 C2.54541571 205.48620683 27.99490829 203.73605309 46.875 191.4375 C56.76020519 183.97776598 65.20088617 173.67860836 67.4609375 161.203125 C69.14910867 145.85032301 68.52775385 131.39300662 58.78125 118.65234375 C52.86667806 111.78028988 46.47841489 107.45355982 37.875 104.4375 C36.885 104.4375 35.895 104.4375 34.875 104.4375 C34.875 103.7775 34.875 103.1175 34.875 102.4375 C35.535 102.39625 36.195 102.355 36.875 102.3125 C46.61206317 99.47252324 54.07814582 89.93912916 58.875 81.4375 C63.77076294 69.96364631 65.1436292 55.61459276 60.90625 43.765625 C54.96908387 30.36202267 46.29416286 22.17534895 32.875 16.4375 C31.85986328 15.96183594 31.85986328 15.96183594 30.82421875 15.4765625 C15.73977696 8.95181466 -4.36333327 10.20697562 -20.125 13.4375 Z " fill="#FDF9FA" transform="translate(115.125,146.5625)"/>
<path d="M0 0 C9.66427174 8.78303116 16.6828212 21.69283522 17.73974609 34.84765625 C18.36420942 49.22126821 18.18534636 62.61041854 12.5078125 75.9609375 C12.23437012 76.62061523 11.96092773 77.28029297 11.67919922 77.95996094 C5.1712383 93.22991338 -5.21011091 105.93969037 -16.4921875 117.9609375 C-17.80683476 119.41501705 -19.12144156 120.86913361 -20.43504333 122.32415771 C-24.78549781 127.12608313 -29.25071537 131.77892594 -33.84765625 136.34375 C-34.3943396 136.88845947 -34.94102295 137.43316895 -35.50427246 137.99438477 C-36.83256127 139.31758991 -38.16222717 140.63941243 -39.4921875 141.9609375 C-38.6422673 141.96640594 -38.6422673 141.96640594 -37.775177 141.97198486 C-31.83669136 142.01404539 -25.89896174 142.08355309 -19.9609375 142.16845703 C-17.74975169 142.19654891 -15.53846766 142.21782158 -13.32714844 142.23193359 C-10.13425841 142.25352663 -6.9425348 142.30026099 -3.75 142.3515625 C-2.77354523 142.35279114 -1.79709045 142.35401978 -0.79104614 142.35528564 C6.83119554 142.515142 13.779236 144.07507992 19.91015625 148.8203125 C25.16035763 155.28620936 28.14999805 161.1265454 27.78515625 169.60546875 C26.79033562 178.05443835 24.07469496 184.40615497 17.5078125 189.9609375 C10.60731068 193.7982591 4.07858383 194.53855616 -3.68994141 194.46264648 C-5.29682579 194.47075096 -5.29682579 194.47075096 -6.93617249 194.47901917 C-10.44732003 194.49144033 -13.95763709 194.47506094 -17.46875 194.45703125 C-19.92394046 194.45718637 -22.37913116 194.45867746 -24.83432007 194.46144104 C-29.96680596 194.462822 -35.09901138 194.45031542 -40.23144531 194.42749023 C-46.7995901 194.39907699 -53.36727026 194.40185537 -59.9354496 194.41458035 C-65.00045723 194.42154453 -70.06535803 194.41374019 -75.13035202 194.40132332 C-77.55198125 194.39681816 -79.97362199 194.39646381 -82.39525223 194.40038872 C-85.78148055 194.40330887 -89.16707462 194.38675558 -92.55322266 194.36499023 C-94.04341164 194.37174271 -94.04341164 194.37174271 -95.56370544 194.37863159 C-104.13468918 194.28740009 -110.6204054 192.40825235 -117.0234375 186.5 C-122.85257164 180.39181157 -123.97807637 173.20093667 -123.796875 165.046875 C-122.58307301 152.75323951 -113.89742771 144.11493042 -105.421875 135.88671875 C-103.53284689 134.00151459 -101.78973776 132.05032801 -100.0546875 130.0234375 C-96.78088097 126.21269687 -93.25854779 122.71015585 -89.68359375 119.18359375 C-87.07117682 116.5339231 -84.65916129 113.74920947 -82.23828125 110.92578125 C-79.76737361 108.14531918 -77.1105181 105.56975532 -74.4609375 102.9609375 C-71.93127802 100.3911247 -69.60362335 97.67427932 -67.2578125 94.9375 C-65.49865082 92.96817298 -63.65108516 91.15947795 -61.7421875 89.3359375 C-51.39685583 79.07111425 -39.46996106 65.30880385 -39.2421875 50.0859375 C-39.21640625 49.05726563 -39.190625 48.02859375 -39.1640625 46.96875 C-39.61120466 42.86994686 -40.95083296 40.2236904 -44.15625 37.59765625 C-53.26874671 33.18662697 -64.98377937 33.53213501 -74.5546875 36.4609375 C-80.21115749 38.63107904 -85.62298014 41.39896549 -90.97485352 44.23046875 C-96.90223594 47.33991527 -101.79715806 48.52831288 -108.4921875 47.9609375 C-116.36994222 45.19997204 -121.21907333 40.0336782 -125.4921875 32.9609375 C-128.43623932 26.63863917 -128.68557666 19.87969446 -126.65234375 13.203125 C-121.04529559 0.85629167 -108.84505391 -5.58966858 -96.6796875 -10.2265625 C-65.25197949 -21.78260768 -26.7945272 -21.92279498 0 0 Z M-110.4921875 9.9609375 C-114.94931018 14.99583534 -115.79248461 17.88938293 -115.70703125 24.48828125 C-115.31736564 28.97297813 -113.29834227 31.10871675 -110.3046875 34.2734375 C-106.66079025 36.45977585 -103.60206679 36.57364991 -99.4921875 35.9609375 C-96.56105664 34.81397325 -93.9396142 33.2601663 -91.2421875 31.6484375 C-76.68250034 23.56425635 -61.36082711 21.75131148 -44.875 24.58203125 C-37.69567387 26.81935588 -33.10721605 31.35152828 -29.43164062 37.83032227 C-25.99819694 45.61713698 -27.6871418 58.10952426 -30.4296875 65.8359375 C-36.19599691 78.52181821 -45.1756988 88.20663059 -54.72558594 98.11328125 C-57.50568017 101.02093094 -60.21477563 103.99258204 -62.9296875 106.9609375 C-66.50602433 110.85484839 -70.14703048 114.65747433 -73.921875 118.359375 C-75.67131973 120.14363456 -77.29934332 122.00489874 -78.9296875 123.8984375 C-81.96898401 127.42728513 -85.20235597 130.69098777 -88.51953125 133.95703125 C-91.06789584 136.54576597 -93.4181375 139.2786307 -95.77734375 142.0390625 C-97.43430004 143.89606134 -99.17565126 145.57422765 -100.9921875 147.2734375 C-106.76412358 153.04537358 -111.87629226 159.342104 -112.1171875 167.7734375 C-111.78217715 172.12857202 -111.23724885 175.44382765 -108.4921875 178.9609375 C-102.59545479 183.10870409 -96.97230006 183.53389977 -89.94873047 183.46264648 C-88.92332153 183.46804947 -87.8979126 183.47345245 -86.84143066 183.47901917 C-83.47211316 183.49146602 -80.10365675 183.47504395 -76.734375 183.45703125 C-74.38363602 183.45718631 -72.03289678 183.4586764 -69.68215942 183.46144104 C-64.76471605 183.46282315 -59.84756502 183.45029615 -54.93017578 183.42749023 C-48.63081101 183.39907526 -42.33193062 183.40185413 -36.03252983 183.41458035 C-31.18205637 183.42153775 -26.33169469 183.41374796 -21.4812355 183.40132332 C-19.15843255 183.39681166 -16.83561759 183.39646952 -14.51281357 183.40038872 C-11.26724414 183.40330225 -8.02234069 183.38678736 -4.77685547 183.36499023 C-3.8198172 183.36949188 -2.86277893 183.37399353 -1.8767395 183.37863159 C3.33694054 183.32051732 6.99982283 182.88005195 11.5078125 179.9609375 C15.33553095 175.73724818 15.80821969 171.74847973 15.71875 166.24609375 C15.40623458 162.86051004 14.47892754 160.72049856 12.5078125 157.9609375 C7.94599108 155.14901557 4.44189056 154.57455409 -0.87451172 154.52856445 C-1.58739853 154.5183728 -2.30028534 154.50818115 -3.03477478 154.49768066 C-5.37222281 154.46768051 -7.70926018 154.45830501 -10.046875 154.44921875 C-11.67499133 154.43236237 -13.30309473 154.41421083 -14.93118286 154.39482117 C-19.202148 154.34741898 -23.47306066 154.31754656 -27.74420166 154.29138184 C-32.10821899 154.26152678 -36.47205571 154.21501349 -40.8359375 154.16992188 C-49.38793189 154.08400012 -57.93994291 154.0166056 -66.4921875 153.9609375 C-65.66944336 153.14399414 -64.84669922 152.32705078 -63.99902344 151.48535156 C-62.90813592 150.39915603 -61.81731935 149.31288924 -60.7265625 148.2265625 C-60.18563965 147.6898291 -59.6447168 147.1530957 -59.08740234 146.60009766 C-55.60768599 143.13097405 -52.31899555 139.55881909 -49.12890625 135.8203125 C-45.46222505 131.65482264 -41.41276502 127.84472234 -37.453125 123.9609375 C-33.47903906 120.03288344 -29.70944112 116.00481741 -26.06445312 111.76953125 C-24.02996929 109.42924301 -21.88238654 107.2044565 -19.7421875 104.9609375 C-3.42582335 86.95581724 7.59841108 65.79671311 6.7890625 41.04296875 C6.04663192 27.71943338 0.79559525 16.13620404 -8.93359375 6.96484375 C-13.40017962 3.46658642 -18.29589365 1.17668866 -23.4921875 -1.0390625 C-24.19214844 -1.35617188 -24.89210938 -1.67328125 -25.61328125 -2 C-51.42247135 -12.8387867 -88.19521337 -6.0669428 -110.4921875 9.9609375 Z " fill="#FDFAFB" transform="translate(329.4921875,164.0390625)"/>
</svg>
