<?xml version="1.0" encoding="UTF-8"?>
<svg version="1.1" xmlns="http://www.w3.org/2000/svg" width="512" height="512">
<path d="M0 0 C0.78649421 -0.0060911 1.57298843 -0.01218221 2.3833158 -0.01845789 C4.99777981 -0.03500075 7.61175212 -0.03032464 10.22625732 -0.0255127 C12.10942588 -0.0328582 13.99258994 -0.04144583 15.87574768 -0.05117798 C20.97719669 -0.07335466 26.07848397 -0.07632649 31.17997456 -0.07443047 C35.44656797 -0.07431056 39.71312737 -0.08288312 43.97971129 -0.09120798 C54.05133706 -0.11042914 64.12287996 -0.11333094 74.19451904 -0.10656738 C84.56467767 -0.09993109 94.9344802 -0.12277749 105.30456662 -0.15988111 C114.22460765 -0.19063177 123.14453447 -0.20193221 132.06462741 -0.1980443 C137.3847392 -0.19598194 142.70457398 -0.20137634 148.02463531 -0.22593689 C153.03170235 -0.24828949 158.03819301 -0.24625557 163.04526329 -0.22600937 C164.8753244 -0.22261409 166.70542496 -0.227624 168.53543282 -0.24199295 C181.07110767 -0.33357244 192.47797673 0.52211518 202.16668701 9.58190918 C202.91692139 10.25608887 203.66715576 10.93026855 204.44012451 11.62487793 C212.04826811 20.58529954 216.75439365 32.04223865 221.95965576 42.49987793 C222.84366522 44.26909292 223.72797396 46.0381584 224.61256409 47.80708313 C226.46324712 51.5100075 228.31125375 55.21425057 230.15716553 58.91955566 C232.48845966 63.59898038 234.82491996 68.27580052 237.16317558 72.9517498 C253.44749782 105.52145175 253.44749782 105.52145175 260.8266449 121.1158905 C264.60529722 129.07413708 268.53275305 136.95600866 272.47918701 144.83190918 C272.98564223 145.84268493 272.98564223 145.84268493 273.50232887 146.87388039 C275.9292464 151.71549805 278.3600657 156.55515261 280.79168701 161.39440918 C283.5651294 166.9139361 286.33690647 172.43428993 289.10418701 177.95690918 C289.43865404 178.62428101 289.77312107 179.29165283 290.11772346 179.97924805 C294.9221216 189.57316066 299.62085831 199.21178598 304.22160339 208.90539551 C307.97006714 216.80109286 311.88497309 224.60067412 315.88739014 232.37097168 C319.90456952 240.28796266 322.15962218 247.13056927 322.22918701 256.01940918 C322.26205811 256.73741699 322.2949292 257.4554248 322.32879639 258.19519043 C322.47736118 273.67294047 311.43810041 289.41456727 304.66668701 302.76940918 C302.49414209 307.06724164 300.32529002 311.36692151 298.15887451 315.66784668 C297.61914001 316.73863464 297.07940552 317.80942261 296.52331543 318.91265869 C293.07420185 325.77747504 289.71613283 332.67942632 286.42449951 339.62097168 C282.23462082 348.45277748 277.92181741 357.21838865 273.54168701 365.95690918 C273.22674412 366.58534351 272.91180122 367.21377785 272.58731461 367.86125565 C269.99932958 373.0233062 267.40609019 378.18271309 264.81268311 383.34204102 C257.76089063 397.3725732 250.7338683 411.40680667 243.99411011 425.59086609 C238.63675349 436.85361751 233.15817024 448.05615227 227.62134933 459.23159981 C225.96621088 462.57283566 224.31771755 465.91701644 222.68377686 469.26867676 C221.06451258 472.58980871 219.4291815 475.90257458 217.78271866 479.21030235 C217.17046641 480.4468707 216.56362715 481.68613777 215.96291733 482.92835426 C210.22095193 494.78373257 203.09556818 504.82568009 190.79168701 510.39440918 C185.69535331 512.09908636 181.06315524 512.68478898 175.72813416 512.66183472 C174.94516679 512.66636583 174.16219942 512.67089694 173.35550576 512.67556536 C170.74717641 512.68816662 168.139057 512.68659177 165.53070068 512.68493652 C163.65428908 512.69092444 161.77787993 512.69773059 159.901474 512.70529175 C154.81458922 512.72293196 149.72777177 512.72764629 144.64085937 512.72892332 C141.45989456 512.73034657 138.27894679 512.73461947 135.09798622 512.73991776 C123.99253887 512.75841134 112.88713948 512.76658919 101.78167725 512.76501465 C91.4427973 512.76381337 81.10412614 512.78491488 70.76529902 512.81650198 C61.87759173 512.84268442 52.98995255 512.85338112 44.10220701 512.85210383 C38.79894592 512.85159479 33.49587047 512.85724621 28.19264793 512.87845993 C23.20291137 512.89787547 18.21353691 512.89794406 13.22378731 512.88342667 C11.39772384 512.88134161 9.5716375 512.88602133 7.7456131 512.89814758 C-4.52040519 512.97429585 -14.99294947 512.39034822 -24.38409424 503.58972168 C-30.80244578 495.86570977 -33.34939776 487.42065208 -33.30596924 477.56237793 C-33.30274658 476.27009277 -33.29952393 474.97780762 -33.29620361 473.6463623 C-33.28784964 472.29154392 -33.27938471 470.93672621 -33.27081299 469.58190918 C-33.26579299 468.20756183 -33.26123096 466.83321273 -33.25714111 465.4588623 C-33.24536967 462.10399994 -33.22892582 458.74922697 -33.20831299 455.39440918 C-33.8733122 455.39809635 -34.53831141 455.40178352 -35.2234621 455.40558243 C-51.44201059 455.49411369 -67.66048204 455.5602061 -83.87921619 455.60165787 C-91.72264626 455.62223905 -99.56591454 455.65027399 -107.40924072 455.69616699 C-114.24950245 455.7361716 -121.08964694 455.76187426 -127.93002242 455.77076316 C-131.54836819 455.77595502 -135.16637869 455.78806343 -138.78461647 455.81732941 C-142.83460671 455.84981859 -146.88402275 455.85035992 -150.93414307 455.84851074 C-152.11954178 455.86289185 -153.30494049 455.87727295 -154.52626038 455.89208984 C-164.6750002 455.84214742 -173.87891632 453.75769366 -181.41925049 446.58972168 C-187.49416438 439.13535136 -190.32202364 430.8930761 -190.34812069 421.39346218 C-190.35381193 420.18216906 -190.35950317 418.97087594 -190.36536688 417.72287697 C-190.36665939 416.38205947 -190.36784743 415.04124187 -190.36894226 413.70042419 C-190.37367525 412.2733541 -190.37882644 410.84628534 -190.3843599 409.41921812 C-190.39824822 405.49733916 -190.40584452 401.57546947 -190.41233289 397.6535722 C-190.41871015 394.28969933 -190.42877933 390.92584162 -190.43889355 387.56197821 C-190.47219381 376.48061204 -190.49373375 365.39923664 -190.51209339 354.31783685 C-190.51688998 351.43183728 -190.5218731 348.54583809 -190.52689862 345.65983891 C-190.5578695 327.73188435 -190.58454996 309.80392653 -190.60131741 291.87595272 C-190.60526679 287.72463411 -190.6092698 283.57331556 -190.61334229 279.42199707 C-190.61435065 278.39022898 -190.61535901 277.35846088 -190.61639792 276.29542709 C-190.63340182 259.58457411 -190.67450937 242.87386928 -190.72536527 226.16308861 C-190.77716666 209.00024449 -190.8062629 191.83747652 -190.81351429 174.67455488 C-190.81817313 165.04070612 -190.83288879 155.40710006 -190.87325859 145.77332878 C-190.90760074 137.56812698 -190.92148093 129.36321171 -190.90883445 121.15794217 C-190.90301751 116.97401282 -190.90680279 112.79068914 -190.93700409 108.60685158 C-190.9644726 104.77016015 -190.96378973 100.93450162 -190.94149364 97.09778614 C-190.93677491 95.06585354 -190.96145013 93.0339168 -190.98746294 91.00214523 C-190.88056608 80.54008496 -188.05634904 71.89892115 -180.52081299 64.39440918 C-171.9155714 57.70735111 -162.39965478 56.81323014 -151.84234619 56.94030762 C-149.90872978 56.93943146 -149.90872978 56.93943146 -147.93605042 56.9385376 C-144.43658382 56.93740024 -140.93767711 56.96074833 -137.43833947 56.98883343 C-133.76820304 57.01401247 -130.09805066 57.01620197 -126.42784119 57.02093506 C-119.4936387 57.03331677 -112.55969156 57.06607243 -105.62560099 57.10633302 C-97.724686 57.15120135 -89.82375815 57.17307544 -81.92274725 57.19311476 C-65.68445356 57.23481005 -49.44641597 57.30506737 -33.20831299 57.39440918 C-33.23187866 56.15521729 -33.23187866 56.15521729 -33.25592041 54.89099121 C-33.30754036 51.77854806 -33.3448992 48.6663256 -33.37310791 45.55358887 C-33.39532777 43.56288013 -33.43347893 41.5723695 -33.47198486 39.58190918 C-33.56023197 27.93329124 -31.89115343 18.44732727 -24.20831299 9.39440918 C-17.24648538 2.79292461 -9.54678782 -0.07069779 0 0 Z " fill="#D62E57" transform="translate(190.20831298828125,-0.3944091796875)"/>
<path d="M0 0 C1.12544843 -0.00807831 1.12544843 -0.00807831 2.27363318 -0.01631981 C4.77151527 -0.0305532 7.26886395 -0.02350725 9.76676941 -0.01637268 C11.56436588 -0.02207876 13.36195874 -0.02904395 15.1595459 -0.03717041 C20.03160065 -0.05509296 24.90347519 -0.05393483 29.77555299 -0.04822803 C33.84842778 -0.04513413 37.92126806 -0.05123104 41.99413794 -0.05726677 C51.60685428 -0.07130813 61.21948174 -0.06975461 70.8321991 -0.05836487 C80.7348415 -0.04689055 90.63721286 -0.06094871 100.53981954 -0.08776134 C109.05386629 -0.10994749 117.56782814 -0.11654896 126.08190173 -0.11068493 C131.16158868 -0.10732034 136.24110201 -0.10969701 141.32076454 -0.12693596 C146.10040465 -0.14244892 150.87964478 -0.13840137 155.65926933 -0.11963081 C157.4079239 -0.11595662 159.15660838 -0.11901912 160.90523529 -0.1295166 C173.27134009 -0.19805331 183.64917745 0.72098465 193.00218201 9.64424133 C198.0404585 15.82044803 201.2398272 23.16487677 204.70109558 30.2978363 C205.57939897 32.07061224 206.45944919 33.84252368 207.34114075 35.61361694 C209.65307978 40.26985422 211.94048125 44.93773373 214.2230072 49.60844421 C216.51288706 54.28267439 218.82702903 58.94485143 221.13859558 63.60838318 C228.633063 78.74885573 236.0589568 93.91994323 243.29969788 109.18359375 C249.5710778 122.35309273 256.19041569 135.35512178 262.74015808 148.38768005 C265.41985996 153.71970211 268.0979234 159.05253749 270.77140808 164.38768005 C271.09565388 165.03465096 271.41989967 165.68162186 271.7539711 166.34819794 C276.43871995 175.70345599 281.01681896 185.10514831 285.50379944 194.55705261 C289.5044917 202.97851504 293.66179513 211.31595234 297.86515808 219.63768005 C299.25552561 222.39171396 300.64311917 225.14712209 302.02922058 227.90330505 C302.33953217 228.51562988 302.64984375 229.12795471 302.96955872 229.75883484 C305.51664628 234.82346286 306.46280168 238.64697404 306.61515808 244.32518005 C306.66414246 245.55107849 306.71312683 246.77697693 306.76359558 248.0400238 C306.14982294 258.52925276 299.00258808 269.12445654 294.35734558 278.3134613 C293.69539676 279.63105572 293.03387719 280.94886586 292.37275696 282.26687622 C290.64113361 285.71693973 288.90506769 289.16474528 287.16758728 292.61186218 C284.07978506 298.73893711 280.99815062 304.86911012 277.91984558 311.0009613 C277.58468178 311.66827396 277.24951797 312.33558662 276.90419769 313.02312088 C272.28196974 322.23187291 267.76794941 331.48586602 263.35499573 340.79693604 C259.73284722 348.41573121 255.98910061 355.97140989 252.20890808 363.51268005 C251.90468052 364.11968939 251.60045296 364.72669872 251.28700638 365.35210228 C248.7941015 370.32400649 246.2959309 375.29326071 243.79759216 380.26243591 C235.91467701 395.94345424 228.14495395 411.66661598 220.60820007 427.51786804 C216.67525036 435.76821883 212.68692419 443.99080351 208.65080261 452.19114685 C207.61572817 454.30358734 206.58853836 456.41990722 205.56877136 458.53977966 C204.05922103 461.67468734 202.52366157 464.79563545 200.98234558 467.9150238 C200.53833405 468.85152267 200.09432251 469.78802155 199.63685608 470.75289917 C194.89755264 480.20513422 188.6575328 486.13915337 178.61264038 489.58914089 C171.66125903 491.23509475 164.54525678 490.94184994 157.44303894 490.90525818 C155.66455515 490.91068734 153.88607586 490.91781444 152.10760498 490.92649841 C147.30597167 490.94463894 142.50468449 490.93770311 137.70304561 490.92498207 C132.66288157 490.91480772 127.62274585 490.92425987 122.58258057 490.93052673 C114.12195043 490.9377896 105.66146029 490.92825053 97.20085144 490.90916443 C87.43671486 490.8873913 77.67291237 490.89445579 67.90878385 490.91647005 C59.50504933 490.93465449 51.10141504 490.93716772 42.69766718 490.92671537 C37.68735536 490.92049807 32.67720031 490.91959626 27.66689873 490.93286133 C22.95613111 490.94446385 18.24579202 490.93631407 13.53507042 490.9132843 C11.81221984 490.90802095 10.08933285 490.90947005 8.36649704 490.91833496 C-11.26268382 491.00998269 -11.26268382 491.00998269 -18.35464573 485.04668427 C-24.23146756 478.60608501 -25.2021082 472.03428824 -25.05281067 463.7353363 C-25.04644341 462.38513649 -25.04644341 462.38513649 -25.03994751 461.00765991 C-25.02326007 458.15485219 -24.98562689 455.30277142 -24.94734192 452.45018005 C-24.93228222 450.50683094 -24.91859607 448.56347066 -24.90632629 446.62010193 C-24.87338918 441.87568456 -24.82167632 437.13180523 -24.75984192 432.38768005 C-23.92200417 432.3852917 -23.08416641 432.38290335 -22.22093964 432.38044262 C-1.8223793 432.32127348 18.57606308 432.24571106 38.97449493 432.15196514 C48.83908011 432.10702423 58.70362932 432.0676056 68.56828308 432.04124451 C77.16760534 432.01825066 85.76681363 431.98483706 94.36604548 431.93897849 C98.91810954 431.91506503 103.47006086 431.89632394 108.02218628 431.89006615 C112.31007592 431.88400682 116.59767714 431.86397635 120.8854599 431.83340454 C122.45593511 431.82463791 124.02644804 431.82089888 125.59694672 431.82267189 C138.61382594 431.9700979 138.61382594 431.9700979 149.96672058 426.1962738 C152.71423674 422.80200556 154.65610861 419.33898322 156.61515808 415.45018005 C157.23982971 414.23636658 157.23982971 414.23636658 157.87712097 412.99803162 C159.34409958 410.13416894 160.79301767 407.26161682 162.24015808 404.38768005 C162.81653015 403.2486322 163.39290222 402.10958435 163.98674011 400.9360199 C165.89024723 397.17318242 167.78564787 393.40630987 169.67765808 389.63768005 C170.26144226 388.47502625 170.84522644 387.31237244 171.44670105 386.11448669 C174.67471017 379.65674505 177.82911472 373.16777324 180.92718506 366.64665222 C185.67619886 356.65249671 190.53247188 346.7171228 195.49015808 336.82518005 C195.80461946 336.19768608 196.11908085 335.57019211 196.44307137 334.92368317 C199.03154193 329.76068238 201.62527567 324.60032954 204.21916199 319.44004822 C206.47857256 314.94463335 208.73590814 310.44818513 210.99015808 305.95018005 C211.30218863 305.32772274 211.61421917 304.70526543 211.93570518 304.06394577 C216.62280372 294.70604358 221.20904127 285.30339009 225.68070984 275.84031677 C228.6431587 269.57768155 231.72222848 263.38635529 234.98977661 257.27674866 C238.09948294 251.28455846 238.28585934 244.96566673 237.24015808 238.38768005 C235.27704526 232.99172125 232.66798598 228.04765342 229.92765808 223.01268005 C228.90199557 221.0731118 227.88409515 219.12960569 226.86665344 217.18571472 C226.15269288 215.82264451 225.43585912 214.46107612 224.71644592 213.10087585 C221.72684637 207.41883793 218.94382194 201.65138206 216.19718933 195.84861755 C211.76220812 186.49074757 207.1933807 177.20711911 202.55265808 167.95018005 C202.21612024 167.27861248 201.87958241 166.60704491 201.53284645 165.9151268 C199.10481104 161.07120688 196.6729284 156.2292233 194.24015808 151.38768005 C191.46671572 145.86815319 188.69488134 140.34782797 185.92765808 134.82518005 C185.59285872 134.15708124 185.25805935 133.48898243 184.91311455 132.8006382 C179.69046768 122.37034469 174.60697754 111.87987754 169.60392761 101.3422699 C166.38963018 94.58041362 163.04576558 87.88658231 159.67765808 81.20018005 C159.0700366 79.9899938 158.46261558 78.77970687 157.85539246 77.56932068 C156.76383424 75.39476069 155.6714402 73.22061983 154.57780457 71.04710388 C153.752858 69.4069975 152.9440527 67.75851481 152.16227722 66.09739685 C150.88233279 63.72423008 149.75018572 63.37848044 147.24015808 62.38768005 C146.20040833 61.88226181 145.16065857 61.37684357 144.08940125 60.85610962 C137.44299513 58.39304969 130.26592894 58.94741719 123.27726746 58.95530701 C121.66033686 58.94628105 120.0434131 58.93595179 118.42649841 58.92442322 C114.05519247 58.89692492 109.68401662 58.88757848 105.31263542 58.88156915 C100.7375209 58.87216677 96.16250282 58.84596188 91.58744812 58.82156372 C82.93207133 58.77794625 74.27671331 58.74937011 65.62126017 58.72624034 C55.76389094 58.69916317 45.90661897 58.65525322 36.04931927 58.60995162 C15.77965124 58.51717342 -4.4900459 58.44546145 -24.75984192 58.38768005 C-24.85917907 52.55276887 -24.93153128 46.71835669 -24.97956848 40.88279724 C-24.99960689 38.90028807 -25.02684545 36.91783742 -25.06159973 34.93553162 C-25.11046146 32.07568364 -25.13288865 29.21662125 -25.15046692 26.35643005 C-25.17111206 25.47902161 -25.1917572 24.60161316 -25.21302795 23.69761658 C-25.21515889 17.77106092 -24.1145148 13.3319967 -20.75984192 8.38768005 C-14.61782703 2.24566516 -8.53405962 -0.07447124 0 0 Z " fill="#E0DFE9" transform="translate(193.7598419189453,10.612319946289063)"/>
<path d="M0 0 C0.95669586 -0.00686325 1.91339172 -0.0137265 2.89907837 -0.02079773 C6.0573008 -0.03907885 9.21502709 -0.03522626 12.37329102 -0.02954102 C14.57137717 -0.03410219 16.7694619 -0.03940757 18.96754456 -0.04542542 C23.57331131 -0.05435913 28.1789047 -0.05193036 32.78466797 -0.04199219 C38.68399719 -0.03050263 44.58272783 -0.05071291 50.48197842 -0.07990932 C55.02106013 -0.09826423 59.55999823 -0.09798024 64.09910774 -0.0922718 C66.27399599 -0.0921185 68.44889393 -0.09817019 70.62374687 -0.11056328 C73.66621212 -0.12545754 76.70756919 -0.11480711 79.75 -0.09765625 C80.64629623 -0.10732422 81.54259247 -0.11699219 82.46604919 -0.12695312 C87.93623598 -0.06245306 91.12396714 0.71922011 95.43969727 4.40405273 C98.36218696 8.78778728 98.99922127 12.18182873 98.43969727 17.40405273 C96.69553352 22.08575541 94.56933888 24.61654465 90.43969727 27.40405273 C86.90787369 28.58132726 84.12633464 28.52399531 80.39794922 28.51757812 C79.32927612 28.51779716 79.32927612 28.51779716 78.23901367 28.51802063 C75.88530426 28.51732424 73.53167409 28.50954466 71.17797852 28.50170898 C69.54558862 28.49984383 67.91319816 28.49842039 66.2808075 28.49742126 C61.98508152 28.49360375 57.68938937 28.48377998 53.39367676 28.47271729 C48.23914031 28.46068789 43.08459255 28.45609728 37.93004608 28.45026398 C30.09990628 28.44056783 22.26984071 28.42140592 14.43969727 28.40405273 C14.76969727 44.57405273 15.09969727 60.74405273 15.43969727 77.40405273 C20.05969727 75.09405273 24.67969727 72.78405273 29.43969727 70.40405273 C35.91782948 68.19200759 42.04115577 68.10085738 48.81469727 68.15405273 C49.79180664 68.14631836 50.76891602 68.13858398 51.77563477 68.13061523 C61.13963121 68.15551948 69.59813993 69.30025462 77.87719727 73.84155273 C78.51407471 74.19080811 79.15095215 74.54006348 79.80712891 74.89990234 C92.77761259 82.37742607 100.89460754 93.8645968 105.59594727 107.84155273 C110.3788597 126.97320249 107.54030551 145.59274121 97.65356445 162.5324707 C88.86361896 176.08510991 73.75169141 183.71783192 58.43969727 187.40405273 C32.30187175 191.33045854 4.46769328 187.74809218 -17.56030273 172.40405273 C-22.17566421 167.21755957 -22.96061201 164.0162476 -22.91577148 157.17358398 C-22.3614307 152.85459917 -20.74905752 151.29617917 -17.56030273 148.40405273 C-13.81807306 145.90923295 -10.89337748 145.80371612 -6.56030273 146.40405273 C-3.68162021 147.38597183 -1.05903478 148.73657951 1.62719727 150.15405273 C16.42452619 157.53647424 33.10447797 162.31789609 49.75219727 158.71655273 C59.19841881 155.35433829 66.91193719 151.53516775 71.53344727 142.19311523 C74.5682654 133.7349647 75.25690945 122.88669775 71.87719727 114.46655273 C67.32056539 106.03598992 61.43440691 100.77345361 52.43969727 97.40405273 C39.9728182 94.20061572 27.7420941 96.49974783 16.80297852 102.87280273 C13.07847839 105.28603257 9.54224732 107.93967601 6.01782227 110.63452148 C1.17190599 113.9605822 -2.68199083 114.91969413 -8.56030273 114.40405273 C-12.71787827 112.80498522 -15.27251413 111.25717038 -17.56030273 107.40405273 C-18.87753819 103.45234637 -18.72437855 99.66633385 -18.73730469 95.5456543 C-18.74387589 94.63962463 -18.75044708 93.73359497 -18.75721741 92.80010986 C-18.77694613 89.79829832 -18.78861229 86.7965368 -18.79858398 83.79467773 C-18.80265951 82.76910515 -18.80673504 81.74353256 -18.81093407 80.68688202 C-18.83179332 75.25829774 -18.84609549 69.82973873 -18.85546875 64.40112305 C-18.86653083 58.79782616 -18.90092904 53.19492664 -18.94064045 47.59177017 C-18.96680263 43.28000151 -18.97516026 38.96832757 -18.97875023 34.65648651 C-18.98361746 32.59125842 -18.99523529 30.52603459 -19.01378822 28.46088409 C-19.03817006 25.56694677 -19.03721622 22.67403817 -19.03027344 19.7800293 C-19.0430835 18.93093994 -19.05589355 18.08185059 -19.0690918 17.20703125 C-19.0189894 11.46200525 -17.99265721 8.06671637 -14.56030273 3.40405273 C-10.23014411 -0.44282501 -5.50174534 -0.02757025 0 0 Z " fill="#B72B4F" transform="translate(160.560302734375,160.595947265625)"/>
<path d="M0 0 C1.4284726 -0.01029488 1.4284726 -0.01029488 2.88580322 -0.02079773 C6.01329739 -0.03900107 9.14028682 -0.03523746 12.26782227 -0.02954102 C14.45443382 -0.03410583 16.64104393 -0.0394123 18.82765198 -0.04542542 C23.40290162 -0.05434379 27.97797659 -0.05194773 32.55322266 -0.04199219 C38.40172682 -0.030503 44.24962715 -0.05072021 50.09805202 -0.07990932 C54.61151426 -0.09829911 59.12483252 -0.09797331 63.63832283 -0.0922718 C65.79398508 -0.09211894 67.94965731 -0.09813447 70.10528374 -0.11056328 C73.12525659 -0.12552413 76.14412307 -0.11475849 79.1640625 -0.09765625 C80.04485977 -0.10732422 80.92565704 -0.11699219 81.83314514 -0.12695312 C90.24235124 -0.02777335 97.45489841 2.89100303 103.63891602 8.65795898 C108.67344029 14.48809461 109.82931652 20.85673495 109.52172852 28.41186523 C108.52200835 36.38879909 105.62577052 41.72554413 99.53735352 46.93139648 C91.42900514 51.92624508 83.8673313 51.80674097 74.58422852 51.69702148 C73.1831915 51.69141661 71.78214855 51.68715073 70.38110352 51.68415833 C66.71823498 51.67277954 63.05573117 51.64337392 59.39300537 51.61004639 C55.64559867 51.5791939 51.89813224 51.56562077 48.15063477 51.55053711 C40.81581491 51.51849613 33.48136957 51.46578681 26.14672852 51.40405273 C26.14672852 58.00405273 26.14672852 64.60405273 26.14672852 71.40405273 C29.11672852 70.41405273 29.11672852 70.41405273 32.14672852 69.40405273 C53.53180648 65.89830225 74.68035544 69.14803671 92.56176758 81.83544922 C106.79373678 92.40598358 115.52372139 109.04010487 118.14672852 126.40405273 C118.43568487 130.34614649 118.48098578 134.26492973 118.45922852 138.21655273 C118.45185669 139.80258301 118.45185669 139.80258301 118.44433594 141.4206543 C118.32837181 149.15397521 117.69378851 156.04928913 115.14672852 163.40405273 C114.79481445 164.42370117 114.44290039 165.44334961 114.08032227 166.49389648 C111.38307491 173.55302899 107.76972811 179.45129146 103.14672852 185.40405273 C102.6865332 186.02924805 102.22633789 186.65444336 101.75219727 187.29858398 C90.33912923 201.86915788 70.95464474 209.21232 53.20922852 212.02905273 C27.03061619 214.47904418 -1.60539001 209.95729472 -23.49389648 194.54467773 C-29.78601873 189.27793837 -34.16247476 183.2343771 -35.14624023 174.93139648 C-35.52232968 167.70438039 -34.05208321 162.32467935 -29.85327148 156.40405273 C-24.32200124 150.48942712 -19.50234814 147.12217397 -11.29077148 146.71655273 C-2.54250678 146.55404289 4.09778217 150.31802499 11.72094727 154.20092773 C23.2174595 160.042425 37.58221829 161.66166555 50.22485352 158.67749023 C55.82411111 156.3969979 58.88737828 153.17462325 61.39672852 147.65405273 C63.01716751 140.63215044 62.87183357 133.7464249 59.14672852 127.40405273 C55.32814953 123.18971066 51.23464907 120.57975752 45.57250977 120.10327148 C32.21692546 119.90354664 25.2261186 122.41930336 14.73339844 130.40844727 C7.27686942 135.98561227 0.25291973 138.10991138 -9.11108398 137.81811523 C-15.17011444 136.9032189 -20.67294045 134.10168899 -24.79077148 129.52905273 C-29.28378856 122.7214511 -30.29945388 117.60108742 -30.27319336 109.58837891 C-30.2816629 108.62806259 -30.29013245 107.66774628 -30.29885864 106.67832947 C-30.32217191 103.51775706 -30.32325202 100.35767322 -30.32202148 97.19702148 C-30.3291272 94.98895576 -30.3368268 92.78089188 -30.34509277 90.5728302 C-30.35852513 85.94872911 -30.36011222 81.32479871 -30.35424805 76.70068359 C-30.34835767 70.7927363 -30.37892278 64.88561239 -30.41936493 58.97782421 C-30.44529361 54.41799046 -30.44811454 49.8583535 -30.44447327 45.29845619 C-30.44616011 43.12127936 -30.4557604 40.94409301 -30.47361755 38.76698875 C-30.49590585 35.71341245 -30.48605431 32.6614838 -30.46850586 29.60791016 C-30.4817691 28.71978638 -30.49503235 27.8316626 -30.50869751 26.91662598 C-30.41065227 19.52486903 -28.12151117 13.0451418 -23.12715912 7.48102093 C-16.47949349 1.13472956 -8.8254641 -0.04500245 0 0 Z M-15.85327148 16.40405273 C-19.2712371 21.34256076 -19.28290137 25.83146852 -19.24145508 31.61889648 C-19.24671204 32.52697052 -19.25196899 33.43504456 -19.25738525 34.37063599 C-19.27054862 37.36111848 -19.26186006 40.35106518 -19.25170898 43.34155273 C-19.25373077 45.42610781 -19.25664308 47.51066219 -19.26040649 49.59521484 C-19.26482489 53.95962268 -19.25841428 58.32384606 -19.24438477 62.68823242 C-19.2272933 68.27693871 -19.23713706 73.86521276 -19.25510216 79.4539032 C-19.265953 83.7570724 -19.26248765 88.06013946 -19.25471878 92.36331177 C-19.25272038 94.42375744 -19.25516339 96.48421245 -19.26215744 98.54464722 C-19.2697932 101.42641699 -19.25813772 104.30749091 -19.24145508 107.18920898 C-19.25056412 108.46116623 -19.25056412 108.46116623 -19.25985718 109.75881958 C-19.20681573 114.71535329 -18.57106101 118.09604571 -15.85327148 122.40405273 C-12.70865113 125.25386493 -10.02148257 126.26100648 -5.79077148 126.77905273 C2.51738518 125.98779972 8.67369864 121.15454701 14.99438477 116.04467773 C24.61325258 108.71269138 35.35380713 107.54277196 47.14672852 108.40405273 C57.23174605 110.256127 64.13154081 115.18633418 70.14672852 123.40405273 C74.85927217 130.92089173 73.96900523 140.88516845 72.71313477 149.31420898 C70.83118271 156.87708463 66.8601246 162.11926882 60.23266602 166.19702148 C46.19332719 173.53022452 31.10015023 172.69845645 16.14672852 168.40405273 C9.7683361 166.28035457 3.75072185 163.78013616 -2.16577148 160.59155273 C-6.8187076 158.22743956 -9.65906323 157.46739223 -14.85327148 158.40405273 C-18.16557245 160.51596556 -21.07942019 162.85635014 -22.85327148 166.40405273 C-23.36132619 171.50125732 -23.47191622 175.97848008 -21.41577148 180.71655273 C-8.61164995 194.14526556 12.55305577 199.73304768 30.66015625 200.51220703 C46.05500613 200.97343469 46.05500613 200.97343469 61.14672852 198.40405273 C62.13672852 198.12432617 63.12672852 197.84459961 64.14672852 197.55639648 C75.59739134 194.02100434 83.59654293 188.77854957 92.14672852 180.40405273 C92.99750977 179.60741211 92.99750977 179.60741211 93.86547852 178.79467773 C104.55624402 167.76271759 107.54213484 152.02367637 107.44335938 137.28637695 C107.04510694 121.21297547 102.05764661 107.30672368 91.08422852 95.46655273 C86.90524379 91.57777528 82.56427333 88.57254505 77.58422852 85.84155273 C76.99569092 85.51872314 76.40715332 85.19589355 75.80078125 84.86328125 C62.70241603 78.24684016 43.67153744 78.03812558 29.77172852 82.09155273 C24.44859477 83.95541657 20.22300921 86.5838968 15.14672852 89.40405273 C14.81672852 73.23405273 14.48672852 57.06405273 14.14672852 40.40405273 C21.9468457 40.45625977 21.9468457 40.45625977 29.90454102 40.50952148 C33.20403145 40.52485482 36.5034778 40.539297 39.80297852 40.55053711 C45.0371211 40.56845243 50.27110586 40.58961894 55.50512695 40.63037109 C59.72616172 40.66302948 63.94702717 40.6809194 68.16817856 40.68868446 C69.77649474 40.69421636 71.38480194 40.70501888 72.99304581 40.7212429 C75.25036711 40.74310381 77.50699373 40.74601612 79.7644043 40.74462891 C81.04791779 40.75129074 82.33143127 40.75795258 83.65383911 40.76481628 C88.75055395 40.23840141 91.9906988 38.65381459 95.45922852 34.90405273 C98.29070301 30.70927571 98.4843623 27.38415102 98.14672852 22.40405273 C96.30288722 17.17983573 94.00225223 14.98894056 89.14672852 12.40405273 C85.91687353 11.83876215 82.74555008 11.85685837 79.47290039 11.88647461 C78.03763756 11.87596069 78.03763756 11.87596069 76.57337952 11.86523438 C73.42044789 11.84767466 70.26841878 11.85927029 67.11547852 11.87280273 C64.91882149 11.87010725 62.72216564 11.86622436 60.5255127 11.86120605 C55.92566549 11.85531373 51.32612936 11.86386568 46.72631836 11.88256836 C40.83483875 11.90535742 34.94408807 11.89223296 29.05263519 11.8682785 C24.51782759 11.85381355 19.98319235 11.85842979 15.44837952 11.86878967 C13.27629001 11.87145501 11.10418478 11.868194 8.93211365 11.85887146 C5.89450725 11.84869471 2.8580757 11.86422348 -0.17944336 11.88647461 C-1.07416855 11.87837769 -1.96889374 11.87028076 -2.89073181 11.86193848 C-8.32611841 11.935574 -11.66450857 12.60488694 -15.85327148 16.40405273 Z " fill="#FDFAFA" transform="translate(160.853271484375,148.595947265625)"/>
</svg>
