<?xml version="1.0" encoding="UTF-8"?>
<svg version="1.1" xmlns="http://www.w3.org/2000/svg" width="512" height="512">
<path d="M0 0 C1.01790619 0.00215515 2.03581238 0.0043103 3.08456421 0.00653076 C17.69363523 0.05620146 32.02575853 0.30709809 46.375 3.3125 C47.34985352 3.51117676 48.32470703 3.70985352 49.32910156 3.91455078 C97.7109774 14.03517194 141.69928269 35.9516877 177.375 70.3125 C178.3640332 71.26068604 178.3640332 71.26068604 179.37304688 72.22802734 C188.86130305 81.37247479 197.6012044 90.66984009 205.375 101.3125 C206.23306152 102.46355017 207.09113451 103.61459177 207.94921875 104.765625 C213.98736829 112.95680614 219.34595521 121.47054105 224.375 130.3125 C224.73948242 130.94430176 225.10396484 131.57610352 225.47949219 132.22705078 C247.08534998 169.97532572 256.85198095 212.74189997 256.6875 255.9375 C256.68534485 256.95540619 256.6831897 257.97331238 256.68096924 259.02206421 C256.63129854 273.63113523 256.38040191 287.96325853 253.375 302.3125 C253.07698486 303.77478027 253.07698486 303.77478027 252.77294922 305.26660156 C242.65232806 353.6484774 220.7358123 397.63678269 186.375 433.3125 C185.74287598 433.97185547 185.11075195 434.63121094 184.45947266 435.31054688 C175.31502521 444.79880305 166.01765991 453.5387044 155.375 461.3125 C154.22394983 462.17056152 153.07290823 463.02863451 151.921875 463.88671875 C143.73224019 469.92427396 135.22961724 475.30707302 126.375 480.3125 C125.66778809 480.7146875 124.96057617 481.116875 124.23193359 481.53125 C101.09654164 494.5566741 75.92537591 503.30551461 49.9375 508.625 C49.21860596 508.77235596 48.49971191 508.91971191 47.7590332 509.0715332 C33.08339502 511.86090125 18.55831162 512.66142619 3.64770508 512.62817383 C0.70811513 512.6250221 -2.2304558 512.64854926 -5.16992188 512.67382812 C-18.54306192 512.71848737 -31.43916711 511.51301542 -44.625 509.3125 C-46.33055054 509.03031616 -46.33055054 509.03031616 -48.07055664 508.74243164 C-91.33802759 500.97044532 -132.38793216 480.98345309 -165.625 452.3125 C-166.37007813 451.67828125 -167.11515625 451.0440625 -167.8828125 450.390625 C-181.38779833 438.57948485 -194.05918743 425.82889772 -204.625 411.3125 C-205.48149066 410.16255169 -206.33826433 409.01281411 -207.1953125 407.86328125 C-213.23534209 399.67315742 -218.61867614 391.16870382 -223.625 382.3125 C-224.0271875 381.60528809 -224.429375 380.89807617 -224.84375 380.16943359 C-237.8691741 357.03404164 -246.61801461 331.86287591 -251.9375 305.875 C-252.08485596 305.15610596 -252.23221191 304.43721191 -252.3840332 303.6965332 C-255.35789088 288.05024391 -255.99800362 272.57681954 -255.9375 256.6875 C-255.93534485 255.66959381 -255.9331897 254.65168762 -255.93096924 253.60293579 C-255.88129854 238.99386477 -255.63040191 224.66174147 -252.625 210.3125 C-252.42632324 209.33764648 -252.22764648 208.36279297 -252.02294922 207.35839844 C-241.90232806 158.9765226 -219.9858123 114.98821731 -185.625 79.3125 C-184.99287598 78.65314453 -184.36075195 77.99378906 -183.70947266 77.31445312 C-174.56502521 67.82619695 -165.26765991 59.0862956 -154.625 51.3125 C-153.47394983 50.45443848 -152.32290823 49.59636549 -151.171875 48.73828125 C-142.98224019 42.70072604 -134.47961724 37.31792698 -125.625 32.3125 C-124.91778809 31.9103125 -124.21057617 31.508125 -123.48193359 31.09375 C-100.34654164 18.0683259 -75.17537591 9.31948539 -49.1875 4 C-48.46860596 3.85264404 -47.74971191 3.70528809 -47.0090332 3.5534668 C-31.36274391 0.57960912 -15.88931954 -0.06050362 0 0 Z " fill="#B82AF6" transform="translate(255.625,-0.3125)"/>
<path d="M0 0 C1.49055908 -0.01279495 1.49055908 -0.01279495 3.01123047 -0.02584839 C4.09028152 -0.02494202 5.16933258 -0.02403564 6.28108215 -0.02310181 C7.99909531 -0.03317764 7.99909531 -0.03317764 9.7518158 -0.04345703 C13.54001704 -0.06246131 17.32804127 -0.0663628 21.11628723 -0.06851196 C23.75319491 -0.07493927 26.39010188 -0.08166758 29.02700806 -0.08868408 C34.5575119 -0.10146681 40.08796788 -0.10445001 45.6184845 -0.10317993 C51.99134144 -0.10198052 58.36385861 -0.12304487 64.73662966 -0.15466726 C70.88597804 -0.18408321 77.03516482 -0.19115292 83.18457985 -0.18996048 C85.79157712 -0.19231536 88.3985771 -0.20113244 91.0055294 -0.21662521 C94.66016339 -0.23630656 98.31393309 -0.23043712 101.96858215 -0.21841431 C103.57197701 -0.23527283 103.57197701 -0.23527283 105.20776367 -0.25247192 C113.63958833 -0.18228536 120.1645067 1.84007458 127.26081848 6.39242554 C132.44336114 11.93654094 135.22957061 17.54875019 135.44831848 25.20492554 C134.97591878 34.88911947 132.82632234 43.18860405 125.94831848 50.26742554 C119.47735973 55.39026788 113.47832479 56.56895241 105.37263489 56.49447632 C104.53295166 56.49476837 103.69326843 56.49506042 102.82814026 56.49536133 C100.06861327 56.49397439 97.30936047 56.47844327 94.54988098 56.46273804 C92.63031665 56.45900564 90.7107504 56.45615974 88.79118347 56.4541626 C83.75073441 56.44654397 78.71040149 56.4269107 73.66999817 56.40475464 C68.52190217 56.38425804 63.37378732 56.37515273 58.22566223 56.36508179 C48.13316342 56.34366313 38.04075063 56.30954858 27.94831848 56.26742554 C27.92197358 56.83556347 27.89562868 57.4037014 27.86848545 57.98905563 C27.74626738 60.59855194 27.62087394 63.20788672 27.49543762 65.81723022 C27.45405922 66.71078217 27.41268082 67.60433411 27.37004852 68.52496338 C27.02743408 75.58094168 26.35085634 82.51743798 25.38581848 89.51742554 C25.24724426 90.57187866 25.10867004 91.62633179 24.96589661 92.71273804 C24.63381071 95.23201035 24.29476102 97.7500952 23.94831848 100.26742554 C24.74495911 100.0624646 25.54159973 99.85750366 26.36238098 99.64633179 C27.42199036 99.37691772 28.48159973 99.10750366 29.57331848 98.82992554 C30.61745911 98.5630896 31.66159973 98.29625366 32.73738098 98.02133179 C56.18081633 92.51697288 79.89526668 96.60600787 100.74519348 108.18930054 C106.45469637 111.8935146 111.17766089 116.4418539 115.94831848 121.26742554 C117.06013489 122.36377319 117.06013489 122.36377319 118.19441223 123.48226929 C136.78573114 142.9433575 140.74816419 168.84600936 140.22956848 194.66195679 C139.24617526 223.26640703 129.06412749 252.70343605 107.82331848 272.66586304 C94.4807392 284.06264951 79.70170566 290.60467053 62.94831848 295.26742554 C61.26415833 295.79723022 61.26415833 295.79723022 59.54597473 296.33773804 C29.38651018 304.13138903 -6.58582396 296.6655107 -33.23918152 281.36947632 C-44.39832964 274.58440161 -54.97899296 265.70679739 -59.42277527 253.03305054 C-61.35827698 244.52165171 -61.18655543 236.1605921 -56.73136902 228.52133179 C-51.32279066 221.26377432 -44.93260804 216.40562391 -35.97355652 214.92367554 C-24.33778661 214.08656979 -14.34813058 221.82379303 -5.0599823 227.81112671 C8.7408193 236.6897618 22.6836258 243.81090714 39.57722473 240.79867554 C50.86716799 237.83042754 59.55671659 231.54796072 65.56941223 221.57992554 C73.8540126 206.04371736 77.51926367 187.68013877 72.32331848 170.45492554 C68.51629996 161.09711428 62.40929438 154.16496626 53.14363098 150.00961304 C41.88248823 145.99379405 28.93580739 145.14643028 17.78425598 149.91586304 C16.84839661 150.36187866 15.91253723 150.80789429 14.94831848 151.26742554 C13.64939845 151.86499658 12.34987509 152.46125723 11.04988098 153.05648804 C8.401341 154.27635109 5.7652115 155.5186048 3.13581848 156.77914429 C-5.21346683 160.67752383 -16.57855191 161.08100695 -25.35246277 158.17367554 C-31.48070766 154.6771352 -35.79483656 150.0379604 -38.05168152 143.26742554 C-38.06694141 140.8685712 -38.00250563 138.53396233 -37.86418152 136.14242554 C-37.8193866 135.36584595 -37.77459167 134.58926636 -37.72843933 133.78915405 C-36.958886 122.26650599 -35.38981045 110.81457159 -33.94273376 99.36157227 C-33.09279746 92.62938848 -32.27374154 85.89365272 -31.45959473 79.15705872 C-30.61555084 72.17489786 -29.75999011 65.19420151 -28.90011597 58.213974 C-28.31849986 53.48110905 -27.75549361 48.74656723 -27.20793152 44.00961304 C-23.73080047 14.52317283 -23.73080047 14.52317283 -12.48918152 3.82992554 C-8.37292209 1.1912977 -4.88950522 0.01905704 0 0 Z " fill="#FEFEFE" transform="translate(216.0516815185547,106.73257446289063)"/>
</svg>
