<?xml version="1.0" encoding="UTF-8"?>
<svg version="1.1" xmlns="http://www.w3.org/2000/svg" width="512" height="512">
<path d="M0 0 C0.67627441 0.21430664 1.35254883 0.42861328 2.04931641 0.64941406 C17.94266537 5.81559847 31.75441021 13.9232709 45 24 C45.86367188 24.63808594 46.72734375 25.27617187 47.6171875 25.93359375 C61.47211982 36.65929681 74.53392422 49.95145026 85 64 C86.05972751 65.38163954 87.11964076 66.76313662 88.1796875 68.14453125 C130.25696934 123.54969707 156.02054975 191.2983711 168.875 259.3125 C169.06610352 260.31740479 169.25720703 261.32230957 169.45410156 262.35766602 C172.39262046 278.77150726 173.38169411 295.09886467 173.3125 311.75 C173.30976578 313.12531387 173.30976578 313.12531387 173.30697632 314.52841187 C173.26021896 328.53384021 172.77086196 342.22949188 170 356 C169.82839355 356.87237305 169.65678711 357.74474609 169.47998047 358.64355469 C159.68921012 406.88869113 133.55972724 449.16070225 92.26025391 476.54492188 C60.89497506 496.73687067 23.36311165 507.90801761 -13.94921875 508.23828125 C-14.87214218 508.2480751 -15.79506561 508.25786896 -16.74595642 508.26795959 C-38.50741105 508.45103575 -59.5360237 507.93466307 -81 504 C-82.75570312 503.67854004 -82.75570312 503.67854004 -84.546875 503.35058594 C-127.58458748 495.20991731 -170.22578109 481.46577362 -209.05126953 461.02148438 C-211.23291945 459.87790842 -213.42656656 458.75927994 -215.62109375 457.640625 C-238.31997416 445.99185388 -259.93967492 432.01625122 -279 415 C-279.84304688 414.26652344 -280.68609375 413.53304688 -281.5546875 412.77734375 C-305.00781487 392.13409585 -324.71831804 367.35065741 -334.375 337.25 C-334.61379883 336.50645264 -334.85259766 335.76290527 -335.09863281 334.99682617 C-347.97475848 292.42268998 -332.13467156 253.28815613 -312.40844727 216.06494141 C-300.01229614 193.29991276 -284.49872172 171.46389099 -267.5 151.8984375 C-265.16203709 149.18786175 -262.91936138 146.42303209 -260.6875 143.625 C-255.37462605 137.09991951 -249.58719682 131.03754258 -243.80957031 124.92724609 C-242.02200524 123.02343623 -240.25397469 121.10344779 -238.4921875 119.17578125 C-233.54066955 113.76365698 -228.66870872 108.47392394 -223.0234375 103.76953125 C-220.39159369 101.46793811 -217.95246974 98.98867623 -215.5 96.5 C-211.16242039 92.11611171 -206.69890547 87.99163077 -202 84 C-201.00742188 83.12988281 -200.01484375 82.25976562 -198.9921875 81.36328125 C-190.64656538 74.06922943 -181.99646819 67.26121567 -173.13476562 60.60693359 C-171.04627639 59.03483431 -168.96743916 57.45075977 -166.890625 55.86328125 C-158.15269967 49.20687309 -149.24230401 42.9348502 -140 37 C-139.25218262 36.51450684 -138.50436523 36.02901367 -137.73388672 35.52880859 C-97.63615544 9.5957256 -48.83814989 -15.86485265 0 0 Z " fill="#972AC9" transform="translate(339,4)"/>
<path d="M0 0 C2.14422759 -0.00432983 4.28631679 -0.04060335 6.43017578 -0.07861328 C20.70374269 -0.19540801 34.05426316 2.38680127 46.17626953 10.37060547 C46.77955078 10.75990234 47.38283203 11.14919922 48.00439453 11.55029297 C52.50711494 14.84773973 54.8448851 19.43753117 57.17626953 24.37060547 C57.54236328 25.10150391 57.90845703 25.83240234 58.28564453 26.58544922 C61.06963647 35.29152926 60.54352943 46.8162156 56.73876953 55.05810547 C51.05386387 64.56836822 43.298701 69.41365498 33.17626953 73.37060547 C32.24298828 73.74443359 31.30970703 74.11826172 30.34814453 74.50341797 C29.63142578 74.78958984 28.91470703 75.07576172 28.17626953 75.37060547 C28.99869141 75.58974609 29.82111328 75.80888672 30.66845703 76.03466797 C42.84912065 79.4947641 53.68422935 84.72910561 60.48876953 95.87060547 C65.41100361 106.07968355 65.82841733 117.59676945 62.17626953 128.37060547 C58.28025905 139.39298688 50.91970017 147.3516241 40.36376953 152.43310547 C20.96151188 160.91086185 -7.39364196 162.01915207 -27.68310547 155.62841797 C-39.13008853 151.04392973 -47.05430202 145.51359378 -52.01879883 133.97241211 C-53.49595515 129.19775184 -53.2787254 124.44809595 -53.13623047 119.49560547 C-53.1265625 118.46435547 -53.11689453 117.43310547 -53.10693359 116.37060547 C-52.99452144 108.88297838 -52.99452144 108.88297838 -51.82373047 105.37060547 C-41.42873047 104.87560547 -41.42873047 104.87560547 -30.82373047 104.37060547 C-31.15373047 106.30935547 -31.48373047 108.24810547 -31.82373047 110.24560547 C-33.14778969 119.0186885 -34.311082 127.32927153 -29.82373047 135.37060547 C-26.2665597 139.69689424 -22.29418581 142.89848377 -16.59301758 143.67407227 C-14.03817417 143.80982459 -11.50695426 143.8290122 -8.94873047 143.80810547 C-8.08892578 143.82808594 -7.22912109 143.84806641 -6.34326172 143.86865234 C1.22710417 143.86290852 6.55180358 141.93674996 11.98876953 136.62060547 C16.71894487 129.5929164 17.73451037 123.28671131 17.67626953 114.99560547 C17.67127441 114.06748047 17.6662793 113.13935547 17.66113281 112.18310547 C17.46128984 104.35477377 16.05525737 98.70782539 10.75439453 92.78076172 C3.02326856 85.61076586 -6.78203012 85.26361655 -16.69873047 84.80810547 C-17.57787109 84.76492188 -18.45701172 84.72173828 -19.36279297 84.67724609 C-21.51628844 84.57191208 -23.66999111 84.47082898 -25.82373047 84.37060547 C-25.82373047 78.43060547 -25.82373047 72.49060547 -25.82373047 66.37060547 C-23.83212891 66.31453125 -23.83212891 66.31453125 -21.80029297 66.25732422 C-4.24145822 66.03579785 -4.24145822 66.03579785 10.48095703 57.43701172 C15.85156364 50.89081149 16.78897238 43.76634596 16.49658203 35.49169922 C15.89124415 29.59334594 14.59559071 25.18418253 10.92626953 20.49560547 C4.96215867 15.88697435 -0.40652616 14.80963783 -7.76123047 14.87060547 C-8.95546631 14.87918579 -8.95546631 14.87918579 -10.17382812 14.88793945 C-15.22700633 15.0423739 -19.11233015 15.57764437 -23.31591797 18.59326172 C-28.70094939 24.94090239 -29.37742906 29.69584874 -29.07373047 37.80810547 C-29.04666016 39.1915918 -29.04666016 39.1915918 -29.01904297 40.60302734 C-28.97226648 42.8599928 -28.90674918 45.11473159 -28.82373047 47.37060547 C-31.22079746 47.08717868 -33.61604129 46.79416858 -36.01123047 46.49560547 C-36.68476563 46.41697266 -37.35830078 46.33833984 -38.05224609 46.25732422 C-41.92700531 45.76589134 -45.27457769 45.01079646 -48.82373047 43.37060547 C-49.55933615 31.66221503 -47.43238667 22.49611685 -39.81201172 13.37451172 C-28.79480883 2.27072963 -14.95999929 -0.00336407 0 0 Z " fill="#FDFCFE" transform="translate(195.82373046875,176.62939453125)"/>
<path d="M0 0 C8.91 0 17.82 0 27 0 C27 50.16 27 100.32 27 152 C13.14 152 -0.72 152 -15 152 C-15.33 114.38 -15.66 76.76 -16 38 C-21.94 40.475 -21.94 40.475 -28 43 C-35.28769763 45.29720903 -39.14669815 46 -47 46 C-47 39.4 -47 32.8 -47 26 C-43.41125 25.4121875 -43.41125 25.4121875 -39.75 24.8125 C-22.05377153 21.60122225 -11.25689568 14.0711196 0 0 Z " fill="#FEFEFE" transform="translate(342,180)"/>
</svg>
