<?xml version="1.0" encoding="UTF-8"?>
<svg version="1.1" xmlns="http://www.w3.org/2000/svg" width="512" height="512">
<path d="M0 0 C1.01790619 0.00215515 2.03581238 0.0043103 3.08456421 0.00653076 C17.69363523 0.05620146 32.02575853 0.30709809 46.375 3.3125 C47.34985352 3.51117676 48.32470703 3.70985352 49.32910156 3.91455078 C97.7109774 14.03517194 141.69928269 35.9516877 177.375 70.3125 C178.3640332 71.26068604 178.3640332 71.26068604 179.37304688 72.22802734 C188.86130305 81.37247479 197.6012044 90.66984009 205.375 101.3125 C206.23306152 102.46355017 207.09113451 103.61459177 207.94921875 104.765625 C213.98736829 112.95680614 219.34595521 121.47054105 224.375 130.3125 C224.73948242 130.94430176 225.10396484 131.57610352 225.47949219 132.22705078 C247.08534998 169.97532572 256.85198095 212.74189997 256.6875 255.9375 C256.68534485 256.95540619 256.6831897 257.97331238 256.68096924 259.02206421 C256.63129854 273.63113523 256.38040191 287.96325853 253.375 302.3125 C253.07698486 303.77478027 253.07698486 303.77478027 252.77294922 305.26660156 C243.72170074 348.53631524 225.33729329 388.73769334 196.375 422.3125 C195.74078125 423.05757813 195.1065625 423.80265625 194.453125 424.5703125 C182.64198485 438.07529833 169.89139772 450.74668743 155.375 461.3125 C154.22505169 462.16899066 153.07531411 463.02576433 151.92578125 463.8828125 C143.73565742 469.92284209 135.23120382 475.30617614 126.375 480.3125 C125.66778809 480.7146875 124.96057617 481.116875 124.23193359 481.53125 C98.02725553 496.28470851 69.08953614 505.81420334 39.375 510.3125 C38.25617432 510.48982666 37.13734863 510.66715332 35.98461914 510.84985352 C24.26264053 512.53126341 12.64001024 512.66984341 0.8125 512.625 C-0.71810562 512.62176727 -0.71810562 512.62176727 -2.27963257 512.61846924 C-16.90710524 512.56883352 -31.25763838 512.32169712 -45.625 509.3125 C-47.08728027 509.01448486 -47.08728027 509.01448486 -48.57910156 508.71044922 C-91.84881524 499.65920074 -132.05019334 481.27479329 -165.625 452.3125 C-166.37007813 451.67828125 -167.11515625 451.0440625 -167.8828125 450.390625 C-181.38779833 438.57948485 -194.05918743 425.82889772 -204.625 411.3125 C-205.48149066 410.16255169 -206.33826433 409.01281411 -207.1953125 407.86328125 C-213.23534209 399.67315742 -218.61867614 391.16870382 -223.625 382.3125 C-224.0271875 381.60528809 -224.429375 380.89807617 -224.84375 380.16943359 C-237.8691741 357.03404164 -246.61801461 331.86287591 -251.9375 305.875 C-252.08485596 305.15610596 -252.23221191 304.43721191 -252.3840332 303.6965332 C-255.35789088 288.05024391 -255.99800362 272.57681954 -255.9375 256.6875 C-255.93534485 255.66959381 -255.9331897 254.65168762 -255.93096924 253.60293579 C-255.88129854 238.99386477 -255.63040191 224.66174147 -252.625 210.3125 C-252.42632324 209.33764648 -252.22764648 208.36279297 -252.02294922 207.35839844 C-241.90232806 158.9765226 -219.9858123 114.98821731 -185.625 79.3125 C-184.99287598 78.65314453 -184.36075195 77.99378906 -183.70947266 77.31445312 C-174.56502521 67.82619695 -165.26765991 59.0862956 -154.625 51.3125 C-153.47394983 50.45443848 -152.32290823 49.59636549 -151.171875 48.73828125 C-142.98224019 42.70072604 -134.47961724 37.31792698 -125.625 32.3125 C-124.91778809 31.9103125 -124.21057617 31.508125 -123.48193359 31.09375 C-100.34654164 18.0683259 -75.17537591 9.31948539 -49.1875 4 C-48.46860596 3.85264404 -47.74971191 3.70528809 -47.0090332 3.5534668 C-31.36274391 0.57960912 -15.88931954 -0.06050362 0 0 Z " fill="#03CAC2" transform="translate(255.625,-0.3125)"/>
<path d="M0 0 C13.24125956 11.78467909 22.0889387 27.57801929 24.35498047 45.24780273 C24.62671597 50.25134969 24.63474184 55.23797146 24.60498047 60.24780273 C24.61271484 61.54975586 24.62044922 62.85170898 24.62841797 64.19311523 C24.58932612 83.54358084 18.97316666 100.79887019 5.10498047 114.74780273 C3.52886819 116.25538839 1.94647882 117.75646862 0.35498047 119.24780273 C-0.64937677 120.24342643 -1.65149182 121.24137207 -2.64501953 122.24780273 C-1.94376953 122.66030273 -1.24251953 123.07280273 -0.52001953 123.49780273 C15.87437597 133.47699999 25.73363053 148.22204917 30.66748047 166.74780273 C34.78419663 184.07439928 33.87413671 203.36567777 28.35498047 220.24780273 C27.98115234 221.41311523 27.60732422 222.57842773 27.22216797 223.77905273 C19.86329759 244.63730786 5.37900902 258.5175027 -14.08251953 268.06030273 C-29.46066872 274.61863107 -45.7628937 276.64482176 -62.33251953 276.56030273 C-63.38892639 276.55856552 -63.38892639 276.55856552 -64.4666748 276.55679321 C-75.1564644 276.52204669 -85.23054322 275.81247239 -95.64501953 273.24780273 C-96.67240234 273.05444336 -97.69978516 272.86108398 -98.75830078 272.66186523 C-107.79115493 270.81940227 -115.63831393 266.6676117 -123.64501953 262.24780273 C-124.49064453 261.78631836 -125.33626953 261.32483398 -126.20751953 260.84936523 C-137.26437209 254.14208335 -146.54390875 243.51634508 -152.64501953 232.24780273 C-153.16451172 231.30420898 -153.68400391 230.36061523 -154.21923828 229.38842773 C-165.29076266 208.30512186 -165.29076266 208.30512186 -163.64501953 198.24780273 C-160.7156279 193.54037241 -157.29522995 191.89670586 -152.20751953 190.18530273 C-151.50103271 189.93635254 -150.7945459 189.68740234 -150.06665039 189.4309082 C-147.93148579 188.68630105 -145.78907155 187.96634174 -143.64501953 187.24780273 C-142.44876953 186.82885742 -141.25251953 186.40991211 -140.02001953 185.97827148 C-133.70228151 183.86987542 -128.30655103 182.40189397 -121.64501953 183.24780273 C-117.8174568 185.62709849 -116.59674392 189.32703039 -114.91064453 193.34155273 C-113.26631898 197.11741141 -111.46973578 200.80640344 -109.64501953 204.49780273 C-109.31276367 205.18326172 -108.98050781 205.8687207 -108.63818359 206.57495117 C-103.68877968 216.54675907 -96.24192459 222.65563153 -85.64501953 226.24780273 C-69.92178755 230.38002403 -50.53872737 230.32747722 -35.83251953 223.06030273 C-27.05034332 217.71463026 -22.87885349 210.06365162 -20.11450195 200.39160156 C-17.47602504 188.34351743 -18.76282799 174.58219479 -24.96533203 163.99389648 C-30.81977384 155.30820822 -39.33521732 151.8347306 -49.34759521 149.62561035 C-57.6566709 148.25919664 -66.31330651 148.72231084 -74.70751953 148.74780273 C-78.7405435 148.75985961 -82.77226657 148.74621255 -86.80517578 148.71655273 C-87.71977066 148.72787231 -88.63436554 148.73919189 -89.57667542 148.75085449 C-93.75255937 148.71761871 -96.05490259 148.60386466 -99.69750977 146.40600586 C-104.22935704 141.383876 -102.94326144 134.02214549 -102.99511719 127.62426758 C-103.01168089 126.1267137 -103.03897725 124.62923903 -103.07714844 123.13208008 C-103.13206591 120.96451146 -103.15380786 118.79878679 -103.16845703 116.63061523 C-103.19818604 114.68759521 -103.19818604 114.68759521 -103.22851562 112.70532227 C-102.49928028 108.38422143 -100.99856003 106.96588237 -97.64501953 104.24780273 C-94.26034163 102.55546378 -90.40875936 103.08983477 -86.68408203 103.07202148 C-84.83120646 103.04879349 -82.97834188 103.02467501 -81.12548828 102.99975586 C-78.21184255 102.96487796 -75.29859308 102.93543571 -72.38476562 102.921875 C-51.72715749 102.87680051 -51.72715749 102.87680051 -34.48486328 92.38452148 C-31.76194495 89.22223629 -30.01622325 86.17959683 -28.64501953 82.24780273 C-28.42201172 81.6303418 -28.19900391 81.01288086 -27.96923828 80.37670898 C-25.05215961 70.19669976 -24.94250704 56.44875011 -29.18798828 46.71264648 C-33.57788075 39.28631364 -39.31962399 32.97536089 -47.64501953 30.24780273 C-48.6446875 29.91522461 -48.6446875 29.91522461 -49.66455078 29.57592773 C-63.84566921 25.90026131 -81.39845636 26.88091955 -94.45751953 33.49780273 C-105.78021612 40.46248301 -111.30776136 51.81054977 -115.89501953 63.93530273 C-118.36054244 70.29487041 -118.36054244 70.29487041 -121.64501953 72.24780273 C-129.39529204 72.88716123 -135.55376497 71.03658911 -142.83251953 68.49780273 C-143.88632813 68.14975586 -144.94013672 67.80170898 -146.02587891 67.44311523 C-159.30689311 62.92405558 -159.30689311 62.92405558 -161.64501953 58.24780273 C-164.00600428 44.05200836 -153.57302718 26.80526328 -145.67236328 15.40014648 C-143.74730515 12.92397828 -141.74710952 10.57497311 -139.64501953 8.24780273 C-138.98115234 7.49112305 -138.31728516 6.73444336 -137.63330078 5.95483398 C-125.96674645 -6.57431217 -110.22250221 -14.11379229 -93.64501953 -17.75219727 C-92.71560547 -17.95844727 -91.78619141 -18.16469727 -90.82861328 -18.37719727 C-60.4466768 -23.85279032 -24.33384248 -20.63219517 0 0 Z " fill="#FDFEFE" transform="translate(321.64501953125,127.752197265625)"/>
</svg>
