<?xml version="1.0" encoding="UTF-8"?>
<svg version="1.1" xmlns="http://www.w3.org/2000/svg" width="512" height="512">
<path d="M0 0 C0.99868909 -0.00297112 1.99737819 -0.00594224 3.02633059 -0.0090034 C6.35908455 -0.01764635 9.69180239 -0.01919493 13.02456665 -0.02069092 C15.42015662 -0.02532233 17.81574585 -0.03034742 20.21133423 -0.03573608 C26.71186048 -0.04883371 33.21237985 -0.05533771 39.71291685 -0.05974674 C43.78023756 -0.06251761 47.84755591 -0.06675656 51.91487503 -0.07125092 C63.19913521 -0.08343966 74.48339352 -0.09373856 85.76766014 -0.09712601 C86.48888342 -0.09734557 87.2101067 -0.09756514 87.95318524 -0.09779136 C88.67603937 -0.09800964 89.39889351 -0.09822791 90.14365232 -0.09845281 C91.60818887 -0.09889626 93.07272542 -0.09934282 94.53726196 -0.09979248 C95.2637076 -0.10001391 95.99015323 -0.10023534 96.73861237 -0.10046348 C108.48858398 -0.10440477 120.23849332 -0.12184006 131.98844092 -0.145152 C144.08217627 -0.16895013 156.17588049 -0.18133175 168.26963961 -0.18249393 C175.04751456 -0.18340615 181.82530843 -0.18904286 188.60316086 -0.20731354 C194.98736375 -0.22388814 201.37141365 -0.2259044 207.75563049 -0.21717453 C210.08628883 -0.21640908 212.41695571 -0.22068117 214.74759293 -0.23063278 C258.07962913 -0.40465983 296.27158717 14.14096113 327.37026978 44.66778564 C335.82133285 53.25263113 342.72223089 62.77794547 348.81997681 73.14044189 C349.16657349 73.72519287 349.51317017 74.30994385 349.87026978 74.91241455 C362.01010239 95.68527045 368.98307225 119.22610484 368.9604187 143.32046509 C368.96487538 144.81849873 368.96487538 144.81849873 368.9694221 146.34679568 C368.97806505 149.67954963 368.97961363 153.01226748 368.98110962 156.34503174 C368.98574103 158.7406217 368.99076612 161.13621093 368.99615479 163.53179932 C369.00925242 170.03232557 369.01575642 176.53284494 369.02016544 183.03338194 C369.02293631 187.10070264 369.02717527 191.168021 369.03166962 195.23534012 C369.04385836 206.5196003 369.05415726 217.80385861 369.05754471 229.08812523 C369.05776427 229.80934851 369.05798384 230.53057179 369.05821006 231.27365033 C369.05842834 231.99650446 369.05864662 232.7193586 369.05887151 233.46411741 C369.05931496 234.92865396 369.05976152 236.3931905 369.06021118 237.85772705 C369.06043261 238.58417268 369.06065404 239.31061832 369.06088218 240.05907746 C369.06482347 251.80904907 369.08225876 263.55895841 369.1055707 275.308906 C369.12936883 287.40264135 369.14175045 299.49634558 369.14291263 311.5901047 C369.14382485 318.36797965 369.14946156 325.14577352 369.16773224 331.92362595 C369.18430684 338.30782883 369.1863231 344.69187874 369.17759323 351.07609558 C369.17682778 353.40675392 369.18109987 355.7374208 369.19105148 358.06805801 C369.36507853 401.40009422 354.81945758 439.59205226 324.29263306 470.69073486 C315.70778757 479.14179794 306.18247323 486.04269597 295.81997681 492.14044189 C295.23522583 492.48703857 294.65047485 492.83363525 294.04800415 493.19073486 C273.27514825 505.33056748 249.73431386 512.30353734 225.63995361 512.28088379 C224.64126452 512.28385491 223.64257542 512.28682603 222.61362302 512.28988719 C219.28086907 512.29853014 215.94815122 512.30007872 212.61538696 512.30157471 C210.219797 512.30620611 207.82420777 512.31123121 205.42861938 512.31661987 C198.92809313 512.3297175 192.42757376 512.3362215 185.92703676 512.34063053 C181.85971606 512.3434014 177.7923977 512.34764035 173.72507858 512.3521347 C162.4408184 512.36432345 151.15656009 512.37462235 139.87229347 512.3780098 C138.79045855 512.37833915 138.79045855 512.37833915 137.68676838 512.37867515 C136.96391424 512.37889343 136.2410601 512.3791117 135.49630129 512.3793366 C134.03176474 512.37978005 132.5672282 512.38022661 131.10269165 512.38067627 C130.37624602 512.3808977 129.64980038 512.38111913 128.90134124 512.38134727 C117.15136963 512.38528855 105.40146029 512.40272385 93.6515127 512.42603579 C81.55777735 512.44983392 69.46407312 512.46221554 57.370314 512.46337771 C50.59243905 512.46428994 43.81464518 512.46992664 37.03679276 512.48819733 C30.65258987 512.50477193 24.26853996 512.50678819 17.88432312 512.49805832 C15.55366478 512.49729287 13.2229979 512.50156496 10.89236069 512.51151657 C-32.43967552 512.68554362 -70.63163355 498.13992266 -101.73031616 467.61309814 C-110.18137924 459.02825266 -117.08227727 449.50293832 -123.18002319 439.14044189 C-123.52661987 438.55569092 -123.87321655 437.97093994 -124.23031616 437.36846924 C-139.15366328 411.83265263 -143.96888288 384.22270078 -143.82699585 354.93341064 C-143.83379502 352.5269607 -143.84271086 350.12051597 -143.85354614 347.71408081 C-143.87607264 341.2594098 -143.86761464 334.80514453 -143.85165071 328.35046768 C-143.84267249 324.30057544 -143.84447118 320.25073325 -143.84910202 316.20083618 C-143.84986819 315.52315191 -143.85063435 314.84546765 -143.85142373 314.14724749 C-143.85302277 312.7694531 -143.85464384 311.39165874 -143.85628669 310.0138644 C-143.87045789 297.17115175 -143.8542884 284.32861914 -143.82728486 271.48593605 C-143.80495393 260.5272569 -143.80883651 249.56884283 -143.83187866 238.61016846 C-143.85879081 225.80542442 -143.86908541 213.00083715 -143.85381734 200.19606876 C-143.85222502 198.82406174 -143.85065316 197.45205468 -143.84910202 196.08004761 C-143.84833064 195.40544076 -143.84755927 194.73083391 -143.84676451 194.03578442 C-143.84249339 189.33985864 -143.8498857 184.64406472 -143.86149979 179.94815063 C-143.87611257 173.59803788 -143.86562045 167.2484178 -143.8370285 160.89835739 C-143.83050645 158.58998806 -143.83215941 156.2815761 -143.84334183 153.97322464 C-144.02984188 111.50758545 -129.37532516 73.193066 -99.75082397 42.66778564 C-73.70742027 16.77431011 -36.88675524 -0.03468097 0 0 Z " fill="#126BD7" transform="translate(143.18002319335938,-0.14044189453125)"/>
<path d="M0 0 C20.35060893 16.99998874 28.93021566 43.51287895 31.414505 69.0892334 C31.86659644 75.63878386 31.81598124 82.2071349 31.83203125 88.76953125 C31.83627232 89.95387725 31.83627232 89.95387725 31.84059906 91.16214943 C31.85552177 95.35134834 31.86479149 99.54051351 31.86914062 103.72973633 C31.87350181 107.14195588 31.8873111 110.55391925 31.91015625 113.96606445 C32.14664934 150.04666411 31.67137658 188.12631112 5.13964844 215.88110352 C-7.3942797 228.40510929 -22.37275394 233.74252473 -39.37109375 237.1953125 C-40.15097656 237.38867188 -40.93085938 237.58203125 -41.734375 237.78125 C-64.66720573 241.38255379 -88.6566947 235.82577054 -107.37109375 222.1953125 C-122.62473455 210.22811734 -131.42812745 193.91580151 -136.74609375 175.5703125 C-136.98473145 174.74869629 -137.22336914 173.92708008 -137.46923828 173.08056641 C-141.16465212 159.47193105 -141.68454393 146.07915388 -141.671875 132.0859375 C-141.67577557 130.26576645 -141.68011296 128.44559629 -141.68486023 126.62542725 C-141.69227186 122.83000729 -141.69206866 119.03468043 -141.68676758 115.23925781 C-141.68098592 110.42769744 -141.69789744 105.61652364 -141.72111225 100.80502701 C-141.73600171 97.05041355 -141.73670077 93.2958899 -141.73360252 89.54125214 C-141.73410834 87.76982611 -141.73920309 85.99839404 -141.74941444 84.22699738 C-141.88807622 56.81204086 -136.45539741 28.05226887 -117.37109375 7.1953125 C-116.78070313 6.51339844 -116.1903125 5.83148438 -115.58203125 5.12890625 C-86.47401962 -26.5183149 -32.49146214 -24.72991023 0 0 Z " fill="#FEFEFE" transform="translate(405.37109375,145.8046875)"/>
<path d="M0 0 C0 81.84 0 163.68 0 248 C-18.81 248 -37.62 248 -57 248 C-57 187.61 -57 127.22 -57 65 C-63.6 66.98 -70.2 68.96 -77 71 C-82.42740245 72.53662027 -87.85926551 74.04880667 -93.29882812 75.54101562 C-98.65008936 77.02158822 -103.92521962 78.58751916 -109.15356445 80.46020508 C-111 81 -111 81 -114 81 C-114 66.48 -114 51.96 -114 37 C-103.4163593 33.10076395 -93.21696744 29.37523192 -82.49609375 26.11328125 C-78.79647218 24.93518947 -75.26487324 23.52987933 -71.6875 22.03125 C-67.48828645 20.41992387 -63.18387217 19.16483193 -58.8828125 17.85546875 C-55.17988267 16.71664316 -51.57712494 15.49852531 -48 14 C-43.74077783 12.21573125 -39.41258089 10.84338008 -35 9.5 C-29.63012841 7.86452511 -24.42435477 6.05425674 -19.23046875 3.9140625 C-16.95817565 2.98286007 -14.68316103 2.08861878 -12.375 1.25 C-11.72273438 1.00765625 -11.07046875 0.7653125 -10.3984375 0.515625 C-8 0 -8 0 0 0 Z " fill="#FEFEFE" transform="translate(189,132)"/>
<path d="M0 0 C10.81069824 8.48146115 13.41539206 21.40877165 15.05932617 34.41943359 C16.54616182 48.83200938 16.06532765 63.44816284 15.99053955 77.91748047 C15.97710065 81.44189349 15.98228608 84.96617764 15.98766804 88.4906044 C15.9910448 91.94149708 15.98431021 95.39231474 15.9745388 98.84319305 C15.97075542 100.46471512 15.96950918 102.08624562 15.97112465 103.7077713 C15.9734881 117.87593726 15.88048706 132.9469271 10.66796875 146.30859375 C10.40371094 147.01242187 10.13945312 147.71625 9.8671875 148.44140625 C7.15485289 154.72637543 2.53483644 158.74208865 -3.09765625 162.48046875 C-9.41221595 164.82083004 -19.7949029 164.52756023 -25.89453125 161.80859375 C-34.44462222 156.37277433 -38.02325613 148.89617367 -40.33203125 139.30859375 C-42.92305381 126.16811672 -43.77488245 113.27292259 -43.6953125 99.91015625 C-43.69479133 98.13381959 -43.6953189 96.35748234 -43.69682312 94.58114624 C-43.69673448 90.89889666 -43.68652545 87.21687097 -43.66821289 83.53466797 C-43.64542868 78.8552202 -43.64501185 74.17609497 -43.65173054 69.49660683 C-43.65509612 65.84338598 -43.64839369 62.19023649 -43.6386013 58.53702927 C-43.63480109 56.81254832 -43.63357909 55.08805937 -43.63518715 53.36357498 C-43.64076786 17.62389183 -43.64076786 17.62389183 -32.51953125 4.12109375 C-24.35338046 -4.02990648 -10.130415 -6.24240925 0 0 Z " fill="#1063CE" transform="translate(364.33203125,175.69140625)"/>
</svg>
