<?xml version="1.0" encoding="UTF-8"?>
<svg version="1.1" xmlns="http://www.w3.org/2000/svg" width="512" height="512">
<path d="M0 0 C1.34960223 -0.0037443 2.69920229 -0.00834891 4.04879898 -0.01373065 C7.72893658 -0.02588005 11.40898273 -0.02570977 15.08913577 -0.02334189 C19.06956969 -0.02293166 23.04997508 -0.03399254 27.03039551 -0.04345703 C34.81879618 -0.06002439 42.60716657 -0.06556467 50.3955834 -0.06668179 C56.73193684 -0.06763442 63.06828036 -0.07175545 69.40463066 -0.07808304 C87.39917345 -0.0956849 105.39369246 -0.10492372 123.38824392 -0.10342209 C124.84142306 -0.10330222 124.84142306 -0.10330222 126.32395935 -0.10317993 C127.77892866 -0.10305729 127.77892866 -0.10305729 129.26329129 -0.10293217 C144.97059887 -0.10211988 160.67781042 -0.12124588 176.38509024 -0.14945666 C192.54244953 -0.178245 208.69976207 -0.19199365 224.85714763 -0.19026911 C233.91646981 -0.1896072 242.97569135 -0.19501196 252.03499031 -0.21662521 C259.75053417 -0.23491565 267.46593179 -0.23912036 275.18148804 -0.22560637 C279.11088886 -0.21911571 283.04000976 -0.21881629 286.96938324 -0.23631287 C322.65040289 -0.38509575 351.02645688 6.87460014 377.47117615 32.01742554 C396.6847721 51.77824416 406.6821944 78.63852455 406.61360168 105.92124939 C406.61734599 107.27085162 406.62195059 108.62045168 406.62733233 109.97004837 C406.63948173 113.65018597 406.63931146 117.33023212 406.63694358 121.01038516 C406.63653335 124.99081908 406.64759422 128.97122447 406.65705872 132.9516449 C406.67362608 140.74004557 406.67916635 148.52841596 406.68028347 156.31683279 C406.68123611 162.65318623 406.68535713 168.98952975 406.69168472 175.32588005 C406.70928659 193.32042284 406.71852541 211.31494185 406.71702377 229.30949331 C406.71690391 230.76267245 406.71690391 230.76267245 406.71678162 232.24520874 C406.71669985 233.21518828 406.71661809 234.18516782 406.71653385 235.18454068 C406.71572157 250.89184826 406.73484757 266.59905981 406.76305835 282.30633963 C406.79184669 298.46369891 406.80559533 314.62101146 406.8038708 330.77839702 C406.80320888 339.8377192 406.80861364 348.89694074 406.8302269 357.9562397 C406.84851734 365.67178356 406.85272204 373.38718118 406.83920805 381.10273743 C406.8327174 385.03213825 406.83241797 388.96125915 406.84991455 392.89063263 C406.99131409 426.80098406 400.62890344 454.72697923 377.34617615 480.26742554 C376.47219177 481.26515991 376.47219177 481.26515991 375.58055115 482.28305054 C359.98197499 499.1421177 334.00077981 511.0943747 311.20279014 512.45503306 C307.69794593 512.52941626 304.19798027 512.54366473 300.69235229 512.53485107 C299.34275007 512.53859538 297.99315001 512.54319998 296.64355332 512.54858172 C292.96341572 512.56073112 289.28336957 512.56056085 285.60321653 512.55819297 C281.62278261 512.55778274 277.64237721 512.56884361 273.66195679 512.57830811 C265.87355611 512.59487547 258.08518572 512.60041574 250.2967689 512.60153286 C243.96041545 512.6024855 237.62407194 512.60660652 231.28772163 512.61293411 C213.29317884 512.63053598 195.29865984 512.6397748 177.30410837 512.63827316 C175.85092924 512.6381533 175.85092924 512.6381533 174.36839294 512.63803101 C172.91342363 512.63790836 172.91342363 512.63790836 171.429061 512.63778324 C155.72175342 512.63697096 140.01454188 512.65609696 124.30726206 512.68430774 C108.14990277 512.71309608 91.99259022 512.72684472 75.83520466 512.72512019 C66.77588248 512.72445827 57.71666095 512.72986303 48.65736198 512.75147629 C40.94181812 512.76976672 33.22642051 512.77397143 25.51086425 512.76045744 C21.58146343 512.75396679 17.65234253 512.75366736 13.72296906 512.77116394 C-21.9580506 512.91994682 -50.33410458 505.66025093 -76.77882385 480.51742554 C-95.9924198 460.75660692 -105.9898421 433.89632653 -105.92124939 406.61360168 C-105.92499369 405.26399946 -105.9295983 403.9143994 -105.93498003 402.56480271 C-105.94712944 398.88466511 -105.94695916 395.20461896 -105.94459128 391.52446592 C-105.94418105 387.544032 -105.95524193 383.5636266 -105.96470642 379.58320618 C-105.98127378 371.7948055 -105.98681406 364.00643511 -105.98793118 356.21801829 C-105.98888381 349.88166484 -105.99300484 343.54532133 -105.99933243 337.20897102 C-106.01693429 319.21442823 -106.02617311 301.21990923 -106.02467148 283.22535776 C-106.02459157 282.25657167 -106.02451166 281.28778558 -106.02442932 280.28964233 C-106.02434756 279.31966279 -106.0242658 278.34968325 -106.02418156 277.35031039 C-106.02336927 261.64300281 -106.04249527 245.93579127 -106.07070605 230.22851145 C-106.09949439 214.07115216 -106.11324304 197.91383961 -106.1115185 181.75645405 C-106.11085659 172.69713187 -106.11626134 163.63791034 -106.1378746 154.57861137 C-106.15616504 146.86306751 -106.16036975 139.1476699 -106.14685576 131.43211364 C-106.1403651 127.50271282 -106.14006568 123.57359192 -106.15756226 119.64421844 C-106.30634514 83.96319879 -99.04664925 55.58714481 -73.90382385 29.14242554 C-54.14300523 9.92882959 -27.28272484 -0.06859272 0 0 Z " fill="#6401C4" transform="translate(105.65382385253906,-0.267425537109375)"/>
<path d="M0 0 C15.30831538 -0.11715654 30.61661 -0.20514563 45.9252739 -0.25906086 C53.03448282 -0.28476777 60.14341207 -0.31977277 67.25244141 -0.37719727 C73.45363512 -0.42726438 79.65462616 -0.45934553 85.8560164 -0.47044247 C89.13527349 -0.47692236 92.41382084 -0.49467375 95.6929245 -0.52865028 C99.36691503 -0.56518873 103.03972289 -0.56993472 106.71386719 -0.56762695 C107.78346176 -0.58560333 108.85305634 -0.60357971 109.95506287 -0.62210083 C120.3362364 -0.5519942 129.49501474 2.75592031 137.0625 9.9765625 C140.81457728 13.89506256 144.44774551 17.89968339 148 22 C148.54269531 22.61617187 149.08539063 23.23234375 149.64453125 23.8671875 C153.53072547 28.3693491 154.12651326 31.41674161 154.17700195 37.2722168 C154.19625481 39.21519905 154.19625481 39.21519905 154.21589661 41.19743347 C154.22406613 42.61469133 154.23150946 44.03195353 154.23828125 45.44921875 C154.24235678 46.16463144 154.2464323 46.88004414 154.25063133 47.617136 C154.27148056 51.40645685 154.28578518 55.19574165 154.29516602 58.98510742 C154.3062066 62.88446094 154.34058176 66.78324006 154.38033772 70.68239117 C154.40658466 73.69286604 154.41486512 76.70320596 154.41844749 79.71378517 C154.42329548 81.15020422 154.43485817 82.58661797 154.45348549 84.02292442 C154.56272521 93.00713745 154.54456928 100.03867983 148.2109375 106.953125 C139.74743124 112.93160176 131.20049031 116.13138016 120.84472656 116.11352539 C120.13213181 116.11367142 119.41953705 116.11381744 118.68534851 116.1139679 C116.33707605 116.11327291 113.98888355 116.10549994 111.640625 116.09765625 C110.00966434 116.0957906 108.37870312 116.09436739 106.7477417 116.09336853 C102.46025031 116.08955494 98.17279292 116.07973454 93.88531494 116.06866455 C88.73826297 116.05662452 83.59119961 116.05204267 78.44413757 116.04621124 C70.62940141 116.03652217 62.81473984 116.01735752 55 116 C55 127.22 55 138.44 55 150 C57.57264648 149.9371582 60.14529297 149.87431641 62.79589844 149.80957031 C71.33279854 149.60999146 79.8698067 149.47789459 88.40842819 149.37825394 C93.58165458 149.31584177 98.75247486 149.23132151 103.92431641 149.09472656 C108.9236608 148.96352652 113.92070443 148.89242687 118.92163849 148.86147308 C120.82119199 148.83944134 122.72063111 148.79641394 124.61919403 148.73123932 C133.4825204 148.43931023 142.18586193 148.27784069 149.26269531 154.32324219 C154.53968207 159.59413882 154.64715954 165.69637317 154.79935837 172.85582352 C154.726715 178.58709274 154.4571431 184.28688342 154 190 C138.52671534 190.09364717 123.05345202 190.16407873 107.57995033 190.20724869 C100.39451216 190.22783051 93.20925057 190.25586658 86.02392578 190.30175781 C79.75756244 190.34176057 73.49132706 190.36746462 67.22483957 190.37635398 C63.90998159 190.38154622 60.59557263 190.39578953 57.28081131 190.42292023 C53.57061561 190.45207225 49.86117121 190.45595089 46.15087891 190.45410156 C45.06474304 190.46848267 43.97860718 190.48286377 42.85955811 190.49768066 C33.56112503 190.44772303 25.65605772 188.33860714 18.875 181.6875 C18.05515625 180.90375 17.2353125 180.12 16.390625 179.3125 C15.20726562 178.1678125 15.20726562 178.1678125 14 177 C12.5498346 175.71985399 11.0921412 174.44815466 9.625 173.1875 C0.25485122 164.98861981 0.25485122 164.98861981 -0.26742554 158.86392212 C-0.27504913 157.62959442 -0.28267273 156.39526672 -0.29052734 155.12353516 C-0.29724457 154.4400853 -0.30396179 153.75663544 -0.31088257 153.05247498 C-0.32984679 150.79792975 -0.33378594 148.54368248 -0.3359375 146.2890625 C-0.34236665 144.71731444 -0.3490951 143.14556758 -0.35610962 141.57382202 C-0.3680785 138.28030626 -0.37179086 134.98689535 -0.37060547 131.69335938 C-0.37040232 127.48105829 -0.39770088 123.26943222 -0.43214989 119.05729103 C-0.45443032 115.81097347 -0.45844267 112.56481804 -0.45738602 109.31843185 C-0.45974039 107.76594085 -0.46855481 106.21344527 -0.48405075 104.66102982 C-0.50373478 102.48529581 -0.49786493 100.31101326 -0.48583984 98.13525391 C-0.48868988 96.89933502 -0.49153992 95.66341614 -0.49447632 94.39004517 C0.40053899 88.2539731 4.30269807 84.19245051 8.9375 80.38671875 C16.33756162 75.41129853 24.41319521 73.87112644 33.17700195 73.88647461 C33.87998917 73.88632858 34.58297638 73.88618256 35.30726624 73.8860321 C37.61763659 73.88672559 39.92792508 73.89449143 42.23828125 73.90234375 C43.84539241 73.90420994 45.45250415 73.90563289 47.05961609 73.90663147 C51.27968937 73.91044085 55.49972797 73.92025761 59.7197876 73.93133545 C64.78843723 73.9433869 69.85709849 73.94795933 74.92575836 73.95378876 C82.61719632 73.96347024 90.30855827 73.98263783 98 74 C98 63.11 98 52.22 98 41 C95.4314624 41.04189453 92.8629248 41.08378906 90.21655273 41.12695312 C81.7191923 41.25965777 73.22178543 41.34793496 64.72366238 41.41449738 C59.57229631 41.45620519 54.42199404 41.51275164 49.27124023 41.60351562 C44.29798537 41.69060086 39.32575191 41.73830729 34.35179329 41.75901794 C32.45668522 41.77377165 30.56163154 41.80258421 28.66695976 41.84584045 C13.78805295 42.17194537 13.78805295 42.17194537 9.41604614 39.30639648 C7.59399414 37.20117188 7.59399414 37.20117188 6.3341217 35.11315918 C5.0725303 32.79878534 5.0725303 32.79878534 2.44713497 31.28882599 C0 29 0 29 -0.56762695 25.88378906 C-0.54144287 24.68979492 -0.51525879 23.49580078 -0.48828125 22.265625 C-0.47216797 20.97011719 -0.45605469 19.67460937 -0.43945312 18.33984375 C-0.39767939 16.97654572 -0.3553547 15.61326448 -0.3125 14.25 C-0.2874091 12.87113376 -0.26459729 11.49222403 -0.24414062 10.11328125 C-0.18518617 6.74108644 -0.10293171 3.37109259 0 0 Z " fill="#FAF7FD" transform="translate(265,161)"/>
<path d="M0 0 C15.43877642 -0.11316198 30.87734536 -0.20514324 46.31642532 -0.25906086 C53.48616709 -0.28476875 60.65563159 -0.31977568 67.82519531 -0.37719727 C74.07912672 -0.42726131 80.33285719 -0.45934482 86.58698344 -0.47044247 C89.89418376 -0.47692286 93.20068036 -0.4946768 96.50772858 -0.52865028 C100.2128493 -0.565184 103.91679717 -0.56993491 107.62207031 -0.56762695 C109.24048828 -0.59459152 109.24048828 -0.59459152 110.89160156 -0.62210083 C121.41078428 -0.55164467 130.55084315 2.80083239 138.203125 10.12109375 C140.60093228 12.62836614 142.95677738 15.13929195 145.16264343 17.81852722 C146.94852382 19.99522825 146.94852382 19.99522825 148.83796692 21.87129211 C154.92571399 28.53185035 154.98398054 34.48450865 154.82421875 43.23046875 C154.82130886 44.59328411 154.82093287 45.95610698 154.82295227 47.31892395 C154.81975314 50.15946666 154.79301254 52.99844473 154.74780273 55.83862305 C154.69097095 59.46698039 154.68296289 63.09340247 154.69121075 66.72213268 C154.69401586 69.5302352 154.67636564 72.337911 154.65207863 75.14589882 C154.63700755 77.12994922 154.63474673 79.11408369 154.63273621 81.09819031 C154.43001875 92.11797004 154.43001875 92.11797004 150 97 C148.88625 98.423125 148.88625 98.423125 147.75 99.875 C147.1725 100.57625 146.595 101.2775 146 102 C146.40992188 102.45890625 146.81984375 102.9178125 147.2421875 103.390625 C147.78101563 104.00421875 148.31984375 104.6178125 148.875 105.25 C149.40867188 105.85328125 149.94234375 106.4565625 150.4921875 107.078125 C153.5860539 111.02160238 154.2543477 113.94376863 154.29052734 118.95849609 C154.30328705 120.16009369 154.31604675 121.36169128 154.32919312 122.59970093 C154.33141876 123.894534 154.33364441 125.18936707 154.3359375 126.5234375 C154.34236841 127.87098328 154.34909699 129.21852768 154.35610962 130.56607056 C154.36807264 133.38880651 154.37179148 136.21142018 154.37060547 139.03417969 C154.37040238 142.64118606 154.39769728 146.24740366 154.43214989 149.85422325 C154.45445074 152.63731446 154.45844205 155.42021682 154.45738602 158.20338821 C154.4608765 160.17645352 154.48252016 162.14945989 154.50448608 164.12240601 C154.44824616 175.16246007 154.44824616 175.16246007 150 180 C149.49339844 180.58007812 148.98679688 181.16015625 148.46484375 181.7578125 C140.23993473 189.12026303 130.59771349 190.59945574 119.89428711 190.61279297 C118.73831528 190.62944 117.58234344 190.64608704 116.39134216 190.66323853 C112.60320245 190.71109017 108.81575276 190.72893443 105.02734375 190.7421875 C103.04748613 190.75559593 101.06762848 190.76900961 99.08777529 190.78305733 C92.87513908 190.82580305 86.66272027 190.84463983 80.44995117 190.85107422 C74.06605169 190.85835403 67.68406954 190.91824866 61.30075639 191.00188339 C55.79292712 191.07148546 50.28573149 191.10217418 44.77746588 191.10356629 C41.49892278 191.10514417 38.22277547 191.12706853 34.94459343 191.17956161 C13.4238633 191.49690647 13.4238633 191.49690647 8.19070435 187.73345947 C5.73156731 185.27648368 3.86789569 182.9148132 2 180 C1.34 179.67 0.68 179.34 0 179 C0 169.43 0 159.86 0 150 C32.67 150 65.34 150 99 150 C99 138.78 99 127.56 99 116 C95.73480469 116.12761719 92.46960938 116.25523437 89.10546875 116.38671875 C85.91165905 116.47272254 82.71798255 116.53938555 79.52368164 116.60424805 C77.31865888 116.65927276 75.11403209 116.73412384 72.91040039 116.82983398 C53.54268725 117.64942266 53.54268725 117.64942266 48.10400391 113.53759766 C45.34093366 110.9799235 43.17050561 108.07344563 41 105 C40.01 104.505 40.01 104.505 39 104 C39 94.43 39 84.86 39 75 C58.8 75 78.6 75 99 75 C99 63.78 99 52.56 99 41 C96.45240967 41.05760498 93.90481934 41.11520996 91.2800293 41.17456055 C82.83084007 41.35742292 74.38155974 41.47856403 65.93091106 41.56993389 C60.81053574 41.62716883 55.6921997 41.70469544 50.57299805 41.82983398 C45.62556481 41.95000663 40.68008308 42.01525756 35.73130226 42.04364967 C33.85051577 42.06386139 31.9698275 42.10333406 30.08987999 42.16303062 C13.82334122 42.65867447 13.82334122 42.65867447 7.8173418 37.03812122 C5.73633093 34.80124689 3.86504201 32.41768694 2 30 C1.34 29.67 0.68 29.34 0 29 C0 19.43 0 9.86 0 0 Z " fill="#FAF8FD" transform="translate(93,161)"/>
<path d="M0 0 C14.2825687 -0.09285983 28.56506504 -0.16384636 42.84787464 -0.20724869 C49.48064178 -0.22808424 56.1132017 -0.25632872 62.74584961 -0.30175781 C69.15196953 -0.34535858 75.55789067 -0.36916742 81.96414757 -0.37950897 C84.40287083 -0.38687476 86.84158376 -0.40125822 89.28022194 -0.42292023 C92.70763921 -0.45214251 96.1342449 -0.45594803 99.56176758 -0.45410156 C100.56015152 -0.46848267 101.55853546 -0.48286377 102.58717346 -0.49768066 C110.83704388 -0.44988425 118.9443999 1.30037827 125.5625 6.5 C129.60725903 10.6484708 130.25072722 13.4686384 130.2746582 19.23388672 C130.28419022 20.49554657 130.29372223 21.75720642 130.30354309 23.05709839 C130.30328162 24.43129504 130.30234439 25.80549171 130.30078125 27.1796875 C130.30467045 28.59449387 130.30900559 30.00929908 130.31376648 31.42410278 C130.3212222 34.38807969 130.32094254 37.35193747 130.31567383 40.31591797 C130.3098854 44.10439191 130.32679763 47.89237597 130.3500185 51.68076897 C130.36479024 54.60282213 130.3656228 57.52475831 130.36250877 60.44684219 C130.36302044 61.84301853 130.36822908 63.23920168 130.37832069 64.63534164 C130.39073067 66.59263085 130.38192958 68.55001929 130.37231445 70.50732422 C130.37294388 71.61888885 130.3735733 72.73045349 130.3742218 73.8757019 C129.78571628 78.78900912 127.89766593 82.03328285 124.5625 85.625 C114.66275744 93.0919673 102.50108254 92.5410017 90.765625 92.390625 C89.03400329 92.38314786 87.30237301 92.37746191 85.57073975 92.37347412 C81.0529774 92.35833348 76.53574431 92.31915429 72.01818848 92.2746582 C66.57652724 92.2261855 61.13468725 92.20811625 55.69287109 92.18484497 C47.46154801 92.14629388 39.23138203 92.06956097 31 92 C31.33 110.81 31.66 129.62 32 149 C80.51 149.495 80.51 149.495 130 150 C130 155.61 130 161.22 130 167 C115.84781564 167.09286369 101.6957043 167.1638483 87.54327679 167.20724869 C80.97104279 167.22808341 74.39901795 167.25632633 67.8269043 167.30175781 C61.47913888 167.34536159 55.1315741 167.36916804 48.78367043 167.37950897 C46.36727556 167.38687422 43.95089112 167.40125663 41.53458214 167.42292023 C38.13829577 167.45214656 34.74282833 167.45594787 31.34643555 167.45410156 C30.35740234 167.46848267 29.36836914 167.48286377 28.34936523 167.49768066 C19.74179186 167.4473658 10.75950485 165.54216 4.375 159.375 C3.74335938 158.78460938 3.11171875 158.19421875 2.4609375 157.5859375 C-0.4283776 154.44940828 -0.15202028 151.89456297 -0.20874023 147.73364258 C-0.22803085 146.4149971 -0.24732147 145.09635162 -0.26719666 143.73774719 C-0.28200572 142.29001852 -0.29577885 140.84227894 -0.30859375 139.39453125 C-0.31845149 138.30161553 -0.31845149 138.30161553 -0.32850838 137.18662071 C-0.36111009 133.32715166 -0.38555455 129.46771024 -0.4050293 125.6081543 C-0.42281663 122.41959205 -0.45759143 119.23191855 -0.50756836 116.04370117 C-0.5679072 112.18982957 -0.59852373 108.33677957 -0.60820198 104.48245811 C-0.61673783 103.01724375 -0.63551023 101.55205023 -0.6649456 100.0871067 C-0.90997156 87.19456235 -0.90997156 87.19456235 2.89941406 82.64086914 C5.12173472 80.55036699 7.37476052 78.8489066 10.1875 77.625 C10.84105469 77.32851562 11.49460937 77.03203125 12.16796875 76.7265625 C16.45882367 75.02485884 20.22244949 74.82978041 24.77612305 74.79467773 C25.56660034 74.78477814 26.35707764 74.77487854 27.17150879 74.76467896 C29.78488162 74.73308607 32.39827263 74.70831526 35.01171875 74.68359375 C36.82347588 74.66302231 38.63522823 74.64202579 40.44697571 74.62062073 C45.21611664 74.56541965 49.98530074 74.51600169 54.7545166 74.46777344 C60.47645034 74.40871323 66.19830515 74.34249604 71.92017365 74.27747345 C80.6134009 74.17948862 89.30667873 74.09061568 98 74 C98.33 55.19 98.66 36.38 99 17 C66.33 16.67 33.66 16.34 0 16 C0 10.72 0 5.44 0 0 Z " fill="#6503C4" transform="translate(271,167)"/>
<path d="M0 0 C13.98725834 -0.09294665 27.97444241 -0.16389008 41.96194744 -0.20724869 C48.45789742 -0.22806547 54.95363507 -0.25627513 61.44946289 -0.30175781 C67.72591533 -0.34542619 74.00216438 -0.36918149 80.2787571 -0.37950897 C82.66558849 -0.38686273 85.05240957 -0.40122231 87.43915367 -0.42292023 C117.6002874 -0.68604906 117.6002874 -0.68604906 126.2565918 7.40991211 C130.33870957 12.87942867 129.9872963 18.86296853 129.89453125 25.44140625 C129.89885666 26.72305161 129.90318207 28.00469696 129.90763855 29.32518005 C129.9134169 32.02625519 129.89464619 34.72569465 129.85766602 37.42651367 C129.8121353 40.87258818 129.82480115 44.31550229 129.85547352 47.76164341 C129.87763863 51.07185466 129.85299859 54.38118306 129.83203125 57.69140625 C129.84103958 58.9207338 129.85004791 60.15006134 129.85932922 61.41664124 C129.73379753 67.96447351 129.29989445 72.0937926 124.51556396 76.78785706 C122.57448896 78.34032229 120.75660792 79.4705894 118.4375 80.375 C117.71433594 80.67148438 116.99117188 80.96796875 116.24609375 81.2734375 C113.85019772 82.04845778 111.47694441 82.55597833 109 83 C109.78503906 83.21914062 110.57007813 83.43828125 111.37890625 83.6640625 C118.04124972 85.67502752 123.32415714 87.70373786 128 93 C129.31305234 95.62610468 129.14877252 97.60684979 129.17700195 100.54785156 C129.19625481 102.29041229 129.19625481 102.29041229 129.21589661 104.06817627 C129.22328354 105.32958435 129.23067047 106.59099243 129.23828125 107.890625 C129.246353 109.18313171 129.25442474 110.47563843 129.26274109 111.80731201 C129.27776998 114.54780954 129.28760623 117.28828114 129.29516602 120.02880859 C129.30621224 123.53046097 129.34058979 127.03147465 129.38033772 130.53290176 C129.41285722 133.88128349 129.4172878 137.22959758 129.42578125 140.578125 C129.44328934 141.83143616 129.46079742 143.08474731 129.47883606 144.3760376 C129.45174896 155.24873244 129.45174896 155.24873244 125 160 C122.66796875 161.609375 122.66796875 161.609375 120.1875 162.75 C119.37667969 163.13671875 118.56585938 163.5234375 117.73046875 163.921875 C110.65675023 166.71493124 104.7658724 167.28178235 97.19946289 167.22705078 C95.60322083 167.22748886 95.60322083 167.22748886 93.97473145 167.22793579 C90.4739554 167.22654774 86.9733949 167.21101105 83.47265625 167.1953125 C81.03885515 167.19158051 78.60505254 167.18873442 76.17124939 167.18673706 C69.77782006 167.17911528 63.38448217 167.15947919 56.99108887 167.1373291 C50.46217078 167.11683938 43.93323787 167.10772865 37.40429688 167.09765625 C24.6028245 167.076232 11.80141986 167.04211355 -1 167 C-1 161.39 -1 155.78 -1 150 C31.34 149.67 63.68 149.34 97 149 C97.33 130.19 97.66 111.38 98 92 C78.2 92 58.4 92 38 92 C38 86.39 38 80.78 38 75 C57.47 74.67 76.94 74.34 97 74 C97 55.19 97 36.38 97 17 C64.99 16.67 32.98 16.34 0 16 C0 10.72 0 5.44 0 0 Z " fill="#6604C4" transform="translate(100,167)"/>
</svg>
