<?xml version="1.0" encoding="UTF-8"?>
<svg version="1.1" xmlns="http://www.w3.org/2000/svg" width="512" height="512">
<path d="M0 0 C1.01790619 0.00215515 2.03581238 0.0043103 3.08456421 0.00653076 C17.69363523 0.05620146 32.02575853 0.30709809 46.375 3.3125 C47.34985352 3.51117676 48.32470703 3.70985352 49.32910156 3.91455078 C97.7109774 14.03517194 141.69928269 35.9516877 177.375 70.3125 C178.3640332 71.26068604 178.3640332 71.26068604 179.37304688 72.22802734 C188.86130305 81.37247479 197.6012044 90.66984009 205.375 101.3125 C206.23306152 102.46355017 207.09113451 103.61459177 207.94921875 104.765625 C213.98736829 112.95680614 219.34595521 121.47054105 224.375 130.3125 C224.73948242 130.94430176 225.10396484 131.57610352 225.47949219 132.22705078 C247.08534998 169.97532572 256.85198095 212.74189997 256.6875 255.9375 C256.68534485 256.95540619 256.6831897 257.97331238 256.68096924 259.02206421 C256.63129854 273.63113523 256.38040191 287.96325853 253.375 302.3125 C253.07698486 303.77478027 253.07698486 303.77478027 252.77294922 305.26660156 C242.65232806 353.6484774 220.7358123 397.63678269 186.375 433.3125 C185.74287598 433.97185547 185.11075195 434.63121094 184.45947266 435.31054688 C175.31502521 444.79880305 166.01765991 453.5387044 155.375 461.3125 C154.22394983 462.17056152 153.07290823 463.02863451 151.921875 463.88671875 C143.73224019 469.92427396 135.22961724 475.30707302 126.375 480.3125 C125.66778809 480.7146875 124.96057617 481.116875 124.23193359 481.53125 C101.09654164 494.5566741 75.92537591 503.30551461 49.9375 508.625 C49.21860596 508.77235596 48.49971191 508.91971191 47.7590332 509.0715332 C33.08339502 511.86090125 18.55831162 512.66142619 3.64770508 512.62817383 C0.70811513 512.6250221 -2.2304558 512.64854926 -5.16992188 512.67382812 C-18.54306192 512.71848737 -31.43916711 511.51301542 -44.625 509.3125 C-46.33055054 509.03031616 -46.33055054 509.03031616 -48.07055664 508.74243164 C-91.33802759 500.97044532 -132.38793216 480.98345309 -165.625 452.3125 C-166.37007813 451.67828125 -167.11515625 451.0440625 -167.8828125 450.390625 C-181.38779833 438.57948485 -194.05918743 425.82889772 -204.625 411.3125 C-205.48149066 410.16255169 -206.33826433 409.01281411 -207.1953125 407.86328125 C-213.23534209 399.67315742 -218.61867614 391.16870382 -223.625 382.3125 C-224.0271875 381.60528809 -224.429375 380.89807617 -224.84375 380.16943359 C-237.8691741 357.03404164 -246.61801461 331.86287591 -251.9375 305.875 C-252.08485596 305.15610596 -252.23221191 304.43721191 -252.3840332 303.6965332 C-255.35789088 288.05024391 -255.99800362 272.57681954 -255.9375 256.6875 C-255.93534485 255.66959381 -255.9331897 254.65168762 -255.93096924 253.60293579 C-255.88129854 238.99386477 -255.63040191 224.66174147 -252.625 210.3125 C-252.42632324 209.33764648 -252.22764648 208.36279297 -252.02294922 207.35839844 C-241.90232806 158.9765226 -219.9858123 114.98821731 -185.625 79.3125 C-184.99287598 78.65314453 -184.36075195 77.99378906 -183.70947266 77.31445312 C-174.56502521 67.82619695 -165.26765991 59.0862956 -154.625 51.3125 C-153.47394983 50.45443848 -152.32290823 49.59636549 -151.171875 48.73828125 C-142.98224019 42.70072604 -134.47961724 37.31792698 -125.625 32.3125 C-124.91778809 31.9103125 -124.21057617 31.508125 -123.48193359 31.09375 C-100.34654164 18.0683259 -75.17537591 9.31948539 -49.1875 4 C-48.46860596 3.85264404 -47.74971191 3.70528809 -47.0090332 3.5534668 C-31.36274391 0.57960912 -15.88931954 -0.06050362 0 0 Z " fill="#7E00CD" transform="translate(255.625,-0.3125)"/>
<path d="M0 0 C10.30049081 10.11038108 18.21258298 22.30603746 18.703125 37.1484375 C18.71185897 38.74477627 18.7063097 40.34124816 18.6875 41.9375 C18.68000732 42.77676025 18.67251465 43.61602051 18.66479492 44.48071289 C18.36257102 61.87631541 11.61434356 77.319585 -0.4375 89.9375 C-12.03668779 101.06325155 -25.52553697 110.06272321 -38.7109375 119.17578125 C-44.04553838 122.89969346 -49.30102137 126.73597008 -54.5625 130.5625 C-29.8125 130.8925 -5.0625 131.2225 20.4375 131.5625 C20.4375 145.4225 20.4375 159.2825 20.4375 173.5625 C-28.4025 173.5625 -77.2425 173.5625 -127.5625 173.5625 C-127.5625 160.3625 -127.5625 147.1625 -127.5625 133.5625 C-123.6025 130.5925 -119.6425 127.6225 -115.5625 124.5625 C-112.163549 121.98309954 -108.7669961 119.40099085 -105.375 116.8125 C-104.47136719 116.12349609 -103.56773437 115.43449219 -102.63671875 114.72460938 C-96.42884418 109.99001208 -90.22211709 105.25383569 -84.02783203 100.50146484 C-80.1220791 97.50745334 -76.20020264 94.53679583 -72.26171875 91.5859375 C-62.60235928 84.32964237 -53.11816074 77.11816074 -44.5625 68.5625 C-43.93214844 67.93214844 -43.30179687 67.30179687 -42.65234375 66.65234375 C-37.52670101 61.12370208 -34.38783383 54.98575353 -34.125 47.375 C-34.29587488 43.14256061 -35.33692181 40.21244823 -37.5625 36.5625 C-37.8925 35.5725 -38.2225 34.5825 -38.5625 33.5625 C-40.85784258 32.42704438 -40.85784258 32.42704438 -43.5625 31.5625 C-44.32175781 31.22476563 -45.08101563 30.88703125 -45.86328125 30.5390625 C-53.68739665 27.70834058 -61.30402227 28.98537895 -68.6875 32.4375 C-77.78034777 37.43501834 -85.26486968 44.31043268 -91.5625 52.5625 C-97.09791308 48.54661208 -102.34689017 44.25689425 -107.54907227 39.82324219 C-116.76668865 31.81367022 -116.76668865 31.81367022 -126.5625 24.5625 C-125.13661377 20.12280878 -122.7169822 17.1413288 -119.5625 13.8125 C-119.07120605 13.28881836 -118.57991211 12.76513672 -118.07373047 12.22558594 C-88.6972822 -18.72780442 -34.7793106 -30.00567974 0 0 Z " fill="#FCF9FD" transform="translate(257.5625,177.4375)"/>
<path d="M0 0 C0 62.7 0 125.4 0 190 C-17.16 190 -34.32 190 -52 190 C-52.33 143.8 -52.66 97.6 -53 50 C-65.87 52.97 -65.87 52.97 -79 56 C-80.32 56 -81.64 56 -83 56 C-83.30292969 54.90945312 -83.60585938 53.81890625 -83.91796875 52.6953125 C-84.11825684 51.97496826 -84.31854492 51.25462402 -84.52490234 50.51245117 C-84.9706791 48.90624228 -85.41498947 47.29962577 -85.85791016 45.69262695 C-87.03171389 41.44203464 -88.22864491 37.20098369 -89.48046875 32.97265625 C-89.71419189 32.17005371 -89.94791504 31.36745117 -90.1887207 30.54052734 C-90.63789915 29.00044129 -91.09574633 27.46285065 -91.56323242 25.92822266 C-92.71604878 21.93514072 -93.27565872 19.0080882 -92 15 C-91.11183594 14.79246094 -90.22367187 14.58492187 -89.30859375 14.37109375 C-79.96382806 12.11741161 -70.77992345 9.48812339 -61.59936523 6.63842773 C-38.68368444 -0.46970507 -27.24972726 0 0 0 Z " fill="#FAF5FD" transform="translate(383,162)"/>
<path d="M0 0 C1.05960937 -0.020625 2.11921875 -0.04125 3.2109375 -0.0625 C18.07908817 -0.13538309 33.71155851 5.24469118 44.75 15.5 C53.48195052 25.15022447 57.08323377 36.68956631 56.87890625 49.48046875 C55.62414394 68.10886308 47.78238119 80.33137368 33.98046875 92.49609375 C23.00345327 101.67116448 11.08091472 109.7679199 -0.79296875 117.72387695 C-10.29048513 123.35842757 -10.29048513 123.35842757 -17.375 131.25 C-17.79448626 134.6358534 -17.86914522 137.87068431 -17.375 141.25 C-15.12442433 144.33798674 -15.12442433 144.33798674 -12.375 146.25 C-12.045 146.58 -11.715 146.91 -11.375 147.25 C-9.19768611 147.37401914 -7.01636546 147.4280151 -4.83569336 147.45532227 C-4.15279739 147.46522186 -3.46990143 147.47512146 -2.76631165 147.48532104 C-0.49919147 147.51701935 1.76794969 147.54172613 4.03515625 147.56640625 C5.60315001 147.5869686 7.17113813 147.60796488 8.73912048 147.62937927 C12.87370248 147.68467424 17.00833511 147.73405062 21.14300537 147.78222656 C25.35905483 147.83238753 29.57503043 147.88810174 33.79101562 147.94335938 C42.06894976 148.05103173 50.34694637 148.15194345 58.625 148.25 C58.625 154.19 58.625 160.13 58.625 166.25 C17.705 166.25 -23.215 166.25 -65.375 166.25 C-65.375 158.99 -65.375 151.73 -65.375 144.25 C-57.63452084 136.92792512 -57.63452084 136.92792512 -54 134.9609375 C-49.317247 132.2831111 -45.16698366 129.14809069 -40.9375 125.8125 C-39.51330677 124.71798264 -38.087517 123.62553963 -36.66015625 122.53515625 C-35.95262207 121.99262207 -35.24508789 121.45008789 -34.51611328 120.89111328 C-31.67807168 118.71582073 -28.83759674 116.54372204 -25.99658203 114.37231445 C-24.5841512 113.29226809 -23.17236504 112.21137812 -21.76123047 111.12963867 C-18.17040729 108.3783309 -14.56980294 105.64174155 -10.94921875 102.9296875 C-2.32121685 96.44603014 5.92759896 89.8311261 13.625 82.25 C14.39585937 81.49203125 15.16671875 80.7340625 15.9609375 79.953125 C24.32196957 71.18802818 28.06015477 61.18801525 27.8984375 49.15625 C27.10362275 40.70850465 22.92102447 33.80531571 16.625 28.25 C7.4240482 21.80612783 -2.35470105 21.28641607 -13.375 22.25 C-23.05058635 24.80949674 -31.95665032 30.43016572 -38.75 37.75 C-39.61625 38.575 -40.4825 39.4 -41.375 40.25 C-44.60341562 39.96235545 -46.44047621 38.62759037 -48.828125 36.52734375 C-49.446875 35.98916016 -50.065625 35.45097656 -50.703125 34.89648438 C-51.33734375 34.33251953 -51.9715625 33.76855469 -52.625 33.1875 C-53.2746875 32.61966797 -53.924375 32.05183594 -54.59375 31.46679688 C-56.19299717 30.0674556 -57.78474119 28.65954759 -59.375 27.25 C-55.7074013 19.64199786 -49.26943634 14.92551828 -42.3125 10.4375 C-41.73532227 10.06471924 -41.15814453 9.69193848 -40.56347656 9.30786133 C-27.81794623 1.34100221 -14.70036315 0.07101625 0 0 Z " fill="#7D02CD" transform="translate(207.375,172.75)"/>
<path d="M0 0 C0 54.78 0 109.56 0 166 C-9.24 166 -18.48 166 -28 166 C-28.00410889 161.96692627 -28.00821777 157.93385254 -28.01245117 153.77856445 C-28.02963303 140.46719046 -28.07385606 127.15602224 -28.13209057 113.84476948 C-28.16674268 105.77254019 -28.19209636 97.70048172 -28.19555664 89.62817383 C-28.19859625 82.59226148 -28.21908597 75.55665331 -28.26052457 68.52085847 C-28.28185699 64.79541668 -28.29445423 61.07040735 -28.28615379 57.34490395 C-28.27721393 53.18564547 -28.30723301 49.02754263 -28.34057617 44.8684082 C-28.33195053 43.63338562 -28.32332489 42.39836304 -28.31443787 41.12591553 C-28.18381332 34.38620805 -28.18381332 34.38620805 -31.35371399 28.75822449 C-36.07369821 25.62220978 -40.47235795 25.33749994 -46.01757812 26.37890625 C-48.10699766 26.88195133 -50.17842814 27.42799881 -52.25 28 C-59.65540541 30 -59.65540541 30 -63 30 C-63.50904657 28.12743583 -64.00682455 26.25180659 -64.5 24.375 C-64.7784375 23.33085937 -65.056875 22.28671875 -65.34375 21.2109375 C-65.99118596 18.04312582 -66.1161292 15.22258533 -66 12 C-54.03085405 8.26829467 -42.0913612 4.61152423 -29.88671875 1.7265625 C-23.02688172 0 -23.02688172 0 0 0 Z " fill="#8608CE" transform="translate(371,174)"/>
</svg>
