<?xml version="1.0" encoding="UTF-8"?>
<svg version="1.1" xmlns="http://www.w3.org/2000/svg" width="512" height="512">
<path d="M0 0 C1.01790619 0.00215515 2.03581238 0.0043103 3.08456421 0.00653076 C17.69363523 0.05620146 32.02575853 0.30709809 46.375 3.3125 C47.34985352 3.51117676 48.32470703 3.70985352 49.32910156 3.91455078 C97.7109774 14.03517194 141.69928269 35.9516877 177.375 70.3125 C178.3640332 71.26068604 178.3640332 71.26068604 179.37304688 72.22802734 C188.86130305 81.37247479 197.6012044 90.66984009 205.375 101.3125 C206.23306152 102.46355017 207.09113451 103.61459177 207.94921875 104.765625 C213.98736829 112.95680614 219.34595521 121.47054105 224.375 130.3125 C224.73948242 130.94430176 225.10396484 131.57610352 225.47949219 132.22705078 C247.08534998 169.97532572 256.85198095 212.74189997 256.6875 255.9375 C256.68534485 256.95540619 256.6831897 257.97331238 256.68096924 259.02206421 C256.63129854 273.63113523 256.38040191 287.96325853 253.375 302.3125 C253.07698486 303.77478027 253.07698486 303.77478027 252.77294922 305.26660156 C242.65232806 353.6484774 220.7358123 397.63678269 186.375 433.3125 C185.74287598 433.97185547 185.11075195 434.63121094 184.45947266 435.31054688 C175.31502521 444.79880305 166.01765991 453.5387044 155.375 461.3125 C154.22394983 462.17056152 153.07290823 463.02863451 151.921875 463.88671875 C143.73224019 469.92427396 135.22961724 475.30707302 126.375 480.3125 C125.66778809 480.7146875 124.96057617 481.116875 124.23193359 481.53125 C101.09654164 494.5566741 75.92537591 503.30551461 49.9375 508.625 C49.21860596 508.77235596 48.49971191 508.91971191 47.7590332 509.0715332 C33.08339502 511.86090125 18.55831162 512.66142619 3.64770508 512.62817383 C0.70811513 512.6250221 -2.2304558 512.64854926 -5.16992188 512.67382812 C-18.54306192 512.71848737 -31.43916711 511.51301542 -44.625 509.3125 C-46.33055054 509.03031616 -46.33055054 509.03031616 -48.07055664 508.74243164 C-91.33802759 500.97044532 -132.38793216 480.98345309 -165.625 452.3125 C-166.37007813 451.67828125 -167.11515625 451.0440625 -167.8828125 450.390625 C-181.38779833 438.57948485 -194.05918743 425.82889772 -204.625 411.3125 C-205.48149066 410.16255169 -206.33826433 409.01281411 -207.1953125 407.86328125 C-213.23534209 399.67315742 -218.61867614 391.16870382 -223.625 382.3125 C-224.0271875 381.60528809 -224.429375 380.89807617 -224.84375 380.16943359 C-237.8691741 357.03404164 -246.61801461 331.86287591 -251.9375 305.875 C-252.08485596 305.15610596 -252.23221191 304.43721191 -252.3840332 303.6965332 C-255.35789088 288.05024391 -255.99800362 272.57681954 -255.9375 256.6875 C-255.93534485 255.66959381 -255.9331897 254.65168762 -255.93096924 253.60293579 C-255.88129854 238.99386477 -255.63040191 224.66174147 -252.625 210.3125 C-252.42632324 209.33764648 -252.22764648 208.36279297 -252.02294922 207.35839844 C-241.90232806 158.9765226 -219.9858123 114.98821731 -185.625 79.3125 C-184.99287598 78.65314453 -184.36075195 77.99378906 -183.70947266 77.31445312 C-174.56502521 67.82619695 -165.26765991 59.0862956 -154.625 51.3125 C-153.47394983 50.45443848 -152.32290823 49.59636549 -151.171875 48.73828125 C-142.98224019 42.70072604 -134.47961724 37.31792698 -125.625 32.3125 C-124.91778809 31.9103125 -124.21057617 31.508125 -123.48193359 31.09375 C-100.34654164 18.0683259 -75.17537591 9.31948539 -49.1875 4 C-48.46860596 3.85264404 -47.74971191 3.70528809 -47.0090332 3.5534668 C-31.36274391 0.57960912 -15.88931954 -0.06050362 0 0 Z " fill="#7800C7" transform="translate(255.625,-0.3125)"/>
<path d="M0 0 C11.24954394 10.48977082 19.35861565 23.3005056 20.0390625 39.01171875 C20.5185821 59.61170885 14.49947309 75.85749927 0.3828125 91.078125 C-8.81999458 100.29481263 -19.2723599 107.74035931 -29.96044922 115.11621094 C-33.83146186 117.79672523 -37.67415375 120.51727943 -41.51953125 123.234375 C-42.23077148 123.73509521 -42.94201172 124.23581543 -43.67480469 124.75170898 C-44.67495605 125.45662476 -44.67495605 125.45662476 -45.6953125 126.17578125 C-46.27837158 126.58642822 -46.86143066 126.9970752 -47.4621582 127.42016602 C-49.39793896 128.8088253 -51.30114618 130.2424612 -53.20703125 131.671875 C-28.45703125 132.001875 -3.70703125 132.331875 21.79296875 132.671875 C21.79296875 146.531875 21.79296875 160.391875 21.79296875 174.671875 C-27.04703125 174.671875 -75.88703125 174.671875 -126.20703125 174.671875 C-126.20703125 161.471875 -126.20703125 148.271875 -126.20703125 134.671875 C-120.92703125 130.711875 -115.64703125 126.751875 -110.20703125 122.671875 C-107.38993865 120.53144851 -104.57549451 118.38913883 -101.76953125 116.234375 C-100.33855219 115.1380071 -98.9075623 114.04165334 -97.4765625 112.9453125 C-96.76838379 112.40229492 -96.06020508 111.85927734 -95.33056641 111.29980469 C-92.56550972 109.18007625 -89.79873223 107.06260537 -87.03125 104.94604492 C-85.64667342 103.88691554 -84.26255975 102.82718073 -82.87890625 101.7668457 C-78.87196852 98.69868937 -74.85244258 95.64827163 -70.8203125 92.61328125 C-57.51780372 82.73151837 -57.51780372 82.73151837 -45.20703125 71.671875 C-44.47355469 70.93839844 -43.74007812 70.20492187 -42.984375 69.44921875 C-37.08592411 63.2082081 -33.09759922 57.25035126 -32.76953125 48.484375 C-33.05518689 42.53168009 -34.73326118 39.11289462 -39.01953125 34.921875 C-45.6088558 30.27058708 -52.3046651 29.60735723 -60.20703125 30.671875 C-69.10334576 33.62608045 -75.65557854 39.15328911 -82.20703125 45.671875 C-82.99851563 46.44917969 -83.79 47.22648437 -84.60546875 48.02734375 C-86.48865237 49.89400821 -88.355548 51.77384608 -90.20703125 53.671875 C-95.74244433 49.65598708 -100.99142142 45.36626925 -106.19360352 40.93261719 C-115.4112199 32.92304522 -115.4112199 32.92304522 -125.20703125 25.671875 C-123.78114502 21.23218378 -121.36151345 18.2507038 -118.20703125 14.921875 C-117.7157373 14.39819336 -117.22444336 13.87451172 -116.71826172 13.33496094 C-87.68564134 -17.25614469 -35.00474705 -28.74562009 0 0 Z " fill="#FEFDFE" transform="translate(256.20703125,176.328125)"/>
<path d="M0 0 C0 62.7 0 125.4 0 190 C-17.16 190 -34.32 190 -52 190 C-52.33 143.8 -52.66 97.6 -53 50 C-62.24 51.98 -71.48 53.96 -81 56 C-81.99 56 -82.98 56 -84 56 C-84.20157715 55.12263184 -84.4031543 54.24526367 -84.61083984 53.34130859 C-85.36518407 50.06439567 -86.12214949 46.78811076 -86.88085938 43.51220703 C-87.20774719 42.09838492 -87.53361003 40.6843254 -87.85839844 39.27001953 C-88.32733569 37.22884788 -88.80003926 35.18857856 -89.2734375 33.1484375 C-89.55622559 31.92302246 -89.83901367 30.69760742 -90.13037109 29.43505859 C-90.93025131 26.01269631 -90.93025131 26.01269631 -92.17041016 22.86572266 C-93.06885938 19.7621332 -92.90088636 18.06301363 -92 15 C-91.4237085 14.8548999 -90.84741699 14.7097998 -90.25366211 14.56030273 C-76.22399006 11.00966011 -62.3508524 7.10210445 -48.54101562 2.77441406 C-30.21743329 -2.80998286 -28.05394799 0 0 0 Z " fill="#FCFAFD" transform="translate(383,162)"/>
<path d="M0 0 C4.47777537 2.92112385 8.13243597 7.12387041 9.8203125 12.1875 C11.09447738 20.68730876 8.64278934 27.21982331 3.8203125 34.1875 C-2.36449415 41.48593108 -10.59090147 50.85717064 -19.1796875 55.1875 C-23.3817331 54.85646804 -25.45277312 52.27624791 -28.31542969 49.39233398 C-28.81344589 48.89475586 -29.3114621 48.39717773 -29.8245697 47.88452148 C-31.46578011 46.24122425 -33.09611413 44.58756365 -34.7265625 42.93359375 C-35.86362244 41.79093749 -37.00134738 40.64894262 -38.13970947 39.50758362 C-41.13182226 36.50402494 -44.11481609 33.49156586 -47.0960083 30.47717285 C-50.14058684 27.40188808 -53.193692 24.33509455 -56.24609375 21.26757812 C-62.23234268 15.24916955 -68.20898595 9.22133283 -74.1796875 3.1875 C-73.8496875 2.5275 -73.5196875 1.8675 -73.1796875 1.1875 C-71.83777344 2.34765625 -71.83777344 2.34765625 -70.46875 3.53125 C-63.47810815 9.55866784 -56.44706571 15.49416223 -49.1796875 21.1875 C-45.16841111 17.85899406 -41.45992229 14.46562502 -37.8671875 10.6875 C-27.93792502 0.62245274 -13.94877664 -6.06976055 0 0 Z " fill="#5903A3" transform="translate(214.1796875,207.8125)"/>
</svg>
