<?xml version="1.0" encoding="UTF-8"?>
<svg version="1.1" xmlns="http://www.w3.org/2000/svg" width="512" height="512">
<path d="M0 0 C1.01790619 0.00215515 2.03581238 0.0043103 3.08456421 0.00653076 C17.69363523 0.05620146 32.02575853 0.30709809 46.375 3.3125 C47.34985352 3.51117676 48.32470703 3.70985352 49.32910156 3.91455078 C97.7109774 14.03517194 141.69928269 35.9516877 177.375 70.3125 C178.3640332 71.26068604 178.3640332 71.26068604 179.37304688 72.22802734 C188.86130305 81.37247479 197.6012044 90.66984009 205.375 101.3125 C206.23306152 102.46355017 207.09113451 103.61459177 207.94921875 104.765625 C213.98736829 112.95680614 219.34595521 121.47054105 224.375 130.3125 C224.73948242 130.94430176 225.10396484 131.57610352 225.47949219 132.22705078 C247.08534998 169.97532572 256.85198095 212.74189997 256.6875 255.9375 C256.68534485 256.95540619 256.6831897 257.97331238 256.68096924 259.02206421 C256.63129854 273.63113523 256.38040191 287.96325853 253.375 302.3125 C253.07698486 303.77478027 253.07698486 303.77478027 252.77294922 305.26660156 C242.65232806 353.6484774 220.7358123 397.63678269 186.375 433.3125 C185.74287598 433.97185547 185.11075195 434.63121094 184.45947266 435.31054688 C175.31502521 444.79880305 166.01765991 453.5387044 155.375 461.3125 C154.22394983 462.17056152 153.07290823 463.02863451 151.921875 463.88671875 C143.73224019 469.92427396 135.22961724 475.30707302 126.375 480.3125 C125.66778809 480.7146875 124.96057617 481.116875 124.23193359 481.53125 C101.09654164 494.5566741 75.92537591 503.30551461 49.9375 508.625 C49.21860596 508.77235596 48.49971191 508.91971191 47.7590332 509.0715332 C33.08339502 511.86090125 18.55831162 512.66142619 3.64770508 512.62817383 C0.70811513 512.6250221 -2.2304558 512.64854926 -5.16992188 512.67382812 C-18.54306192 512.71848737 -31.43916711 511.51301542 -44.625 509.3125 C-46.33055054 509.03031616 -46.33055054 509.03031616 -48.07055664 508.74243164 C-91.33802759 500.97044532 -132.38793216 480.98345309 -165.625 452.3125 C-166.37007813 451.67828125 -167.11515625 451.0440625 -167.8828125 450.390625 C-181.38779833 438.57948485 -194.05918743 425.82889772 -204.625 411.3125 C-205.48149066 410.16255169 -206.33826433 409.01281411 -207.1953125 407.86328125 C-213.23534209 399.67315742 -218.61867614 391.16870382 -223.625 382.3125 C-224.0271875 381.60528809 -224.429375 380.89807617 -224.84375 380.16943359 C-237.8691741 357.03404164 -246.61801461 331.86287591 -251.9375 305.875 C-252.08485596 305.15610596 -252.23221191 304.43721191 -252.3840332 303.6965332 C-255.35789088 288.05024391 -255.99800362 272.57681954 -255.9375 256.6875 C-255.93534485 255.66959381 -255.9331897 254.65168762 -255.93096924 253.60293579 C-255.88129854 238.99386477 -255.63040191 224.66174147 -252.625 210.3125 C-252.42632324 209.33764648 -252.22764648 208.36279297 -252.02294922 207.35839844 C-241.90232806 158.9765226 -219.9858123 114.98821731 -185.625 79.3125 C-184.99287598 78.65314453 -184.36075195 77.99378906 -183.70947266 77.31445312 C-174.56502521 67.82619695 -165.26765991 59.0862956 -154.625 51.3125 C-153.47394983 50.45443848 -152.32290823 49.59636549 -151.171875 48.73828125 C-142.98224019 42.70072604 -134.47961724 37.31792698 -125.625 32.3125 C-124.91778809 31.9103125 -124.21057617 31.508125 -123.48193359 31.09375 C-100.34654164 18.0683259 -75.17537591 9.31948539 -49.1875 4 C-48.46860596 3.85264404 -47.74971191 3.70528809 -47.0090332 3.5534668 C-31.36274391 0.57960912 -15.88931954 -0.06050362 0 0 Z " fill="#F8375F" transform="translate(255.625,-0.3125)"/>
<path d="M0 0 C29.36819527 23.7286198 43.42733357 57.94924767 47.41015625 94.8203125 C47.69134241 99.9075883 47.74491046 104.97600669 47.72265625 110.0703125 C47.71942352 111.08677856 47.71942352 111.08677856 47.71612549 112.1237793 C47.66092451 122.98401256 46.94160263 133.25682591 44.41015625 143.8203125 C44.20616211 144.7165332 44.00216797 145.61275391 43.79199219 146.53613281 C38.41080872 169.93292323 29.65964814 190.82211701 13.41015625 208.8203125 C12.5903125 209.73425781 11.77046875 210.64820313 10.92578125 211.58984375 C-2.10281277 225.37008742 -19.18672346 235.20315954 -37.58984375 239.8203125 C-38.61464844 240.10841797 -38.61464844 240.10841797 -39.66015625 240.40234375 C-65.01266924 247.31214631 -92.68463322 242.24188597 -115.42285156 229.81884766 C-122.92643834 225.43264022 -129.34546848 219.81819927 -135.58984375 213.8203125 C-136.37359375 213.088125 -137.15734375 212.3559375 -137.96484375 211.6015625 C-150.11557104 199.94343226 -158.85771753 184.5790518 -164.58984375 168.8203125 C-164.82944824 168.17594238 -165.06905273 167.53157227 -165.31591797 166.86767578 C-179.68856133 127.55936202 -178.72064725 81.85515311 -161.46655273 43.57006836 C-148.65548579 16.62738273 -127.33923757 -5.11686787 -99.1328125 -15.671875 C-65.90974115 -27.18302851 -27.96645787 -21.51823313 0 0 Z " fill="#FEFDFE" transform="translate(390.58984375,145.1796875)"/>
<path d="M0 0 C0 85.14 0 170.28 0 258 C-21.45 258 -42.9 258 -65 258 C-65 197.61 -65 137.22 -65 75 C-77.87 77.64 -90.74 80.28 -104 83 C-106.475 83.495 -106.475 83.495 -109 84 C-109 63.87 -109 43.74 -109 23 C-93.86149614 19.50649911 -78.88713957 16.1321412 -63.64453125 13.28125 C-53.19284203 11.29370547 -42.80396006 9.00601251 -32.40966797 6.74072266 C-29.00505445 6.00109804 -25.59856237 5.27078269 -22.19140625 4.54296875 C-20.08591815 4.09123602 -17.98044847 3.63941739 -15.875 3.1875 C-14.90280518 2.98060547 -13.93061035 2.77371094 -12.92895508 2.56054688 C-12.04232178 2.36912109 -11.15568848 2.17769531 -10.2421875 1.98046875 C-9.4672998 1.81442139 -8.69241211 1.64837402 -7.89404297 1.47729492 C-2.03171355 0 -2.03171355 0 0 0 Z " fill="#FEFDFD" transform="translate(183,125)"/>
<path d="M0 0 C14.13836444 12.22592867 19.49590074 30.79995485 20.99743652 48.84786987 C21.23977454 53.22618762 21.28429729 57.59795919 21.25854492 61.98217773 C21.24998439 64.19152844 21.27905454 66.39831998 21.31054688 68.60742188 C21.40704015 88.41033646 15.73723382 108.27359498 1.9375 122.9375 C-5.56800083 130.12848461 -14.71016865 133.02475625 -25.0625 132.9375 C-25.76576416 132.93186035 -26.46902832 132.9262207 -27.19360352 132.92041016 C-37.74802273 132.67430688 -45.6022163 128.78064649 -53.3203125 121.65625 C-68.08500953 106.16173905 -71.5648194 84.58640529 -71.50317383 64.01733398 C-71.50001871 61.82549979 -71.52355192 59.63502761 -71.54882812 57.44335938 C-71.638693 37.52256767 -66.92677192 17.73767392 -52.9375 2.8125 C-38.69066258 -10.78456611 -15.8145558 -11.320404 0 0 Z " fill="#F8385F" transform="translate(352.1875,193.375)"/>
</svg>
