<?xml version="1.0" encoding="UTF-8"?>
<svg version="1.1" xmlns="http://www.w3.org/2000/svg" width="512" height="512">
<path d="M0 0 C0.97004974 0.00054382 1.94009949 0.00108765 2.93954468 0.00164795 C18.52959355 0.04175695 33.42847441 0.93519548 48.6875 4.375 C49.64736816 4.58398926 50.60723633 4.79297852 51.59619141 5.00830078 C80.2685358 11.40174988 108.95834183 22.82492924 132.6875 40.375 C133.63753906 41.055625 134.58757812 41.73625 135.56640625 42.4375 C153.73583714 55.70331655 171.19163531 71.3029513 184.6875 89.375 C185.28353027 90.17236572 185.28353027 90.17236572 185.89160156 90.98583984 C213.2825635 127.86799082 232.50567972 173.37660331 232.92578125 219.8671875 C232.9355751 220.7623558 232.94536896 221.65752411 232.95545959 222.57981873 C233.12573691 242.18841214 233.02999617 261.15433201 228.6875 280.375 C228.36604004 281.83873047 228.36604004 281.83873047 228.03808594 283.33203125 C220.76490765 315.64315227 206.83081463 346.07792326 186.6875 372.375 C186.06488281 373.19097656 185.44226563 374.00695312 184.80078125 374.84765625 C179.45585324 381.68873044 173.66226326 388.08618364 167.6875 394.375 C167.18057617 394.91060547 166.67365234 395.44621094 166.15136719 395.99804688 C158.24435312 404.29473911 149.87053471 411.52971536 140.6875 418.375 C139.26630859 419.45394531 139.26630859 419.45394531 137.81640625 420.5546875 C102.37172562 446.99672791 57.04468694 464.18478067 12.5703125 464.61328125 C11.72377609 464.6230751 10.87723969 464.63286896 10.00505066 464.64295959 C-9.44137648 464.82143239 -28.21794843 464.49964915 -47.3125 460.375 C-48.80402588 460.05354004 -48.80402588 460.05354004 -50.32568359 459.72558594 C-91.97405991 450.40709236 -130.04000429 429.80397408 -160.578125 400.0625 C-162.21797243 398.46697277 -163.87290286 396.88875075 -165.53125 395.3125 C-172.89539158 388.22826139 -179.19856064 380.54957236 -185.3125 372.375 C-186.03308594 371.42625 -186.75367188 370.4775 -187.49609375 369.5 C-213.72878924 334.31852925 -231.15164276 289.05351947 -231.55078125 244.8828125 C-231.5605751 243.9876442 -231.57036896 243.09247589 -231.58045959 242.17018127 C-231.75073691 222.56158786 -231.65499617 203.59566799 -227.3125 184.375 C-227.09819336 183.39917969 -226.88388672 182.42335937 -226.66308594 181.41796875 C-219.03635396 147.53618418 -204.05558068 115.49703096 -182.3125 88.375 C-181.53132813 87.39015625 -180.75015625 86.4053125 -179.9453125 85.390625 C-168.94929923 71.8219837 -156.34487534 58.80776601 -142.3125 48.375 C-141.78237305 47.97909668 -141.25224609 47.58319336 -140.70605469 47.17529297 C-109.6058955 24.0761149 -74.55095875 8.73057266 -36.3125 2.375 C-35.25426025 2.19549805 -34.19602051 2.01599609 -33.10571289 1.83105469 C-22.06915087 0.14737094 -11.1451623 -0.02353331 0 0 Z " fill="#F6A329" transform="translate(255.3125,23.625)"/>
<path d="M0 0 C8.29425308 6.68241442 14.83621414 14.64662952 16.875 25.3125 C17.82167983 39.09367527 16.23192515 50.54366031 6.875 61.3125 C5.91634644 62.47890355 4.95798605 63.64554815 4 64.8125 C3.29875 65.6375 2.5975 66.4625 1.875 67.3125 C2.83599609 68.11300781 2.83599609 68.11300781 3.81640625 68.9296875 C14.60217036 78.22055435 21.78576249 87.96512696 23.18359375 102.52734375 C23.30933477 108.39279256 22.83190469 113.77812893 20.875 119.3125 C20.545 120.24964844 20.215 121.18679688 19.875 122.15234375 C14.46494303 136.2647621 5.43910471 145.60891287 -8.16796875 152.02734375 C-27.75259476 160.53902401 -51.86451381 159.37224219 -71.57128906 151.76269531 C-81.31196197 147.74844459 -81.31196197 147.74844459 -84.125 143.3125 C-85.72186531 135.8604619 -82.36168497 128.00164893 -79.125 121.3125 C-76.57891353 118.07477714 -75.28473386 116.50655905 -71.18359375 115.8203125 C-67.69199983 116.38217819 -65.2829608 117.48723375 -62.1875 119.1875 C-51.47861166 125.02871182 -39.00407216 126.3057611 -27.0625 123.625 C-21.49257114 121.36692073 -17.82404696 117.71059392 -15.125 112.3125 C-14.63171245 106.45774289 -14.26755712 101.12265719 -16.8125 95.75 C-22.88560931 89.34861452 -29.72677443 85.63188516 -38.64868164 85.18652344 C-39.51871826 85.18168945 -40.38875488 85.17685547 -41.28515625 85.171875 C-42.7227832 85.14287109 -42.7227832 85.14287109 -44.18945312 85.11328125 C-46.19185303 85.07936438 -48.19458018 85.06119295 -50.19726562 85.05859375 C-57.33573829 84.87592576 -57.33573829 84.87592576 -60.7734375 82.421875 C-62.75386407 77.86574913 -62.74500307 73.73070348 -62.6875 68.8125 C-62.71134766 67.87535156 -62.73519531 66.93820313 -62.75976562 65.97265625 C-62.75044375 61.59137328 -62.53499578 58.98654655 -60.2265625 55.19140625 C-55.79360429 52.5059492 -52.02390477 52.69831614 -46.9375 52.75 C-37.5746001 52.57376472 -30.45817619 51.93821885 -23.0625 45.75 C-19.84026465 41.69622004 -19.86386732 38.36106519 -20.125 33.3125 C-21.21377218 29.32033533 -22.55158786 27.41450714 -26.125 25.3125 C-35.53896639 22.23235431 -45.80111523 23.85052013 -54.5390625 27.92578125 C-56.3064348 28.87354132 -58.03980083 29.88681442 -59.73828125 30.953125 C-63.06515142 32.84797086 -65.36194083 32.7914348 -69.125 32.3125 C-73.29759382 29.13646742 -74.67009248 25.1461315 -76.375 20.375 C-76.7771875 19.32022461 -76.7771875 19.32022461 -77.1875 18.24414062 C-79.88058667 10.91372358 -79.88058667 10.91372358 -79.125 7.3125 C-62.37784559 -13.32572188 -20.75139516 -14.65998758 0 0 Z " fill="#F2F1F0" transform="translate(224.125,181.6875)"/>
<path d="M0 0 C9.88270005 8.3634193 14.94527605 18.54152391 18.1171875 30.96484375 C19.94923222 53.40739154 11.70761823 73.41851016 -2.53515625 90.59765625 C-6.16666553 94.80398544 -9.88635883 98.92347712 -13.6328125 103.02734375 C-15.8558278 105.51936258 -18.07773462 108.01234238 -20.296875 110.5078125 C-22.25143676 112.61599366 -24.2431285 114.65609876 -26.27880859 116.68481445 C-26.90741791 117.31176712 -27.53602722 117.93871979 -28.1836853 118.58467102 C-28.90100327 119.29879402 -28.90100327 119.29879402 -29.6328125 120.02734375 C-28.80049103 120.03947403 -28.80049103 120.03947403 -27.95135498 120.05184937 C-22.17615843 120.13790631 -16.40130466 120.23741042 -10.62646484 120.34472656 C-8.47124997 120.38300977 -6.31597134 120.41786379 -4.16064453 120.44921875 C-1.06259374 120.49488325 2.03501841 120.55287587 5.1328125 120.61328125 C6.09648743 120.62483246 7.06016235 120.63638367 8.05303955 120.64828491 C9.40398712 120.67808945 9.40398712 120.67808945 10.78222656 120.70849609 C11.96803314 120.7284816 11.96803314 120.7284816 13.17779541 120.74887085 C15.66937873 121.06578002 17.24972239 121.68256606 19.3671875 123.02734375 C22.40759039 127.58794808 21.69609123 132.10082389 21.6796875 137.46484375 C21.70385742 139.03975586 21.70385742 139.03975586 21.72851562 140.64648438 C21.72916016 141.65775391 21.72980469 142.66902344 21.73046875 143.7109375 C21.73344971 144.63447021 21.73643066 145.55800293 21.73950195 146.50952148 C21.29602901 149.50856179 20.45653378 150.85588208 18.3671875 153.02734375 C15.67718647 153.92401076 14.11732248 154.157811 11.35757446 154.17451477 C10.54450333 154.18167007 9.73143219 154.18882538 8.89372253 154.19619751 C8.00534195 154.19888641 7.11696136 154.20157532 6.20166016 154.2043457 C5.2631572 154.2109169 4.32465424 154.2174881 3.35771179 154.22425842 C0.2488904 154.2439858 -2.85988274 154.2556515 -5.96875 154.265625 C-7.02991657 154.26970053 -8.09108315 154.27377605 -9.18440628 154.27797508 C-14.79871679 154.29883131 -20.41300288 154.31313618 -26.02734375 154.32250977 C-31.83036952 154.33358599 -37.63301308 154.36800136 -43.43590355 154.40768147 C-47.89513878 154.43380134 -52.35428218 154.44219739 -56.81358719 154.44579124 C-58.95303561 154.45066751 -61.09247965 154.46231094 -63.23185349 154.48082924 C-66.22437807 154.50512659 -69.21590347 154.50427297 -72.20849609 154.49731445 C-73.09282822 154.51012451 -73.97716034 154.52293457 -74.88829041 154.53613281 C-79.00523095 154.50121538 -81.09742612 154.36422424 -84.65933228 152.12297058 C-89.0208435 147.49150793 -88.24730243 141.25131845 -88.07421875 135.21875 C-87.74200624 130.56269511 -86.56893814 128.19954354 -83.08984375 125.04296875 C-81.87361328 124.04523438 -81.87361328 124.04523438 -80.6328125 123.02734375 C-79.0991487 121.61039402 -77.56646027 120.19233416 -76.04370117 118.76367188 C-74.82840694 117.62463466 -73.60831571 116.49069883 -72.3840332 115.36132812 C-66.2666037 109.70022579 -60.32447334 103.86872166 -54.41717529 97.98995972 C-53.32696244 96.9058221 -52.23493311 95.82350751 -51.14093018 94.74319458 C-28.06883677 72.29681053 -28.06883677 72.29681053 -18.3828125 42.83984375 C-18.45928678 36.41600432 -19.28850965 31.3716466 -24.0078125 26.65234375 C-30.72163073 22.49617056 -36.87569563 22.1995766 -44.6328125 23.02734375 C-51.10380147 24.73100525 -56.76001604 27.07615271 -61.9453125 31.33984375 C-64.61654266 33.51974828 -66.41154552 34.49828764 -69.8828125 34.71484375 C-73.6328125 34.02734375 -73.6328125 34.02734375 -75.6640625 31.91796875 C-77.82571908 28.7441079 -79.36620903 25.61709575 -80.8828125 22.08984375 C-81.40359375 20.90519531 -81.924375 19.72054687 -82.4609375 18.5 C-83.64526655 14.99043826 -84.15264474 12.68655503 -83.6328125 9.02734375 C-77.16351282 -0.12894019 -62.36774653 -6.55822472 -51.6328125 -8.97265625 C-33.72851828 -11.67160506 -15.02121528 -11.25476813 0 0 Z " fill="#F2F1F0" transform="translate(350.6328125,182.97265625)"/>
</svg>
