<?xml version="1.0" encoding="UTF-8"?>
<svg version="1.1" xmlns="http://www.w3.org/2000/svg" width="512" height="512">
<path d="M0 0 C8.6427881 8.15614462 16.80968213 16.42633591 24.046875 25.88671875 C24.51673828 26.49128906 24.98660156 27.09585938 25.47070312 27.71875 C51.70734705 61.6957065 67.04999517 101.75628147 74.046875 143.88671875 C74.29244141 145.2958252 74.29244141 145.2958252 74.54296875 146.73339844 C79.24772978 174.62174427 79.62475007 206.10759791 74.046875 233.88671875 C73.84819824 234.89976074 73.64952148 235.91280273 73.44482422 236.95654297 C63.62065948 285.76829179 41.60304275 329.92742049 7.046875 365.88671875 C6.47952637 366.48129883 5.91217773 367.07587891 5.32763672 367.68847656 C-2.68121983 376.03973919 -10.90316198 383.68947694 -20.20263672 390.58056641 C-21.96202186 391.89335727 -23.69460679 393.23623294 -25.42578125 394.5859375 C-35.63970017 402.44506648 -46.59358955 408.82954065 -57.953125 414.88671875 C-59.19376709 415.55018311 -59.19376709 415.55018311 -60.45947266 416.22705078 C-120.96753701 448.04230916 -194.19106076 451.61114378 -258.953125 431.88671875 C-260.1592041 431.52634521 -260.1592041 431.52634521 -261.38964844 431.15869141 C-297.80651449 420.06844168 -330.76387958 399.30258119 -357.953125 372.88671875 C-358.55753418 372.30809082 -359.16194336 371.72946289 -359.78466797 371.13330078 C-368.67144134 362.60916034 -376.65841714 353.80528123 -383.953125 343.88671875 C-384.37932129 343.31598633 -384.80551758 342.74525391 -385.24462891 342.15722656 C-391.75972708 333.41619814 -397.57863542 324.36896785 -402.953125 314.88671875 C-403.34999512 314.19545898 -403.74686523 313.50419922 -404.15576172 312.79199219 C-423.04288001 279.60280772 -434.94790807 239.70962304 -435.15625 201.3828125 C-435.16330963 200.51020782 -435.17036926 199.63760315 -435.17764282 198.73855591 C-435.29512689 179.93421933 -435.31161859 161.44891346 -431.953125 142.88671875 C-431.76508301 141.81099609 -431.57704102 140.73527344 -431.38330078 139.62695312 C-423.86578325 97.83505776 -407.69532417 58.09984703 -380.953125 24.88671875 C-380.5185498 24.33790039 -380.08397461 23.78908203 -379.63623047 23.22363281 C-368.68839926 9.45849849 -356.0507028 -3.57056817 -341.953125 -14.11328125 C-340.91414063 -14.89574219 -339.87515625 -15.67820313 -338.8046875 -16.484375 C-329.5731282 -23.31149127 -319.85672901 -29.31698588 -309.953125 -35.11328125 C-309.33920898 -35.47663574 -308.72529297 -35.83999023 -308.09277344 -36.21435547 C-277.42324715 -54.18088391 -241.08089621 -63.48664461 -205.953125 -67.11328125 C-204.93089844 -67.22414063 -203.90867188 -67.335 -202.85546875 -67.44921875 C-129.3700434 -74.05665675 -54.06739955 -50.50837778 0 0 Z " fill="#BB9AF3" transform="translate(434.953125,68.11328125)"/>
<path d="M0 0 C8.6427881 8.15614462 16.80968213 16.42633591 24.046875 25.88671875 C24.51673828 26.49128906 24.98660156 27.09585938 25.47070312 27.71875 C51.70734705 61.6957065 67.04999517 101.75628147 74.046875 143.88671875 C74.29244141 145.2958252 74.29244141 145.2958252 74.54296875 146.73339844 C79.24772978 174.62174427 79.62475007 206.10759791 74.046875 233.88671875 C73.84819824 234.89976074 73.64952148 235.91280273 73.44482422 236.95654297 C63.62065948 285.76829179 41.60304275 329.92742049 7.046875 365.88671875 C6.47952637 366.48129883 5.91217773 367.07587891 5.32763672 367.68847656 C-2.68121983 376.03973919 -10.90316198 383.68947694 -20.20263672 390.58056641 C-21.96202186 391.89335727 -23.69460679 393.23623294 -25.42578125 394.5859375 C-35.63970017 402.44506648 -46.59358955 408.82954065 -57.953125 414.88671875 C-59.19376709 415.55018311 -59.19376709 415.55018311 -60.45947266 416.22705078 C-120.96753701 448.04230916 -194.19106076 451.61114378 -258.953125 431.88671875 C-260.1592041 431.52634521 -260.1592041 431.52634521 -261.38964844 431.15869141 C-297.80651449 420.06844168 -330.76387958 399.30258119 -357.953125 372.88671875 C-358.55753418 372.30809082 -359.16194336 371.72946289 -359.78466797 371.13330078 C-368.67144134 362.60916034 -376.65841714 353.80528123 -383.953125 343.88671875 C-384.37932129 343.31598633 -384.80551758 342.74525391 -385.24462891 342.15722656 C-391.75972708 333.41619814 -397.57863542 324.36896785 -402.953125 314.88671875 C-403.34999512 314.19545898 -403.74686523 313.50419922 -404.15576172 312.79199219 C-423.04288001 279.60280772 -434.94790807 239.70962304 -435.15625 201.3828125 C-435.16330963 200.51020782 -435.17036926 199.63760315 -435.17764282 198.73855591 C-435.29512689 179.93421933 -435.31161859 161.44891346 -431.953125 142.88671875 C-431.76508301 141.81099609 -431.57704102 140.73527344 -431.38330078 139.62695312 C-423.86578325 97.83505776 -407.69532417 58.09984703 -380.953125 24.88671875 C-380.5185498 24.33790039 -380.08397461 23.78908203 -379.63623047 23.22363281 C-368.68839926 9.45849849 -356.0507028 -3.57056817 -341.953125 -14.11328125 C-340.91414063 -14.89574219 -339.87515625 -15.67820313 -338.8046875 -16.484375 C-329.5731282 -23.31149127 -319.85672901 -29.31698588 -309.953125 -35.11328125 C-309.33920898 -35.47663574 -308.72529297 -35.83999023 -308.09277344 -36.21435547 C-277.42324715 -54.18088391 -241.08089621 -63.48664461 -205.953125 -67.11328125 C-204.93089844 -67.22414063 -203.90867188 -67.335 -202.85546875 -67.44921875 C-129.3700434 -74.05665675 -54.06739955 -50.50837778 0 0 Z M-224.953125 -45.11328125 C-225.81969727 -44.9416748 -226.68626953 -44.77006836 -227.57910156 -44.59326172 C-240.76975692 -41.91831729 -253.38618207 -37.89779713 -265.953125 -33.11328125 C-267.06042969 -32.69175781 -268.16773438 -32.27023438 -269.30859375 -31.8359375 C-281.05616978 -27.12739488 -292.28929724 -21.20082289 -303.265625 -14.92578125 C-304.35073364 -14.32020386 -304.35073364 -14.32020386 -305.45776367 -13.70239258 C-319.32283794 -5.60767734 -323.82039262 19.18586336 -327.953125 33.88671875 C-328.24678955 34.9238501 -328.24678955 34.9238501 -328.54638672 35.98193359 C-341.6312643 83.7617355 -338.0064371 143.691435 -316.953125 188.88671875 C-316.41014928 190.14154311 -315.8713975 191.39820016 -315.3359375 192.65625 C-311.52855406 201.5729516 -307.38599942 210.26349798 -302.953125 218.88671875 C-303.72140625 218.84804688 -304.4896875 218.809375 -305.28125 218.76953125 C-308.92348489 218.92927839 -310.35368495 220.43169204 -312.953125 222.88671875 C-315.99356116 228.96759107 -314.07634882 237.36810888 -312.265625 243.57421875 C-307.32562373 257.98255579 -298.62435297 268.81604239 -284.953125 275.88671875 C-276.92987121 279.39088285 -270.1494659 281.13455805 -261.390625 280.26171875 C-252.66501557 280.2161304 -248.67850852 284.61630881 -242.77246094 290.23974609 C-197.6861755 331.05457185 -133.42292324 345.53524042 -74.34265137 343.01361084 C-48.19574417 341.62511991 -23.18322228 335.60316019 1.39746094 326.83154297 C3.04522903 326.24392202 4.69640717 325.66566873 6.35253906 325.10205078 C15.6111608 321.93096196 20.5137281 318.59216504 25.046875 309.88671875 C25.35786133 309.30599609 25.66884766 308.72527344 25.98925781 308.12695312 C28.4851849 303.44617848 30.79450933 298.68867647 33.046875 293.88671875 C33.35125488 293.24460449 33.65563477 292.60249023 33.96923828 291.94091797 C61.45826534 233.46480634 64.56782578 165.51997467 43.2109375 104.71484375 C31.76606155 73.27515732 14.02152024 46.08205685 -8.953125 21.88671875 C-9.45859863 21.35256348 -9.96407227 20.8184082 -10.48486328 20.26806641 C-17.87789272 12.5108029 -25.61874798 5.57370372 -34.21777344 -0.82226562 C-35.34834164 -1.66335238 -36.47426796 -2.51072639 -37.59472656 -3.36523438 C-52.6468262 -14.84302878 -69.33026355 -24.2175612 -86.953125 -31.11328125 C-87.69240234 -31.40541504 -88.43167969 -31.69754883 -89.19335938 -31.99853516 C-104.11918877 -37.8435498 -119.15322122 -42.30751554 -134.890625 -45.36328125 C-135.73028809 -45.52658936 -136.56995117 -45.68989746 -137.43505859 -45.8581543 C-147.00361849 -47.62415104 -156.56157625 -48.26765739 -166.28125 -48.31640625 C-167.69679924 -48.32692772 -167.69679924 -48.32692772 -169.14094543 -48.33766174 C-172.16172124 -48.355036 -175.1823011 -48.36151183 -178.203125 -48.36328125 C-179.75046829 -48.36429337 -179.75046829 -48.36429337 -181.32907104 -48.36532593 C-196.08096991 -48.34997267 -210.45510555 -48.10813613 -224.953125 -45.11328125 Z " fill="#6763F6" transform="translate(434.953125,68.11328125)"/>
<path d="M0 0 C8.6427881 8.15614462 16.80968213 16.42633591 24.046875 25.88671875 C24.51673828 26.49128906 24.98660156 27.09585938 25.47070312 27.71875 C51.70734705 61.6957065 67.04999517 101.75628147 74.046875 143.88671875 C74.29244141 145.2958252 74.29244141 145.2958252 74.54296875 146.73339844 C79.24772978 174.62174427 79.62475007 206.10759791 74.046875 233.88671875 C73.84819824 234.89976074 73.64952148 235.91280273 73.44482422 236.95654297 C63.62065948 285.76829179 41.60304275 329.92742049 7.046875 365.88671875 C6.47952637 366.48129883 5.91217773 367.07587891 5.32763672 367.68847656 C-2.68121983 376.03973919 -10.90316198 383.68947694 -20.20263672 390.58056641 C-21.96202186 391.89335727 -23.69460679 393.23623294 -25.42578125 394.5859375 C-35.63970017 402.44506648 -46.59358955 408.82954065 -57.953125 414.88671875 C-59.19376709 415.55018311 -59.19376709 415.55018311 -60.45947266 416.22705078 C-120.96753701 448.04230916 -194.19106076 451.61114378 -258.953125 431.88671875 C-260.1592041 431.52634521 -260.1592041 431.52634521 -261.38964844 431.15869141 C-297.80651449 420.06844168 -330.76387958 399.30258119 -357.953125 372.88671875 C-358.55753418 372.30809082 -359.16194336 371.72946289 -359.78466797 371.13330078 C-368.67144134 362.60916034 -376.65841714 353.80528123 -383.953125 343.88671875 C-384.37932129 343.31598633 -384.80551758 342.74525391 -385.24462891 342.15722656 C-391.75972708 333.41619814 -397.57863542 324.36896785 -402.953125 314.88671875 C-403.34999512 314.19545898 -403.74686523 313.50419922 -404.15576172 312.79199219 C-423.04288001 279.60280772 -434.94790807 239.70962304 -435.15625 201.3828125 C-435.16330963 200.51020782 -435.17036926 199.63760315 -435.17764282 198.73855591 C-435.29512689 179.93421933 -435.31161859 161.44891346 -431.953125 142.88671875 C-431.76508301 141.81099609 -431.57704102 140.73527344 -431.38330078 139.62695312 C-423.86578325 97.83505776 -407.69532417 58.09984703 -380.953125 24.88671875 C-380.5185498 24.33790039 -380.08397461 23.78908203 -379.63623047 23.22363281 C-368.68839926 9.45849849 -356.0507028 -3.57056817 -341.953125 -14.11328125 C-340.91414063 -14.89574219 -339.87515625 -15.67820313 -338.8046875 -16.484375 C-329.5731282 -23.31149127 -319.85672901 -29.31698588 -309.953125 -35.11328125 C-309.33920898 -35.47663574 -308.72529297 -35.83999023 -308.09277344 -36.21435547 C-277.42324715 -54.18088391 -241.08089621 -63.48664461 -205.953125 -67.11328125 C-204.93089844 -67.22414063 -203.90867188 -67.335 -202.85546875 -67.44921875 C-129.3700434 -74.05665675 -54.06739955 -50.50837778 0 0 Z M-224.953125 -45.11328125 C-225.81969727 -44.9416748 -226.68626953 -44.77006836 -227.57910156 -44.59326172 C-240.76975692 -41.91831729 -253.38618207 -37.89779713 -265.953125 -33.11328125 C-267.06042969 -32.69175781 -268.16773438 -32.27023438 -269.30859375 -31.8359375 C-290.13901525 -23.48690216 -309.4243503 -12.06922305 -326.953125 1.88671875 C-327.50919434 2.32564453 -328.06526367 2.76457031 -328.63818359 3.21679688 C-343.48206887 15.02699408 -356.71196934 28.6228084 -367.953125 43.88671875 C-368.62085938 44.7478125 -369.28859375 45.60890625 -369.9765625 46.49609375 C-405.68250478 93.4239036 -421.16103923 156.16031795 -413.77734375 214.45703125 C-411.23189802 232.10862689 -408.14934584 250.13108781 -401.953125 266.88671875 C-401.52410889 268.08699707 -401.52410889 268.08699707 -401.08642578 269.31152344 C-396.80375053 281.2692678 -391.95665855 292.69663322 -385.953125 303.88671875 C-385.61200684 304.53946777 -385.27088867 305.1922168 -384.91943359 305.86474609 C-379.25735399 316.67992469 -372.56722397 326.3559759 -364.953125 335.88671875 C-364.50211426 336.45487305 -364.05110352 337.02302734 -363.58642578 337.60839844 C-352.7785315 351.11325707 -340.59351302 363.33988222 -326.66943359 373.61914062 C-324.96744911 374.87613969 -323.28267502 376.15398195 -321.59765625 377.43359375 C-298.11014846 395.00336383 -269.56493032 408.05739539 -240.95556641 414.43066406 C-238.91913542 414.89445985 -236.89599464 415.39853161 -234.87109375 415.91015625 C-196.56641165 425.35702361 -152.93494212 425.19953631 -114.953125 413.88671875 C-113.22427334 413.42719864 -111.49507213 412.96899264 -109.765625 412.51171875 C-78.08477777 403.87638037 -47.55680509 388.84316744 -22.953125 366.88671875 C-21.48359375 365.57960938 -21.48359375 365.57960938 -19.984375 364.24609375 C26.32902334 322.59919885 53.33455838 263.97487926 56.91796875 201.72460938 C59.82862989 137.64596335 40.23050237 75.7863833 -3.203125 28.01171875 C-5.104479 25.9553431 -7.02464965 23.91765819 -8.953125 21.88671875 C-9.45859863 21.35256348 -9.96407227 20.8184082 -10.48486328 20.26806641 C-17.87789272 12.5108029 -25.61874798 5.57370372 -34.21777344 -0.82226562 C-35.34834164 -1.66335238 -36.47426796 -2.51072639 -37.59472656 -3.36523438 C-52.6468262 -14.84302878 -69.33026355 -24.2175612 -86.953125 -31.11328125 C-87.69240234 -31.40541504 -88.43167969 -31.69754883 -89.19335938 -31.99853516 C-104.11918877 -37.8435498 -119.15322122 -42.30751554 -134.890625 -45.36328125 C-135.73028809 -45.52658936 -136.56995117 -45.68989746 -137.43505859 -45.8581543 C-147.00361849 -47.62415104 -156.56157625 -48.26765739 -166.28125 -48.31640625 C-167.69679924 -48.32692772 -167.69679924 -48.32692772 -169.14094543 -48.33766174 C-172.16172124 -48.355036 -175.1823011 -48.36151183 -178.203125 -48.36328125 C-179.75046829 -48.36429337 -179.75046829 -48.36429337 -181.32907104 -48.36532593 C-196.08096991 -48.34997267 -210.45510555 -48.10813613 -224.953125 -45.11328125 Z " fill="#052A75" transform="translate(434.953125,68.11328125)"/>
<path d="M0 0 C9.41282317 7.40475423 15.56035177 19.03187991 18.0703125 30.6328125 C18.28417082 33.54703646 18.25542577 36.46145254 18.2578125 39.3828125 C18.27005859 40.15625 18.28230469 40.9296875 18.29492188 41.7265625 C18.32887434 55.21700839 13.27630024 66.86109367 4.0703125 76.6328125 C2.42892416 77.9971438 0.76819743 79.33946711 -0.9296875 80.6328125 C0.47447244 83.89017845 2.11287354 85.73715417 4.7578125 88.0703125 C12.36961285 95.47414016 17.87591247 106.13101814 18.37109375 116.83203125 C18.39062297 118.32800263 18.39401892 119.82425562 18.3828125 121.3203125 C18.37717285 122.11123291 18.3715332 122.90215332 18.36572266 123.71704102 C18.05845794 138.67109762 12.69836649 150.5665674 2.421875 161.41015625 C-3.8707019 167.35779123 -10.81494228 170.79606123 -18.9296875 173.6328125 C-20.569375 174.2515625 -20.569375 174.2515625 -22.2421875 174.8828125 C-35.26356375 177.53122801 -48.80993791 175.24056591 -60.23046875 168.48828125 C-73.47060517 159.38688502 -81.70747259 147.44274546 -84.9296875 131.6328125 C-85.92108499 121.3364414 -85.92108499 121.3364414 -83.84765625 117.7734375 C-82.4921875 116.4453125 -82.4921875 116.4453125 -79.9296875 114.6328125 C-79.4346875 114.1378125 -79.4346875 114.1378125 -78.9296875 113.6328125 C-71.82878512 112.92272226 -71.82878512 112.92272226 -68.25390625 115.74609375 C-65.59667181 119.04642359 -65.10175067 121.0417774 -64.4921875 125.1953125 C-62.49595034 135.71691611 -59.0860464 143.91024678 -50.2734375 150.328125 C-42.544188 154.63074056 -33.54696077 154.79730889 -24.9296875 153.6328125 C-15.64573921 150.77543082 -9.89678637 145.74850021 -5.1171875 137.5078125 C-1.90067656 129.72047023 -1.42701978 120.26424908 -4.0234375 112.26171875 C-8.79690912 102.09270074 -14.56160315 97.68174837 -24.859375 93.578125 C-27.80969302 92.66975737 -30.29728864 92.33277066 -33.3671875 92.1953125 C-36.82005394 91.98402599 -38.6324358 91.60790952 -41.0546875 89.0703125 C-43.50529237 84.5775369 -43.73175914 82.6858638 -42.9296875 77.6328125 C-39.03177464 72.81170975 -36.31336403 71.63288068 -30.3671875 70.8203125 C-22.75638032 69.58834731 -15.42724363 67.28307852 -9.9296875 61.6328125 C-3.86899359 52.39157951 -1.613296 43.69285177 -2.9296875 32.6328125 C-5.85075957 23.47224458 -10.92542706 17.082945 -19.20703125 12.32421875 C-27.47538218 8.45136069 -36.64071939 8.14317866 -45.2421875 11.1953125 C-53.01222202 14.81544222 -58.31150697 19.88383462 -61.91796875 27.671875 C-63.54769656 32.44150312 -64.26608438 37.33612544 -64.9609375 42.3125 C-66.13487421 46.3360734 -67.35334832 47.5254196 -70.9296875 49.6328125 C-74.00807391 50.3388168 -76.82995128 50.21799635 -79.9296875 49.6328125 C-82.96184425 47.43449886 -83.74623148 46.18318056 -84.9296875 42.6328125 C-85.16626348 28.04959293 -81.80533476 16.70810455 -71.9296875 5.6328125 C-71.40761719 5.01792969 -70.88554687 4.40304688 -70.34765625 3.76953125 C-51.17230089 -17.27203874 -21.65829778 -15.34494782 0 0 Z " fill="#FDFDFE" transform="translate(205.9296875,173.3671875)"/>
<path d="M0 0 C3.5542299 0.64622362 5.59136218 1.42940796 8.4375 3.625 C10.90440678 7.32536017 10.69561306 9.17620803 10.71165466 13.59579468 C10.71950968 14.66628034 10.71950968 14.66628034 10.72752339 15.75839198 C10.74255594 18.1558788 10.74322924 20.55315282 10.74389648 22.95068359 C10.75151577 24.6671332 10.75994287 26.38357938 10.76911926 28.10002136 C10.79109352 32.7673925 10.79986705 37.43469812 10.80494571 42.10211515 C10.80858573 45.01701482 10.81482392 47.93189722 10.8219471 50.84679031 C10.84645146 61.01277676 10.85949569 71.1787121 10.86303711 81.34472656 C10.86667348 90.82593991 10.89657359 100.30682976 10.93844169 109.7879442 C10.97311221 117.92390792 10.98858499 126.05976426 10.98928314 134.19580138 C10.99007705 139.05692246 10.99886756 143.91771414 11.02728081 148.778759 C11.05340616 153.35072351 11.05569782 157.92208422 11.03962517 162.49408913 C11.03780627 164.17228954 11.04454115 165.85052423 11.06044388 167.52865028 C11.08083342 169.81989781 11.07039769 172.1090185 11.05223083 174.40023804 C11.05424216 175.68224279 11.05625349 176.96424755 11.05832577 178.28510094 C10.27012106 182.52546001 8.78070105 183.98326609 5.4375 186.625 C1.04226848 187.98352611 -0.75038951 188.03871666 -4.875 185.9375 C-8.07754653 183.18182043 -9.38869043 181.37343604 -9.80859566 177.14940262 C-9.80583028 175.75012087 -9.80583028 175.75012087 -9.80300903 174.3225708 C-9.80575836 173.24847458 -9.80850769 172.17437836 -9.81134033 171.06773376 C-9.80414978 169.89457108 -9.79695923 168.72140839 -9.78955078 167.51269531 C-9.78984283 166.27340775 -9.79013489 165.03412018 -9.79043579 163.75727844 C-9.78928149 160.36289993 -9.77925359 156.96876493 -9.76528788 153.57442951 C-9.75278225 150.02568085 -9.75161015 146.47692892 -9.74923706 142.92816162 C-9.74302179 136.20985457 -9.72661036 129.49161264 -9.70653808 122.77333426 C-9.68418053 115.12406127 -9.67318601 107.47478515 -9.66314721 99.82548761 C-9.64224416 84.09195403 -9.60706729 68.35848542 -9.5625 52.625 C-10.49916504 53.10783447 -11.43583008 53.59066895 -12.40087891 54.08813477 C-13.65513554 54.72699607 -14.90953788 55.36557135 -16.1640625 56.00390625 C-17.08554077 56.48035583 -17.08554077 56.48035583 -18.02563477 56.96643066 C-25.9893189 61.000769 -34.58644185 63.56984823 -43.5625 62.625 C-47.14802881 60.98812815 -48.35565055 59.93527417 -50.5625 56.625 C-51.36645537 52.10592453 -51.17429576 48.65194289 -48.8125 44.6875 C-44.77743058 42.12678287 -41.38320359 41.76285177 -36.69921875 41.140625 C-28.51881823 39.79590163 -21.18203953 36.4947426 -16.16015625 29.73828125 C-12.52053164 24.19972207 -10.63332231 19.33453713 -10.3125 12.6875 C-9.89966703 7.98262766 -8.62118849 5.21195185 -5.30859375 1.84375 C-3.5625 0.625 -3.5625 0.625 0 0 Z " fill="#FDFDFE" transform="translate(338.5625,161.375)"/>
<path d="M0 0 C3.03519947 2.88648145 5.50446959 5.90625743 7.9375 9.3125 C8.62714844 10.27414062 9.31679687 11.23578125 10.02734375 12.2265625 C10.67832031 13.14179688 11.32929688 14.05703125 12 15 C12.53753906 15.75023437 13.07507813 16.50046875 13.62890625 17.2734375 C14.75583791 18.84664694 15.87851098 20.42290606 17 22 C9.51042723 19.57690293 6.12396737 15.69181172 2.625 8.875 C0 3.47692308 0 3.47692308 0 0 Z " fill="#726DF7" transform="translate(142,303)"/>
</svg>
